<ttFont>
    <TTGlyph name=".notdef" xMin="0" yMin="0" xMax="0" yMax="0">
      <contour>
        <pt x="0" y="0" on="0"/>
      </contour>
    </TTGlyph>
    <TTGlyph name="A" xMin="-33" yMin="0" xMax="1082" yMax="1206">
      <contour>
        <pt x="305" y="1206" on="1"/>
        <pt x="428" y="1206" on="0"/>
        <pt x="495" y="1165" on="1"/>
        <pt x="588" y="1106" on="0"/>
        <pt x="644" y="944" on="1"/>
        <pt x="846" y="355" on="0"/>
        <pt x="900" y="213" on="1"/>
        <pt x="956" y="65" on="0"/>
        <pt x="1037" y="49" on="1"/>
        <pt x="1082" y="41" on="1"/>
        <pt x="1082" y="0" on="1"/>
        <pt x="670" y="0" on="1"/>
        <pt x="670" y="42" on="1"/>
        <pt x="747" y="59" on="1"/>
        <pt x="794" y="71" on="0"/>
        <pt x="795" y="111" on="1"/>
        <pt x="795" y="135" on="0"/>
        <pt x="781" y="176" on="1"/>
        <pt x="707" y="398" on="1"/>
        <pt x="302" y="398" on="1"/>
        <pt x="217" y="129" on="0"/>
        <pt x="215" y="112" on="1"/>
        <pt x="215" y="68" on="0"/>
        <pt x="285" y="52" on="1"/>
        <pt x="344" y="41" on="1"/>
        <pt x="344" y="0" on="1"/>
        <pt x="-33" y="0" on="1"/>
        <pt x="-33" y="42" on="1"/>
        <pt x="23" y="52" on="1"/>
        <pt x="97" y="66" on="0"/>
        <pt x="152" y="225" on="1"/>
        <pt x="368" y="852" on="1"/>
        <pt x="427" y="1025" on="0"/>
        <pt x="434" y="1095" on="0"/>
        <pt x="407" y="1095" on="1"/>
        <pt x="375" y="1095" on="0"/>
        <pt x="318" y="1073" on="0"/>
        <pt x="310" y="1073" on="1"/>
        <pt x="262" y="1073" on="0"/>
        <pt x="245" y="1117" on="1"/>
        <pt x="240" y="1132" on="0"/>
        <pt x="240" y="1148" on="1"/>
        <pt x="247" y="1203" on="0"/>
      </contour>
      <contour>
        <pt x="507" y="1014" on="1"/>
        <pt x="323" y="460" on="1"/>
        <pt x="688" y="460" on="1"/>
      </contour>
    </TTGlyph>
    <TTGlyph name="A.alt1" xMin="-28" yMin="0" xMax="1087" yMax="1221">
      <contour>
        <pt x="-28" y="0" on="1"/>
        <pt x="-28" y="42" on="1"/>
        <pt x="28" y="52" on="1"/>
        <pt x="101" y="65" on="0"/>
        <pt x="156" y="225" on="1"/>
        <pt x="505" y="1221" on="1"/>
        <pt x="564" y="1221" on="1"/>
        <pt x="908" y="202" on="1"/>
        <pt x="954" y="66" on="0"/>
        <pt x="1042" y="49" on="1"/>
        <pt x="1087" y="41" on="1"/>
        <pt x="1087" y="0" on="1"/>
        <pt x="675" y="0" on="1"/>
        <pt x="675" y="42" on="1"/>
        <pt x="751" y="59" on="1"/>
        <pt x="799" y="71" on="0"/>
        <pt x="800" y="111" on="1"/>
        <pt x="800" y="135" on="0"/>
        <pt x="786" y="176" on="1"/>
        <pt x="712" y="398" on="1"/>
        <pt x="306" y="398" on="1"/>
        <pt x="221" y="128" on="0"/>
        <pt x="220" y="112" on="1"/>
        <pt x="220" y="68" on="0"/>
        <pt x="290" y="52" on="1"/>
        <pt x="349" y="41" on="1"/>
        <pt x="349" y="0" on="1"/>
      </contour>
      <contour>
        <pt x="512" y="1014" on="1"/>
        <pt x="328" y="460" on="1"/>
        <pt x="693" y="460" on="1"/>
      </contour>
    </TTGlyph>
    <TTGlyph name="AE" xMin="54" yMin="0" xMax="1588" yMax="1190">
      <contour>
        <pt x="927" y="153" on="1"/>
        <pt x="927" y="398" on="1"/>
        <pt x="513" y="398" on="1"/>
        <pt x="316" y="132" on="0"/>
        <pt x="315" y="112" on="1"/>
        <pt x="315" y="68" on="0"/>
        <pt x="385" y="52" on="1"/>
        <pt x="443" y="41" on="1"/>
        <pt x="443" y="0" on="1"/>
        <pt x="54" y="0" on="1"/>
        <pt x="54" y="42" on="1"/>
        <pt x="117" y="52" on="1"/>
        <pt x="177" y="52" on="0"/>
        <pt x="363" y="307" on="1"/>
        <pt x="922" y="1105" on="1"/>
        <pt x="917" y="1121" on="0"/>
        <pt x="884" y="1130" on="0"/>
        <pt x="879" y="1131" on="1"/>
        <pt x="810" y="1146" on="1"/>
        <pt x="810" y="1190" on="1"/>
        <pt x="1529" y="1190" on="1"/>
        <pt x="1529" y="1006" on="1"/>
        <pt x="1490" y="1006" on="1"/>
        <pt x="1469" y="1127" on="0"/>
        <pt x="1392" y="1128" on="1"/>
        <pt x="1061" y="1128" on="1"/>
        <pt x="1061" y="619" on="1"/>
        <pt x="1293" y="619" on="1"/>
        <pt x="1330" y="619" on="0"/>
        <pt x="1345" y="642" on="0"/>
        <pt x="1353" y="679" on="1"/>
        <pt x="1364" y="725" on="1"/>
        <pt x="1407" y="725" on="1"/>
        <pt x="1407" y="453" on="1"/>
        <pt x="1364" y="453" on="1"/>
        <pt x="1349" y="535" on="0"/>
        <pt x="1333" y="548" on="1"/>
        <pt x="1322" y="557" on="0"/>
        <pt x="1291" y="557" on="1"/>
        <pt x="1061" y="557" on="1"/>
        <pt x="1061" y="62" on="1"/>
        <pt x="1460" y="62" on="1"/>
        <pt x="1524" y="68" on="0"/>
        <pt x="1544" y="157" on="1"/>
        <pt x="1548" y="174" on="0"/>
        <pt x="1548" y="184" on="1"/>
        <pt x="1588" y="184" on="1"/>
        <pt x="1588" y="0" on="1"/>
        <pt x="805" y="0" on="1"/>
        <pt x="805" y="42" on="1"/>
        <pt x="874" y="57" on="1"/>
        <pt x="911" y="65" on="0"/>
        <pt x="919" y="80" on="1"/>
        <pt x="927" y="97" on="0"/>
      </contour>
      <contour>
        <pt x="551" y="460" on="1"/>
        <pt x="927" y="460" on="1"/>
        <pt x="927" y="991" on="1"/>
      </contour>
    </TTGlyph>
    <TTGlyph name="Aacute" xMin="-33" yMin="0" xMax="1082" yMax="1517">
      <contour>
        <pt x="735" y="1073" on="1"/>
        <pt x="765" y="1073" on="0"/>
        <pt x="802" y="1117" on="0"/>
        <pt x="802" y="1148" on="1"/>
        <pt x="802" y="1179" on="0"/>
        <pt x="764" y="1206" on="0"/>
        <pt x="737" y="1206" on="1"/>
        <pt x="672" y="1206" on="0"/>
        <pt x="577" y="1182" on="0"/>
        <pt x="506" y="1137" on="0"/>
        <pt x="456" y="1073" on="0"/>
        <pt x="418" y="995" on="0"/>
        <pt x="385" y="903" on="0"/>
        <pt x="368" y="852" on="1"/>
        <pt x="152" y="225" on="1"/>
        <pt x="144" y="201" on="0"/>
        <pt x="120" y="144" on="0"/>
        <pt x="89" y="94" on="0"/>
        <pt x="48" y="56" on="0"/>
        <pt x="23" y="52" on="1"/>
        <pt x="-33" y="42" on="1"/>
        <pt x="-33" y="0" on="1"/>
        <pt x="344" y="0" on="1"/>
        <pt x="344" y="41" on="1"/>
        <pt x="285" y="52" on="1"/>
        <pt x="244" y="61" on="0"/>
        <pt x="215" y="92" on="0"/>
        <pt x="215" y="112" on="1"/>
        <pt x="215" y="119" on="0"/>
        <pt x="220" y="141" on="0"/>
        <pt x="238" y="199" on="0"/>
        <pt x="272" y="306" on="0"/>
        <pt x="302" y="398" on="1"/>
        <pt x="707" y="398" on="1"/>
        <pt x="781" y="176" on="1"/>
        <pt x="787" y="158" on="0"/>
        <pt x="795" y="125" on="0"/>
        <pt x="795" y="111" on="1"/>
        <pt x="795" y="92" on="0"/>
        <pt x="775" y="65" on="0"/>
        <pt x="747" y="59" on="1"/>
        <pt x="670" y="42" on="1"/>
        <pt x="670" y="0" on="1"/>
        <pt x="1082" y="0" on="1"/>
        <pt x="1082" y="41" on="1"/>
        <pt x="1037" y="49" on="1"/>
        <pt x="991" y="57" on="0"/>
        <pt x="928" y="137" on="0"/>
        <pt x="903" y="202" on="1"/>
        <pt x="881" y="261" on="0"/>
        <pt x="829" y="407" on="0"/>
        <pt x="775" y="560" on="0"/>
        <pt x="724" y="710" on="0"/>
        <pt x="681" y="836" on="0"/>
        <pt x="650" y="926" on="0"/>
        <pt x="644" y="944" on="1"/>
        <pt x="626" y="995" on="0"/>
        <pt x="610" y="1056" on="0"/>
        <pt x="610" y="1088" on="0"/>
        <pt x="623" y="1097" on="0"/>
        <pt x="640" y="1097" on="1"/>
        <pt x="670" y="1096" on="0"/>
        <pt x="719" y="1073" on="0"/>
      </contour>
      <contour>
        <pt x="507" y="1014" on="1"/>
        <pt x="688" y="460" on="1"/>
        <pt x="323" y="460" on="1"/>
      </contour>
      <contour>
        <pt x="497" y="1248" on="1"/>
        <pt x="596" y="1292" on="0"/>
        <pt x="683" y="1443" on="0"/>
        <pt x="687" y="1517" on="1"/>
        <pt x="746" y="1517" on="0"/>
        <pt x="789" y="1470" on="0"/>
        <pt x="789" y="1438" on="1"/>
        <pt x="789" y="1382" on="0"/>
        <pt x="647" y="1259" on="0"/>
        <pt x="497" y="1227" on="1"/>
      </contour>
    </TTGlyph>
    <TTGlyph name="Acircumflex" xMin="-28" yMin="0" xMax="1087" yMax="1593">
      <component glyphName="A.alt1" x="0" y="0" flags="0x4"/>
      <component glyphName="circumflex" x="253" y="338" flags="0x4"/>
    </TTGlyph>
    <TTGlyph name="Adieresis" xMin="-33" yMin="0" xMax="1082" yMax="1525">
      <component glyphName="A" x="0" y="0" flags="0x204"/>
      <component glyphName="dieresis" x="101" y="386" flags="0x4"/>
    </TTGlyph>
    <TTGlyph name="Agrave" xMin="-33" yMin="0" xMax="1082" yMax="1575">
      <component glyphName="A" x="0" y="0" flags="0x204"/>
      <component glyphName="grave" x="43" y="339" flags="0x4"/>
    </TTGlyph>
    <TTGlyph name="Aring" xMin="83" yMin="0" xMax="1198" yMax="1474">
      <contour>
        <pt x="642" y="1474" on="1"/>
        <pt x="707" y="1474" on="0"/>
        <pt x="784" y="1392" on="0"/>
        <pt x="784" y="1335" on="1"/>
        <pt x="784" y="1285" on="0"/>
        <pt x="723" y="1213" on="0"/>
        <pt x="685" y="1202" on="1"/>
        <pt x="891" y="566" on="1"/>
        <pt x="961" y="359" on="0"/>
        <pt x="1071" y="65" on="0"/>
        <pt x="1152" y="49" on="1"/>
        <pt x="1198" y="41" on="1"/>
        <pt x="1198" y="0" on="1"/>
        <pt x="786" y="0" on="1"/>
        <pt x="786" y="42" on="1"/>
        <pt x="862" y="59" on="1"/>
        <pt x="910" y="71" on="0"/>
        <pt x="911" y="111" on="1"/>
        <pt x="911" y="137" on="0"/>
        <pt x="896" y="176" on="1"/>
        <pt x="823" y="398" on="1"/>
        <pt x="417" y="398" on="1"/>
        <pt x="346" y="178" on="1"/>
        <pt x="331" y="124" on="0"/>
        <pt x="331" y="112" on="1"/>
        <pt x="331" y="68" on="0"/>
        <pt x="401" y="52" on="1"/>
        <pt x="460" y="41" on="1"/>
        <pt x="460" y="0" on="1"/>
        <pt x="83" y="0" on="1"/>
        <pt x="83" y="42" on="1"/>
        <pt x="139" y="52" on="1"/>
        <pt x="215" y="66" on="0"/>
        <pt x="267" y="225" on="1"/>
        <pt x="607" y="1201" on="1"/>
        <pt x="563" y="1215" on="0"/>
        <pt x="509" y="1285" on="0"/>
        <pt x="509" y="1335" on="1"/>
        <pt x="509" y="1391" on="0"/>
        <pt x="587" y="1474" on="0"/>
      </contour>
      <contour>
        <pt x="623" y="1014" on="1"/>
        <pt x="438" y="460" on="1"/>
        <pt x="804" y="460" on="1"/>
      </contour>
      <contour>
        <pt x="649" y="1425" on="1"/>
        <pt x="605" y="1425" on="0"/>
        <pt x="558" y="1370" on="0"/>
        <pt x="557" y="1335" on="1"/>
        <pt x="557" y="1293" on="0"/>
        <pt x="610" y="1245" on="0"/>
        <pt x="645" y="1245" on="1"/>
        <pt x="690" y="1245" on="0"/>
        <pt x="734" y="1298" on="0"/>
        <pt x="735" y="1335" on="1"/>
        <pt x="735" y="1371" on="0"/>
        <pt x="683" y="1425" on="0"/>
      </contour>
    </TTGlyph>
    <TTGlyph name="Atilde" xMin="-28" yMin="0" xMax="1087" yMax="1469">
      <component glyphName="A.alt1" x="0" y="0" flags="0x4"/>
      <component glyphName="tilde" x="162" y="325" flags="0x4"/>
    </TTGlyph>
    <TTGlyph name="B" xMin="35" yMin="0" xMax="870" yMax="1190">
      <contour>
        <pt x="171" y="210" on="1"/>
        <pt x="171" y="980" on="1"/>
        <pt x="171" y="1071" on="0"/>
        <pt x="156" y="1099" on="1"/>
        <pt x="141" y="1126" on="0"/>
        <pt x="94" y="1136" on="1"/>
        <pt x="35" y="1148" on="1"/>
        <pt x="35" y="1190" on="1"/>
        <pt x="455" y="1190" on="1"/>
        <pt x="611" y="1190" on="0"/>
        <pt x="785" y="1042" on="0"/>
        <pt x="786" y="918" on="1"/>
        <pt x="786" y="794" on="0"/>
        <pt x="688" y="708" on="1"/>
        <pt x="644" y="669" on="0"/>
        <pt x="593" y="650" on="1"/>
        <pt x="730" y="637" on="0"/>
        <pt x="870" y="459" on="0"/>
        <pt x="870" y="325" on="1"/>
        <pt x="870" y="190" on="0"/>
        <pt x="628" y="0" on="0"/>
        <pt x="398" y="0" on="1"/>
        <pt x="35" y="0" on="1"/>
        <pt x="35" y="42" on="1"/>
        <pt x="93" y="54" on="1"/>
        <pt x="148" y="65" on="0"/>
        <pt x="159" y="98" on="1"/>
        <pt x="171" y="131" on="0"/>
      </contour>
      <contour>
        <pt x="390" y="618" on="1"/>
        <pt x="305" y="618" on="1"/>
        <pt x="305" y="62" on="1"/>
        <pt x="544" y="62" on="0"/>
        <pt x="720" y="206" on="0"/>
        <pt x="720" y="349" on="1"/>
        <pt x="720" y="575" on="0"/>
        <pt x="505" y="610" on="1"/>
        <pt x="457" y="618" on="0"/>
      </contour>
      <contour>
        <pt x="403" y="1128" on="1"/>
        <pt x="305" y="1128" on="1"/>
        <pt x="305" y="680" on="1"/>
        <pt x="393" y="680" on="1"/>
        <pt x="569" y="680" on="0"/>
        <pt x="620" y="817" on="1"/>
        <pt x="636" y="861" on="0"/>
        <pt x="636" y="911" on="1"/>
        <pt x="634" y="1127" on="0"/>
      </contour>
    </TTGlyph>
    <TTGlyph name="B.alt1" xMin="35" yMin="0" xMax="870" yMax="1190">
      <contour>
        <pt x="171" y="210" on="1"/>
        <pt x="171" y="980" on="1"/>
        <pt x="171" y="1071" on="0"/>
        <pt x="156" y="1099" on="1"/>
        <pt x="141" y="1126" on="0"/>
        <pt x="94" y="1136" on="1"/>
        <pt x="35" y="1148" on="1"/>
        <pt x="35" y="1190" on="1"/>
        <pt x="455" y="1190" on="1"/>
        <pt x="611" y="1190" on="0"/>
        <pt x="785" y="1042" on="0"/>
        <pt x="786" y="918" on="1"/>
        <pt x="786" y="794" on="0"/>
        <pt x="688" y="708" on="1"/>
        <pt x="644" y="669" on="0"/>
        <pt x="593" y="650" on="1"/>
        <pt x="730" y="637" on="0"/>
        <pt x="870" y="459" on="0"/>
        <pt x="870" y="325" on="1"/>
        <pt x="870" y="190" on="0"/>
        <pt x="628" y="0" on="0"/>
        <pt x="398" y="0" on="1"/>
        <pt x="35" y="0" on="1"/>
        <pt x="35" y="42" on="1"/>
        <pt x="93" y="54" on="1"/>
        <pt x="148" y="65" on="0"/>
        <pt x="159" y="98" on="1"/>
        <pt x="171" y="131" on="0"/>
      </contour>
      <contour>
        <pt x="390" y="618" on="1"/>
        <pt x="305" y="618" on="1"/>
        <pt x="305" y="62" on="1"/>
        <pt x="544" y="62" on="0"/>
        <pt x="720" y="206" on="0"/>
        <pt x="720" y="349" on="1"/>
        <pt x="720" y="575" on="0"/>
        <pt x="505" y="610" on="1"/>
        <pt x="457" y="618" on="0"/>
      </contour>
      <contour>
        <pt x="403" y="1128" on="1"/>
        <pt x="305" y="1128" on="1"/>
        <pt x="305" y="680" on="1"/>
        <pt x="393" y="680" on="1"/>
        <pt x="569" y="680" on="0"/>
        <pt x="620" y="817" on="1"/>
        <pt x="636" y="861" on="0"/>
        <pt x="636" y="911" on="1"/>
        <pt x="634" y="1127" on="0"/>
      </contour>
    </TTGlyph>
    <TTGlyph name="C" xMin="59" yMin="-33" xMax="1068" yMax="1201">
      <contour>
        <pt x="645" y="1201" on="1"/>
        <pt x="840" y="1200" on="0"/>
        <pt x="999" y="1110" on="1"/>
        <pt x="1036" y="1090" on="0"/>
        <pt x="1052" y="1076" on="1"/>
        <pt x="1068" y="1061" on="1"/>
        <pt x="1068" y="833" on="1"/>
        <pt x="1019" y="833" on="1"/>
        <pt x="1014" y="875" on="0"/>
        <pt x="976" y="941" on="1"/>
        <pt x="865" y="1133" on="0"/>
        <pt x="641" y="1134" on="1"/>
        <pt x="457" y="1134" on="0"/>
        <pt x="330" y="984" on="1"/>
        <pt x="196" y="826" on="0"/>
        <pt x="196" y="610" on="1"/>
        <pt x="196" y="451" on="0"/>
        <pt x="265" y="307" on="1"/>
        <pt x="392" y="40" on="0"/>
        <pt x="673" y="39" on="1"/>
        <pt x="919" y="39" on="0"/>
        <pt x="993" y="217" on="1"/>
        <pt x="1013" y="266" on="0"/>
        <pt x="1019" y="324" on="1"/>
        <pt x="1068" y="324" on="1"/>
        <pt x="1068" y="98" on="1"/>
        <pt x="874" y="-33" on="0"/>
        <pt x="636" y="-33" on="1"/>
        <pt x="351" y="-33" on="0"/>
        <pt x="193" y="174" on="1"/>
        <pt x="59" y="350" on="0"/>
        <pt x="59" y="585" on="1"/>
        <pt x="59" y="872" on="0"/>
        <pt x="396" y="1201" on="0"/>
      </contour>
    </TTGlyph>
    <TTGlyph name="C.alt1" xMin="59" yMin="-33" xMax="1068" yMax="1201">
      <contour>
        <pt x="645" y="1201" on="1"/>
        <pt x="840" y="1200" on="0"/>
        <pt x="999" y="1110" on="1"/>
        <pt x="1036" y="1090" on="0"/>
        <pt x="1052" y="1076" on="1"/>
        <pt x="1068" y="1061" on="1"/>
        <pt x="1068" y="833" on="1"/>
        <pt x="1019" y="833" on="1"/>
        <pt x="1014" y="875" on="0"/>
        <pt x="976" y="941" on="1"/>
        <pt x="865" y="1133" on="0"/>
        <pt x="641" y="1134" on="1"/>
        <pt x="457" y="1134" on="0"/>
        <pt x="330" y="984" on="1"/>
        <pt x="196" y="826" on="0"/>
        <pt x="196" y="610" on="1"/>
        <pt x="196" y="451" on="0"/>
        <pt x="265" y="307" on="1"/>
        <pt x="392" y="40" on="0"/>
        <pt x="673" y="39" on="1"/>
        <pt x="919" y="39" on="0"/>
        <pt x="993" y="217" on="1"/>
        <pt x="1013" y="266" on="0"/>
        <pt x="1019" y="324" on="1"/>
        <pt x="1068" y="324" on="1"/>
        <pt x="1068" y="98" on="1"/>
        <pt x="874" y="-33" on="0"/>
        <pt x="636" y="-33" on="1"/>
        <pt x="351" y="-33" on="0"/>
        <pt x="193" y="174" on="1"/>
        <pt x="59" y="350" on="0"/>
        <pt x="59" y="872" on="0"/>
        <pt x="396" y="1201" on="0"/>
      </contour>
    </TTGlyph>
    <TTGlyph name="Ccaron" xMin="59" yMin="-33" xMax="1068" yMax="1578">
      <component glyphName="C" x="0" y="0" flags="0x204"/>
      <component glyphName="caron" x="312" y="386" flags="0x4"/>
    </TTGlyph>
    <TTGlyph name="Ccedilla" xMin="68" yMin="-469" xMax="1077" yMax="1201">
      <contour>
        <pt x="558" y="-176" on="1"/>
        <pt x="617" y="-32" on="1"/>
        <pt x="375" y="-23" on="0"/>
        <pt x="68" y="312" on="0"/>
        <pt x="68" y="872" on="0"/>
        <pt x="405" y="1201" on="0"/>
        <pt x="654" y="1201" on="1"/>
        <pt x="849" y="1200" on="0"/>
        <pt x="1008" y="1110" on="1"/>
        <pt x="1044" y="1090" on="0"/>
        <pt x="1060" y="1076" on="1"/>
        <pt x="1077" y="1061" on="1"/>
        <pt x="1077" y="833" on="1"/>
        <pt x="1028" y="833" on="1"/>
        <pt x="1023" y="875" on="0"/>
        <pt x="985" y="941" on="1"/>
        <pt x="874" y="1133" on="0"/>
        <pt x="650" y="1134" on="1"/>
        <pt x="466" y="1134" on="0"/>
        <pt x="205" y="826" on="0"/>
        <pt x="205" y="610" on="1"/>
        <pt x="205" y="369" on="0"/>
        <pt x="459" y="39" on="0"/>
        <pt x="682" y="39" on="1"/>
        <pt x="928" y="39" on="0"/>
        <pt x="1002" y="217" on="1"/>
        <pt x="1022" y="266" on="0"/>
        <pt x="1028" y="324" on="1"/>
        <pt x="1077" y="324" on="1"/>
        <pt x="1077" y="98" on="1"/>
        <pt x="898" y="-23" on="0"/>
        <pt x="682" y="-32" on="1"/>
        <pt x="636" y="-141" on="1"/>
        <pt x="701" y="-144" on="0"/>
        <pt x="805" y="-227" on="0"/>
        <pt x="806" y="-385" on="0"/>
        <pt x="701" y="-469" on="0"/>
        <pt x="626" y="-469" on="1"/>
        <pt x="511" y="-469" on="0"/>
        <pt x="472" y="-390" on="1"/>
        <pt x="460" y="-364" on="0"/>
        <pt x="460" y="-339" on="1"/>
        <pt x="462" y="-300" on="0"/>
        <pt x="502" y="-299" on="1"/>
        <pt x="518" y="-299" on="0"/>
        <pt x="514" y="-365" on="0"/>
        <pt x="514" y="-370" on="1"/>
        <pt x="514" y="-397" on="0"/>
        <pt x="573" y="-420" on="0"/>
        <pt x="597" y="-420" on="1"/>
        <pt x="646" y="-418" on="0"/>
        <pt x="705" y="-356" on="0"/>
        <pt x="706" y="-291" on="1"/>
        <pt x="706" y="-176" on="0"/>
      </contour>
    </TTGlyph>
    <TTGlyph name="D" xMin="36" yMin="0" xMax="1333" yMax="1190">
      <contour>
        <pt x="242" y="1148" on="1"/>
        <pt x="242" y="1190" on="1"/>
        <pt x="665" y="1190" on="1"/>
        <pt x="1015" y="1190" on="0"/>
        <pt x="1333" y="883" on="0"/>
        <pt x="1333" y="592" on="1"/>
        <pt x="1333" y="210" on="0"/>
        <pt x="1005" y="71" on="1"/>
        <pt x="838" y="1" on="0"/>
        <pt x="610" y="0" on="1"/>
        <pt x="184" y="0" on="0"/>
        <pt x="73" y="225" on="1"/>
        <pt x="36" y="300" on="0"/>
        <pt x="36" y="398" on="1"/>
        <pt x="36" y="615" on="0"/>
        <pt x="235" y="718" on="1"/>
        <pt x="299" y="751" on="0"/>
        <pt x="378" y="768" on="1"/>
        <pt x="378" y="980" on="1"/>
        <pt x="378" y="1071" on="0"/>
        <pt x="348" y="1126" on="0"/>
        <pt x="301" y="1136" on="1"/>
      </contour>
      <contour>
        <pt x="831" y="691" on="1"/>
        <pt x="831" y="622" on="0"/>
        <pt x="758" y="621" on="1"/>
        <pt x="720" y="621" on="0"/>
        <pt x="646" y="699" on="0"/>
        <pt x="624" y="712" on="1"/>
        <pt x="595" y="730" on="0"/>
        <pt x="510" y="722" on="1"/>
        <pt x="510" y="64" on="1"/>
        <pt x="529" y="62" on="0"/>
        <pt x="554" y="62" on="1"/>
        <pt x="621" y="62" on="1"/>
        <pt x="841" y="62" on="0"/>
        <pt x="988" y="163" on="1"/>
        <pt x="1184" y="299" on="0"/>
        <pt x="1185" y="588" on="1"/>
        <pt x="1185" y="975" on="0"/>
        <pt x="902" y="1086" on="1"/>
        <pt x="798" y="1126" on="0"/>
        <pt x="665" y="1126" on="1"/>
        <pt x="510" y="1126" on="1"/>
        <pt x="510" y="785" on="1"/>
        <pt x="524" y="786" on="0"/>
        <pt x="546" y="786" on="1"/>
        <pt x="735" y="786" on="0"/>
        <pt x="790" y="756" on="1"/>
        <pt x="830" y="734" on="0"/>
      </contour>
      <contour>
        <pt x="378" y="696" on="1"/>
        <pt x="131" y="618" on="0"/>
        <pt x="130" y="393" on="1"/>
        <pt x="130" y="200" on="0"/>
        <pt x="332" y="111" on="1"/>
        <pt x="383" y="89" on="0"/>
        <pt x="443" y="76" on="1"/>
        <pt x="412" y="93" on="0"/>
        <pt x="378" y="132" on="1"/>
      </contour>
    </TTGlyph>
    <TTGlyph name="D.alt1" xMin="35" yMin="0" xMax="1129" yMax="1190">
      <contour>
        <pt x="35" y="1148" on="1"/>
        <pt x="35" y="1190" on="1"/>
        <pt x="458" y="1190" on="1"/>
        <pt x="822" y="1190" on="0"/>
        <pt x="985" y="1021" on="1"/>
        <pt x="1129" y="871" on="0"/>
        <pt x="1128" y="592" on="1"/>
        <pt x="1126" y="185" on="0"/>
        <pt x="759" y="56" on="1"/>
        <pt x="601" y="1" on="0"/>
        <pt x="378" y="0" on="1"/>
        <pt x="35" y="0" on="1"/>
        <pt x="35" y="42" on="1"/>
        <pt x="93" y="54" on="1"/>
        <pt x="147" y="66" on="0"/>
        <pt x="171" y="131" on="0"/>
        <pt x="171" y="210" on="1"/>
        <pt x="171" y="980" on="1"/>
        <pt x="171" y="1071" on="0"/>
        <pt x="141" y="1126" on="0"/>
        <pt x="94" y="1136" on="1"/>
      </contour>
      <contour>
        <pt x="305" y="1128" on="1"/>
        <pt x="305" y="64" on="1"/>
        <pt x="312" y="64" on="0"/>
        <pt x="333" y="63" on="1"/>
        <pt x="546" y="56" on="0"/>
        <pt x="680" y="109" on="1"/>
        <pt x="968" y="223" on="0"/>
        <pt x="980" y="588" on="1"/>
        <pt x="990" y="909" on="0"/>
        <pt x="773" y="1046" on="1"/>
        <pt x="642" y="1128" on="0"/>
        <pt x="460" y="1128" on="1"/>
      </contour>
    </TTGlyph>
    <TTGlyph name="E" xMin="35" yMin="0" xMax="831" yMax="1190">
      <contour>
        <pt x="694" y="62" on="1"/>
        <pt x="775" y="62" on="0"/>
        <pt x="791" y="184" on="1"/>
        <pt x="831" y="184" on="1"/>
        <pt x="831" y="0" on="1"/>
        <pt x="35" y="0" on="1"/>
        <pt x="35" y="42" on="1"/>
        <pt x="93" y="54" on="1"/>
        <pt x="147" y="65" on="0"/>
        <pt x="171" y="131" on="0"/>
        <pt x="171" y="210" on="1"/>
        <pt x="171" y="980" on="1"/>
        <pt x="171" y="1071" on="0"/>
        <pt x="141" y="1126" on="0"/>
        <pt x="94" y="1136" on="1"/>
        <pt x="35" y="1148" on="1"/>
        <pt x="35" y="1190" on="1"/>
        <pt x="773" y="1190" on="1"/>
        <pt x="773" y="1006" on="1"/>
        <pt x="733" y="1006" on="1"/>
        <pt x="716" y="1126" on="0"/>
        <pt x="636" y="1128" on="1"/>
        <pt x="305" y="1128" on="1"/>
        <pt x="305" y="619" on="1"/>
        <pt x="536" y="619" on="1"/>
        <pt x="574" y="619" on="0"/>
        <pt x="589" y="643" on="0"/>
        <pt x="598" y="681" on="1"/>
        <pt x="608" y="725" on="1"/>
        <pt x="650" y="725" on="1"/>
        <pt x="650" y="453" on="1"/>
        <pt x="608" y="453" on="1"/>
        <pt x="592" y="535" on="0"/>
        <pt x="565" y="557" on="0"/>
        <pt x="535" y="557" on="1"/>
        <pt x="305" y="557" on="1"/>
        <pt x="305" y="62" on="1"/>
      </contour>
    </TTGlyph>
    <TTGlyph name="E.alt1" xMin="35" yMin="0" xMax="831" yMax="1190">
      <contour>
        <pt x="694" y="62" on="1"/>
        <pt x="775" y="62" on="0"/>
        <pt x="791" y="184" on="1"/>
        <pt x="831" y="184" on="1"/>
        <pt x="831" y="0" on="1"/>
        <pt x="35" y="0" on="1"/>
        <pt x="35" y="42" on="1"/>
        <pt x="93" y="54" on="1"/>
        <pt x="147" y="65" on="0"/>
        <pt x="171" y="131" on="0"/>
        <pt x="171" y="210" on="1"/>
        <pt x="171" y="980" on="1"/>
        <pt x="171" y="1071" on="0"/>
        <pt x="141" y="1126" on="0"/>
        <pt x="94" y="1136" on="1"/>
        <pt x="35" y="1148" on="1"/>
        <pt x="35" y="1190" on="1"/>
        <pt x="773" y="1190" on="1"/>
        <pt x="773" y="1006" on="1"/>
        <pt x="733" y="1006" on="1"/>
        <pt x="716" y="1126" on="0"/>
        <pt x="636" y="1128" on="1"/>
        <pt x="305" y="1128" on="1"/>
        <pt x="305" y="619" on="1"/>
        <pt x="536" y="619" on="1"/>
        <pt x="574" y="619" on="0"/>
        <pt x="589" y="643" on="0"/>
        <pt x="598" y="681" on="1"/>
        <pt x="608" y="725" on="1"/>
        <pt x="650" y="725" on="1"/>
        <pt x="650" y="453" on="1"/>
        <pt x="608" y="453" on="1"/>
        <pt x="592" y="535" on="0"/>
        <pt x="565" y="557" on="0"/>
        <pt x="535" y="557" on="1"/>
        <pt x="305" y="557" on="1"/>
        <pt x="305" y="62" on="1"/>
      </contour>
    </TTGlyph>
    <TTGlyph name="Eacute" xMin="35" yMin="0" xMax="831" yMax="1574">
      <component glyphName="E" x="0" y="0" flags="0x204"/>
      <component glyphName="acute" x="89" y="340" flags="0x4"/>
    </TTGlyph>
    <TTGlyph name="Ecircumflex" xMin="35" yMin="0" xMax="831" yMax="1595">
      <component glyphName="E" x="0" y="0" flags="0x204"/>
      <component glyphName="circumflex" x="147" y="340" flags="0x4"/>
    </TTGlyph>
    <TTGlyph name="Edieresis" xMin="35" yMin="0" xMax="831" yMax="1525">
      <component glyphName="E" x="0" y="0" flags="0x204"/>
      <component glyphName="dieresis" x="30" y="386" flags="0x4"/>
    </TTGlyph>
    <TTGlyph name="Egrave" xMin="35" yMin="0" xMax="831" yMax="1573">
      <component glyphName="E" x="0" y="0" flags="0x204"/>
      <component glyphName="grave" x="57" y="337" flags="0x4"/>
    </TTGlyph>
    <TTGlyph name="Eth" xMin="391" yMin="-2" xMax="1514" yMax="1190">
      <contour>
        <pt x="391" y="587" on="1"/>
        <pt x="391" y="656" on="1"/>
        <pt x="556" y="656" on="1"/>
        <pt x="556" y="1036" on="1"/>
        <pt x="556" y="1102" on="0"/>
        <pt x="548" y="1115" on="1"/>
        <pt x="539" y="1127" on="0"/>
        <pt x="507" y="1133" on="1"/>
        <pt x="438" y="1147" on="1"/>
        <pt x="438" y="1190" on="1"/>
        <pt x="843" y="1190" on="1"/>
        <pt x="1178" y="1190" on="0"/>
        <pt x="1514" y="901" on="0"/>
        <pt x="1513" y="594" on="1"/>
        <pt x="1510" y="189" on="0"/>
        <pt x="1149" y="57" on="1"/>
        <pt x="988" y="-2" on="0"/>
        <pt x="763" y="-2" on="1"/>
        <pt x="434" y="-2" on="1"/>
        <pt x="434" y="41" on="1"/>
        <pt x="502" y="55" on="1"/>
        <pt x="540" y="63" on="0"/>
        <pt x="548" y="79" on="1"/>
        <pt x="556" y="96" on="0"/>
        <pt x="556" y="153" on="1"/>
        <pt x="556" y="587" on="1"/>
      </contour>
      <contour>
        <pt x="1012" y="587" on="1"/>
        <pt x="690" y="587" on="1"/>
        <pt x="689" y="67" on="1"/>
        <pt x="697" y="67" on="0"/>
        <pt x="718" y="66" on="1"/>
        <pt x="927" y="59" on="0"/>
        <pt x="1059" y="108" on="1"/>
        <pt x="1352" y="220" on="0"/>
        <pt x="1364" y="590" on="1"/>
        <pt x="1374" y="837" on="0"/>
        <pt x="1131" y="1086" on="0"/>
        <pt x="868" y="1132" on="0"/>
        <pt x="689" y="1128" on="1"/>
        <pt x="691" y="773" on="0"/>
        <pt x="691" y="656" on="1"/>
        <pt x="1012" y="656" on="1"/>
      </contour>
    </TTGlyph>
    <TTGlyph name="F" xMin="35" yMin="0" xMax="774" yMax="1190">
      <contour>
        <pt x="172" y="980" on="1"/>
        <pt x="172" y="1071" on="0"/>
        <pt x="157" y="1099" on="1"/>
        <pt x="142" y="1126" on="0"/>
        <pt x="95" y="1136" on="1"/>
        <pt x="36" y="1148" on="1"/>
        <pt x="36" y="1190" on="1"/>
        <pt x="774" y="1190" on="1"/>
        <pt x="774" y="923" on="1"/>
        <pt x="774" y="869" on="0"/>
        <pt x="732" y="849" on="1"/>
        <pt x="716" y="842" on="0"/>
        <pt x="699" y="841" on="1"/>
        <pt x="656" y="841" on="0"/>
        <pt x="643" y="881" on="1"/>
        <pt x="640" y="892" on="0"/>
        <pt x="639" y="903" on="1"/>
        <pt x="639" y="944" on="0"/>
        <pt x="679" y="966" on="1"/>
        <pt x="719" y="987" on="0"/>
        <pt x="729" y="999" on="0"/>
        <pt x="729" y="1006" on="1"/>
        <pt x="718" y="1071" on="0"/>
        <pt x="698" y="1099" on="1"/>
        <pt x="677" y="1127" on="0"/>
        <pt x="637" y="1128" on="1"/>
        <pt x="306" y="1128" on="1"/>
        <pt x="306" y="619" on="1"/>
        <pt x="537" y="619" on="1"/>
        <pt x="575" y="619" on="0"/>
        <pt x="582" y="631" on="1"/>
        <pt x="590" y="643" on="0"/>
        <pt x="599" y="681" on="1"/>
        <pt x="609" y="725" on="1"/>
        <pt x="651" y="725" on="1"/>
        <pt x="651" y="453" on="1"/>
        <pt x="608" y="453" on="1"/>
        <pt x="593" y="534" on="0"/>
        <pt x="580" y="546" on="1"/>
        <pt x="567" y="557" on="0"/>
        <pt x="535" y="557" on="1"/>
        <pt x="306" y="557" on="1"/>
        <pt x="306" y="145" on="1"/>
        <pt x="306" y="78" on="0"/>
        <pt x="356" y="58" on="1"/>
        <pt x="370" y="53" on="0"/>
        <pt x="435" y="41" on="1"/>
        <pt x="435" y="0" on="1"/>
        <pt x="35" y="0" on="1"/>
        <pt x="35" y="42" on="1"/>
        <pt x="94" y="54" on="1"/>
        <pt x="149" y="65" on="0"/>
        <pt x="160" y="98" on="1"/>
        <pt x="172" y="131" on="0"/>
        <pt x="172" y="209" on="1"/>
      </contour>
    </TTGlyph>
    <TTGlyph name="F.alt1" xMin="32" yMin="0" xMax="774" yMax="1190">
      <contour>
        <pt x="169" y="980" on="1"/>
        <pt x="169" y="1071" on="0"/>
        <pt x="154" y="1099" on="1"/>
        <pt x="139" y="1126" on="0"/>
        <pt x="92" y="1136" on="1"/>
        <pt x="33" y="1148" on="1"/>
        <pt x="33" y="1190" on="1"/>
        <pt x="774" y="1190" on="1"/>
        <pt x="774" y="1004" on="1"/>
        <pt x="735" y="1004" on="1"/>
        <pt x="714" y="1125" on="0"/>
        <pt x="637" y="1126" on="1"/>
        <pt x="303" y="1126" on="1"/>
        <pt x="303" y="621" on="1"/>
        <pt x="536" y="623" on="1"/>
        <pt x="573" y="623" on="0"/>
        <pt x="589" y="645" on="0"/>
        <pt x="598" y="682" on="1"/>
        <pt x="608" y="727" on="1"/>
        <pt x="650" y="727" on="1"/>
        <pt x="650" y="455" on="1"/>
        <pt x="608" y="455" on="1"/>
        <pt x="592" y="537" on="0"/>
        <pt x="566" y="559" on="0"/>
        <pt x="535" y="559" on="1"/>
        <pt x="303" y="559" on="1"/>
        <pt x="303" y="145" on="1"/>
        <pt x="303" y="78" on="0"/>
        <pt x="354" y="58" on="1"/>
        <pt x="368" y="53" on="0"/>
        <pt x="435" y="41" on="1"/>
        <pt x="435" y="0" on="1"/>
        <pt x="32" y="0" on="1"/>
        <pt x="32" y="42" on="1"/>
        <pt x="91" y="54" on="1"/>
        <pt x="146" y="65" on="0"/>
        <pt x="157" y="98" on="1"/>
        <pt x="169" y="131" on="0"/>
        <pt x="169" y="208" on="1"/>
      </contour>
    </TTGlyph>
    <TTGlyph name="G" xMin="59" yMin="-398" xMax="1204" yMax="1201">
      <contour>
        <pt x="859" y="-337" on="1"/>
        <pt x="950" y="-337" on="0"/>
        <pt x="950" y="-132" on="1"/>
        <pt x="950" y="18" on="1"/>
        <pt x="822" y="-33" on="0"/>
        <pt x="683" y="-33" on="1"/>
        <pt x="367" y="-33" on="0"/>
        <pt x="198" y="180" on="1"/>
        <pt x="60" y="354" on="0"/>
        <pt x="59" y="849" on="0"/>
        <pt x="203" y="1008" on="1"/>
        <pt x="377" y="1200" on="0"/>
        <pt x="649" y="1201" on="1"/>
        <pt x="872" y="1201" on="0"/>
        <pt x="1039" y="1093" on="1"/>
        <pt x="1067" y="1075" on="0"/>
        <pt x="1082" y="1061" on="1"/>
        <pt x="1082" y="833" on="1"/>
        <pt x="1033" y="833" on="1"/>
        <pt x="1029" y="885" on="0"/>
        <pt x="991" y="952" on="1"/>
        <pt x="889" y="1137" on="0"/>
        <pt x="655" y="1138" on="1"/>
        <pt x="467" y="1138" on="0"/>
        <pt x="337" y="976" on="1"/>
        <pt x="204" y="811" on="0"/>
        <pt x="204" y="610" on="1"/>
        <pt x="204" y="457" on="0"/>
        <pt x="268" y="313" on="1"/>
        <pt x="394" y="30" on="0"/>
        <pt x="688" y="29" on="1"/>
        <pt x="859" y="29" on="0"/>
        <pt x="952" y="129" on="1"/>
        <pt x="952" y="261" on="1"/>
        <pt x="952" y="352" on="0"/>
        <pt x="922" y="407" on="0"/>
        <pt x="875" y="417" on="1"/>
        <pt x="816" y="429" on="1"/>
        <pt x="816" y="471" on="1"/>
        <pt x="1204" y="471" on="1"/>
        <pt x="1204" y="427" on="1"/>
        <pt x="1136" y="412" on="1"/>
        <pt x="1100" y="404" on="0"/>
        <pt x="1087" y="375" on="0"/>
        <pt x="1087" y="176" on="1"/>
        <pt x="1087" y="-23" on="1"/>
        <pt x="1084" y="-317" on="0"/>
        <pt x="890" y="-381" on="1"/>
        <pt x="839" y="-398" on="0"/>
        <pt x="725" y="-398" on="1"/>
        <pt x="679" y="-398" on="0"/>
        <pt x="643" y="-344" on="0"/>
        <pt x="644" y="-323" on="1"/>
        <pt x="648" y="-262" on="0"/>
        <pt x="714" y="-262" on="1"/>
        <pt x="756" y="-262" on="0"/>
        <pt x="845" y="-336" on="0"/>
      </contour>
    </TTGlyph>
    <TTGlyph name="G.alt1" xMin="59" yMin="-33" xMax="1203" yMax="1201">
      <contour>
        <pt x="688" y="29" on="1"/>
        <pt x="858" y="29" on="0"/>
        <pt x="951" y="129" on="1"/>
        <pt x="951" y="262" on="1"/>
        <pt x="951" y="353" on="0"/>
        <pt x="921" y="407" on="0"/>
        <pt x="874" y="417" on="1"/>
        <pt x="815" y="429" on="1"/>
        <pt x="815" y="471" on="1"/>
        <pt x="1203" y="471" on="1"/>
        <pt x="1203" y="427" on="1"/>
        <pt x="1135" y="412" on="1"/>
        <pt x="1099" y="404" on="0"/>
        <pt x="1086" y="375" on="0"/>
        <pt x="1086" y="316" on="1"/>
        <pt x="1086" y="84" on="1"/>
        <pt x="882" y="-12" on="0"/>
        <pt x="769" y="-28" on="1"/>
        <pt x="729" y="-33" on="0"/>
        <pt x="683" y="-33" on="1"/>
        <pt x="367" y="-33" on="0"/>
        <pt x="198" y="180" on="1"/>
        <pt x="60" y="354" on="0"/>
        <pt x="59" y="849" on="0"/>
        <pt x="203" y="1008" on="1"/>
        <pt x="377" y="1200" on="0"/>
        <pt x="649" y="1201" on="1"/>
        <pt x="872" y="1201" on="0"/>
        <pt x="1039" y="1093" on="1"/>
        <pt x="1067" y="1075" on="0"/>
        <pt x="1082" y="1061" on="1"/>
        <pt x="1082" y="833" on="1"/>
        <pt x="1033" y="833" on="1"/>
        <pt x="1029" y="885" on="0"/>
        <pt x="991" y="952" on="1"/>
        <pt x="889" y="1137" on="0"/>
        <pt x="655" y="1138" on="1"/>
        <pt x="467" y="1138" on="0"/>
        <pt x="337" y="976" on="1"/>
        <pt x="204" y="811" on="0"/>
        <pt x="204" y="610" on="1"/>
        <pt x="204" y="457" on="0"/>
        <pt x="268" y="313" on="1"/>
        <pt x="395" y="30" on="0"/>
      </contour>
    </TTGlyph>
    <TTGlyph name="H" xMin="-20" yMin="-399" xMax="1703" yMax="1190">
      <contour>
        <pt x="507" y="-339" on="1"/>
        <pt x="598" y="-339" on="0"/>
        <pt x="598" y="-134" on="1"/>
        <pt x="598" y="1035" on="1"/>
        <pt x="598" y="1101" on="0"/>
        <pt x="589" y="1113" on="1"/>
        <pt x="580" y="1124" on="0"/>
        <pt x="549" y="1131" on="1"/>
        <pt x="481" y="1146" on="1"/>
        <pt x="266" y="1146" on="1"/>
        <pt x="172" y="1146" on="0"/>
        <pt x="132" y="1045" on="1"/>
        <pt x="114" y="1000" on="0"/>
        <pt x="114" y="955" on="1"/>
        <pt x="114" y="750" on="0"/>
        <pt x="205" y="750" on="1"/>
        <pt x="221" y="750" on="0"/>
        <pt x="256" y="780" on="1"/>
        <pt x="312" y="822" on="0"/>
        <pt x="350" y="825" on="1"/>
        <pt x="417" y="825" on="0"/>
        <pt x="421" y="764" on="1"/>
        <pt x="424" y="723" on="0"/>
        <pt x="383" y="700" on="1"/>
        <pt x="362" y="689" on="0"/>
        <pt x="339" y="689" on="1"/>
        <pt x="224" y="689" on="0"/>
        <pt x="174" y="706" on="1"/>
        <pt x="-19" y="771" on="0"/>
        <pt x="-20" y="965" on="1"/>
        <pt x="-20" y="1098" on="0"/>
        <pt x="106" y="1157" on="1"/>
        <pt x="177" y="1190" on="0"/>
        <pt x="266" y="1190" on="1"/>
        <pt x="870" y="1190" on="1"/>
        <pt x="870" y="1148" on="1"/>
        <pt x="812" y="1136" on="1"/>
        <pt x="757" y="1125" on="0"/>
        <pt x="733" y="1059" on="0"/>
        <pt x="733" y="980" on="1"/>
        <pt x="733" y="654" on="1"/>
        <pt x="1451" y="654" on="1"/>
        <pt x="1451" y="980" on="1"/>
        <pt x="1451" y="1071" on="0"/>
        <pt x="1421" y="1127" on="0"/>
        <pt x="1374" y="1136" on="1"/>
        <pt x="1315" y="1148" on="1"/>
        <pt x="1315" y="1190" on="1"/>
        <pt x="1703" y="1190" on="1"/>
        <pt x="1703" y="1146" on="1"/>
        <pt x="1635" y="1131" on="1"/>
        <pt x="1599" y="1123" on="0"/>
        <pt x="1593" y="1109" on="1"/>
        <pt x="1586" y="1094" on="0"/>
        <pt x="1586" y="1035" on="1"/>
        <pt x="1586" y="153" on="1"/>
        <pt x="1586" y="89" on="0"/>
        <pt x="1595" y="77" on="1"/>
        <pt x="1605" y="66" on="0"/>
        <pt x="1635" y="59" on="1"/>
        <pt x="1703" y="44" on="1"/>
        <pt x="1703" y="0" on="1"/>
        <pt x="1315" y="0" on="1"/>
        <pt x="1315" y="42" on="1"/>
        <pt x="1373" y="54" on="1"/>
        <pt x="1427" y="65" on="0"/>
        <pt x="1451" y="131" on="0"/>
        <pt x="1451" y="210" on="1"/>
        <pt x="1451" y="592" on="1"/>
        <pt x="733" y="592" on="1"/>
        <pt x="733" y="-75" on="1"/>
        <pt x="721" y="-244" on="0"/>
        <pt x="567" y="-399" on="0"/>
        <pt x="397" y="-399" on="1"/>
        <pt x="335" y="-399" on="0"/>
        <pt x="292" y="-356" on="0"/>
        <pt x="292" y="-324" on="1"/>
        <pt x="296" y="-264" on="0"/>
        <pt x="362" y="-264" on="1"/>
        <pt x="404" y="-264" on="0"/>
        <pt x="483" y="-337" on="0"/>
      </contour>
    </TTGlyph>
    <TTGlyph name="H.alt1" xMin="54" yMin="0" xMax="1219" yMax="1190">
      <contour>
        <pt x="1097" y="1033" on="1"/>
        <pt x="1097" y="152" on="1"/>
        <pt x="1097" y="86" on="0"/>
        <pt x="1121" y="62" on="0"/>
        <pt x="1151" y="55" on="1"/>
        <pt x="1219" y="41" on="1"/>
        <pt x="1219" y="0" on="1"/>
        <pt x="830" y="0" on="1"/>
        <pt x="830" y="39" on="1"/>
        <pt x="888" y="51" on="1"/>
        <pt x="941" y="61" on="0"/>
        <pt x="952" y="92" on="1"/>
        <pt x="962" y="123" on="0"/>
        <pt x="962" y="207" on="1"/>
        <pt x="962" y="590" on="1"/>
        <pt x="306" y="590" on="1"/>
        <pt x="306" y="210" on="1"/>
        <pt x="306" y="118" on="0"/>
        <pt x="338" y="64" on="0"/>
        <pt x="384" y="54" on="1"/>
        <pt x="442" y="42" on="1"/>
        <pt x="442" y="0" on="1"/>
        <pt x="54" y="0" on="1"/>
        <pt x="54" y="44" on="1"/>
        <pt x="122" y="59" on="1"/>
        <pt x="158" y="67" on="0"/>
        <pt x="164" y="81" on="1"/>
        <pt x="171" y="95" on="0"/>
        <pt x="171" y="153" on="1"/>
        <pt x="171" y="1035" on="1"/>
        <pt x="171" y="1100" on="0"/>
        <pt x="153" y="1124" on="0"/>
        <pt x="122" y="1131" on="1"/>
        <pt x="54" y="1146" on="1"/>
        <pt x="54" y="1190" on="1"/>
        <pt x="442" y="1190" on="1"/>
        <pt x="442" y="1148" on="1"/>
        <pt x="384" y="1136" on="1"/>
        <pt x="330" y="1125" on="0"/>
        <pt x="306" y="1061" on="0"/>
        <pt x="306" y="980" on="1"/>
        <pt x="306" y="652" on="1"/>
        <pt x="962" y="652" on="1"/>
        <pt x="962" y="978" on="1"/>
        <pt x="962" y="1071" on="0"/>
        <pt x="930" y="1125" on="0"/>
        <pt x="883" y="1134" on="1"/>
        <pt x="825" y="1146" on="1"/>
        <pt x="825" y="1190" on="1"/>
        <pt x="1214" y="1190" on="1"/>
        <pt x="1214" y="1144" on="1"/>
        <pt x="1146" y="1130" on="1"/>
        <pt x="1111" y="1123" on="0"/>
        <pt x="1097" y="1093" on="0"/>
      </contour>
    </TTGlyph>
    <TTGlyph name="I" xMin="29" yMin="0" xMax="635" yMax="1286">
      <contour>
        <pt x="130" y="1136" on="1"/>
        <pt x="30" y="1136" on="0"/>
        <pt x="29" y="1206" on="1"/>
        <pt x="29" y="1259" on="0"/>
        <pt x="81" y="1279" on="1"/>
        <pt x="99" y="1285" on="0"/>
        <pt x="116" y="1286" on="1"/>
        <pt x="169" y="1286" on="0"/>
        <pt x="232" y="1210" on="0"/>
        <pt x="257" y="1190" on="0"/>
        <pt x="282" y="1190" on="1"/>
        <pt x="635" y="1190" on="1"/>
        <pt x="635" y="1146" on="1"/>
        <pt x="567" y="1131" on="1"/>
        <pt x="531" y="1123" on="0"/>
        <pt x="518" y="1094" on="0"/>
        <pt x="518" y="1035" on="1"/>
        <pt x="518" y="153" on="1"/>
        <pt x="518" y="89" on="0"/>
        <pt x="527" y="77" on="1"/>
        <pt x="536" y="66" on="0"/>
        <pt x="567" y="59" on="1"/>
        <pt x="635" y="44" on="1"/>
        <pt x="635" y="0" on="1"/>
        <pt x="247" y="0" on="1"/>
        <pt x="247" y="42" on="1"/>
        <pt x="305" y="54" on="1"/>
        <pt x="359" y="65" on="0"/>
        <pt x="383" y="131" on="0"/>
        <pt x="383" y="210" on="1"/>
        <pt x="383" y="1008" on="1"/>
        <pt x="381" y="1113" on="0"/>
        <pt x="332" y="1129" on="1"/>
        <pt x="317" y="1134" on="0"/>
        <pt x="293" y="1134" on="1"/>
      </contour>
    </TTGlyph>
    <TTGlyph name="I.alt1" xMin="34" yMin="0" xMax="422" yMax="1190">
      <contour>
        <pt x="170" y="210" on="1"/>
        <pt x="170" y="980" on="1"/>
        <pt x="170" y="1071" on="0"/>
        <pt x="155" y="1099" on="1"/>
        <pt x="140" y="1126" on="0"/>
        <pt x="93" y="1136" on="1"/>
        <pt x="34" y="1148" on="1"/>
        <pt x="34" y="1190" on="1"/>
        <pt x="422" y="1190" on="1"/>
        <pt x="422" y="1146" on="1"/>
        <pt x="354" y="1131" on="1"/>
        <pt x="318" y="1123" on="0"/>
        <pt x="311" y="1109" on="1"/>
        <pt x="305" y="1095" on="0"/>
        <pt x="305" y="1036" on="1"/>
        <pt x="305" y="153" on="1"/>
        <pt x="305" y="90" on="0"/>
        <pt x="314" y="77" on="1"/>
        <pt x="323" y="66" on="0"/>
        <pt x="354" y="59" on="1"/>
        <pt x="422" y="44" on="1"/>
        <pt x="422" y="0" on="1"/>
        <pt x="34" y="0" on="1"/>
        <pt x="34" y="42" on="1"/>
        <pt x="92" y="54" on="1"/>
        <pt x="146" y="65" on="0"/>
        <pt x="170" y="131" on="0"/>
      </contour>
    </TTGlyph>
    <TTGlyph name="Iacute" xMin="245" yMin="0" xMax="633" yMax="1571">
      <component glyphName="acute" x="64" y="337" flags="0x4"/>
      <component glyphName="I.alt1" x="211" y="0" flags="0x4"/>
    </TTGlyph>
    <TTGlyph name="Icircumflex" xMin="199" yMin="0" xMax="688" yMax="1592">
      <component glyphName="circumflex" x="137" y="337" flags="0x4"/>
      <component glyphName="I.alt1" x="211" y="0" flags="0x4"/>
    </TTGlyph>
    <TTGlyph name="Idieresis" xMin="2" yMin="0" xMax="457" yMax="1525">
      <component glyphName="I.alt1" x="0" y="0" flags="0x4"/>
      <component glyphName="dieresis" x="-197" y="386" flags="0x4"/>
    </TTGlyph>
    <TTGlyph name="Igrave" xMin="244" yMin="0" xMax="632" yMax="1575">
      <component glyphName="grave" x="7" y="339" flags="0x4"/>
      <component glyphName="I.alt1" x="210" y="0" flags="0x4"/>
    </TTGlyph>
    <TTGlyph name="J" xMin="29" yMin="-401" xMax="673" yMax="1190">
      <contour>
        <pt x="331" y="-341" on="1"/>
        <pt x="422" y="-341" on="0"/>
        <pt x="422" y="-135" on="1"/>
        <pt x="422" y="874" on="1"/>
        <pt x="422" y="1010" on="0"/>
        <pt x="380" y="1133" on="0"/>
        <pt x="313" y="1134" on="1"/>
        <pt x="283" y="1134" on="0"/>
        <pt x="234" y="1095" on="1"/>
        <pt x="167" y="1041" on="0"/>
        <pt x="69" y="1040" on="0"/>
        <pt x="29" y="1093" on="0"/>
        <pt x="29" y="1118" on="1"/>
        <pt x="29" y="1189" on="0"/>
        <pt x="130" y="1190" on="1"/>
        <pt x="673" y="1190" on="1"/>
        <pt x="673" y="1146" on="1"/>
        <pt x="605" y="1131" on="1"/>
        <pt x="569" y="1123" on="0"/>
        <pt x="556" y="1094" on="0"/>
        <pt x="556" y="1035" on="1"/>
        <pt x="556" y="-26" on="1"/>
        <pt x="556" y="-321" on="0"/>
        <pt x="362" y="-385" on="1"/>
        <pt x="311" y="-401" on="0"/>
        <pt x="197" y="-401" on="1"/>
        <pt x="151" y="-401" on="0"/>
        <pt x="114" y="-347" on="0"/>
        <pt x="116" y="-326" on="1"/>
        <pt x="120" y="-266" on="0"/>
        <pt x="186" y="-266" on="1"/>
        <pt x="228" y="-266" on="0"/>
        <pt x="317" y="-339" on="0"/>
      </contour>
    </TTGlyph>
    <TTGlyph name="J.alt1" xMin="-117" yMin="-401" xMax="441" yMax="1188">
      <contour>
        <pt x="189" y="-135" on="1"/>
        <pt x="189" y="978" on="1"/>
        <pt x="189" y="1069" on="0"/>
        <pt x="159" y="1124" on="0"/>
        <pt x="112" y="1134" on="1"/>
        <pt x="53" y="1146" on="1"/>
        <pt x="53" y="1188" on="1"/>
        <pt x="441" y="1188" on="1"/>
        <pt x="441" y="1144" on="1"/>
        <pt x="373" y="1129" on="1"/>
        <pt x="337" y="1121" on="0"/>
        <pt x="324" y="1092" on="0"/>
        <pt x="324" y="1033" on="1"/>
        <pt x="324" y="-26" on="1"/>
        <pt x="324" y="-321" on="0"/>
        <pt x="130" y="-385" on="1"/>
        <pt x="79" y="-401" on="0"/>
        <pt x="-34" y="-401" on="1"/>
        <pt x="-80" y="-401" on="0"/>
        <pt x="-117" y="-347" on="0"/>
        <pt x="-116" y="-326" on="1"/>
        <pt x="-111" y="-266" on="0"/>
        <pt x="-46" y="-266" on="1"/>
        <pt x="-3" y="-266" on="0"/>
        <pt x="85" y="-340" on="0"/>
        <pt x="99" y="-341" on="1"/>
        <pt x="189" y="-339" on="0"/>
      </contour>
    </TTGlyph>
    <TTGlyph name="K" xMin="29" yMin="0" xMax="1385" yMax="1190">
      <contour>
        <pt x="29" y="1118" on="1"/>
        <pt x="29" y="1189" on="0"/>
        <pt x="130" y="1190" on="1"/>
        <pt x="693" y="1190" on="1"/>
        <pt x="693" y="1148" on="1"/>
        <pt x="634" y="1136" on="1"/>
        <pt x="579" y="1125" on="0"/>
        <pt x="556" y="1059" on="0"/>
        <pt x="556" y="980" on="1"/>
        <pt x="556" y="618" on="1"/>
        <pt x="1071" y="1074" on="1"/>
        <pt x="1104" y="1103" on="0"/>
        <pt x="1072" y="1135" on="0"/>
        <pt x="1046" y="1139" on="1"/>
        <pt x="986" y="1148" on="1"/>
        <pt x="986" y="1190" on="1"/>
        <pt x="1374" y="1190" on="1"/>
        <pt x="1374" y="1149" on="1"/>
        <pt x="1328" y="1141" on="1"/>
        <pt x="1251" y="1128" on="0"/>
        <pt x="1183" y="1070" on="1"/>
        <pt x="716" y="657" on="1"/>
        <pt x="1258" y="109" on="1"/>
        <pt x="1316" y="50" on="0"/>
        <pt x="1385" y="41" on="1"/>
        <pt x="1385" y="0" on="1"/>
        <pt x="957" y="0" on="1"/>
        <pt x="957" y="42" on="1"/>
        <pt x="1025" y="57" on="1"/>
        <pt x="1067" y="69" on="0"/>
        <pt x="1069" y="78" on="1"/>
        <pt x="1068" y="91" on="0"/>
        <pt x="1033" y="127" on="1"/>
        <pt x="613" y="567" on="1"/>
        <pt x="556" y="517" on="1"/>
        <pt x="556" y="209" on="1"/>
        <pt x="556" y="119" on="0"/>
        <pt x="588" y="65" on="0"/>
        <pt x="635" y="54" on="1"/>
        <pt x="693" y="41" on="1"/>
        <pt x="693" y="0" on="1"/>
        <pt x="305" y="0" on="1"/>
        <pt x="305" y="44" on="1"/>
        <pt x="373" y="59" on="1"/>
        <pt x="409" y="67" on="0"/>
        <pt x="422" y="95" on="0"/>
        <pt x="422" y="153" on="1"/>
        <pt x="422" y="874" on="1"/>
        <pt x="422" y="1010" on="0"/>
        <pt x="380" y="1133" on="0"/>
        <pt x="313" y="1134" on="1"/>
        <pt x="283" y="1134" on="0"/>
        <pt x="234" y="1095" on="1"/>
        <pt x="167" y="1041" on="0"/>
        <pt x="69" y="1040" on="0"/>
        <pt x="29" y="1093" on="0"/>
      </contour>
    </TTGlyph>
    <TTGlyph name="K.alt1" xMin="53" yMin="0" xMax="1134" yMax="1190">
      <contour>
        <pt x="441" y="0" on="1"/>
        <pt x="53" y="0" on="1"/>
        <pt x="53" y="44" on="1"/>
        <pt x="121" y="59" on="1"/>
        <pt x="157" y="67" on="0"/>
        <pt x="170" y="95" on="0"/>
        <pt x="170" y="153" on="1"/>
        <pt x="170" y="1035" on="1"/>
        <pt x="170" y="1100" on="0"/>
        <pt x="161" y="1112" on="1"/>
        <pt x="152" y="1123" on="0"/>
        <pt x="121" y="1130" on="1"/>
        <pt x="53" y="1145" on="1"/>
        <pt x="53" y="1190" on="1"/>
        <pt x="441" y="1190" on="1"/>
        <pt x="441" y="1148" on="1"/>
        <pt x="383" y="1136" on="1"/>
        <pt x="328" y="1125" on="0"/>
        <pt x="305" y="1059" on="0"/>
        <pt x="305" y="980" on="1"/>
        <pt x="305" y="618" on="1"/>
        <pt x="820" y="1074" on="1"/>
        <pt x="853" y="1103" on="0"/>
        <pt x="821" y="1135" on="0"/>
        <pt x="795" y="1139" on="1"/>
        <pt x="735" y="1148" on="1"/>
        <pt x="735" y="1190" on="1"/>
        <pt x="1123" y="1190" on="1"/>
        <pt x="1123" y="1149" on="1"/>
        <pt x="1077" y="1141" on="1"/>
        <pt x="1000" y="1128" on="0"/>
        <pt x="932" y="1070" on="1"/>
        <pt x="465" y="657" on="1"/>
        <pt x="1007" y="109" on="1"/>
        <pt x="1065" y="50" on="0"/>
        <pt x="1134" y="41" on="1"/>
        <pt x="1134" y="0" on="1"/>
        <pt x="706" y="0" on="1"/>
        <pt x="706" y="42" on="1"/>
        <pt x="774" y="57" on="1"/>
        <pt x="816" y="69" on="0"/>
        <pt x="818" y="78" on="1"/>
        <pt x="817" y="91" on="0"/>
        <pt x="782" y="127" on="1"/>
        <pt x="362" y="567" on="1"/>
        <pt x="305" y="517" on="1"/>
        <pt x="305" y="210" on="1"/>
        <pt x="305" y="119" on="0"/>
        <pt x="336" y="65" on="0"/>
        <pt x="383" y="54" on="1"/>
        <pt x="441" y="41" on="1"/>
      </contour>
    </TTGlyph>
    <TTGlyph name="L" xMin="33" yMin="0" xMax="831" yMax="1190">
      <contour>
        <pt x="170" y="208" on="1"/>
        <pt x="170" y="979" on="1"/>
        <pt x="170" y="1070" on="0"/>
        <pt x="138" y="1124" on="0"/>
        <pt x="91" y="1134" on="1"/>
        <pt x="33" y="1146" on="1"/>
        <pt x="33" y="1190" on="1"/>
        <pt x="422" y="1190" on="1"/>
        <pt x="422" y="1145" on="1"/>
        <pt x="354" y="1130" on="1"/>
        <pt x="318" y="1122" on="0"/>
        <pt x="312" y="1107" on="1"/>
        <pt x="305" y="1092" on="0"/>
        <pt x="305" y="1033" on="1"/>
        <pt x="305" y="62" on="1"/>
        <pt x="675" y="62" on="1"/>
        <pt x="748" y="62" on="0"/>
        <pt x="772" y="174" on="1"/>
        <pt x="779" y="207" on="0"/>
        <pt x="779" y="233" on="1"/>
        <pt x="831" y="233" on="1"/>
        <pt x="831" y="0" on="1"/>
        <pt x="38" y="0" on="1"/>
        <pt x="38" y="40" on="1"/>
        <pt x="96" y="52" on="1"/>
        <pt x="149" y="61" on="0"/>
        <pt x="160" y="92" on="1"/>
        <pt x="170" y="123" on="0"/>
      </contour>
    </TTGlyph>
    <TTGlyph name="L.alt1" xMin="33" yMin="0" xMax="831" yMax="1190">
      <contour>
        <pt x="170" y="208" on="1"/>
        <pt x="170" y="979" on="1"/>
        <pt x="170" y="1070" on="0"/>
        <pt x="138" y="1124" on="0"/>
        <pt x="91" y="1134" on="1"/>
        <pt x="33" y="1146" on="1"/>
        <pt x="33" y="1190" on="1"/>
        <pt x="422" y="1190" on="1"/>
        <pt x="422" y="1145" on="1"/>
        <pt x="354" y="1130" on="1"/>
        <pt x="318" y="1122" on="0"/>
        <pt x="312" y="1107" on="1"/>
        <pt x="305" y="1092" on="0"/>
        <pt x="305" y="1033" on="1"/>
        <pt x="305" y="62" on="1"/>
        <pt x="675" y="62" on="1"/>
        <pt x="748" y="62" on="0"/>
        <pt x="772" y="174" on="1"/>
        <pt x="779" y="207" on="0"/>
        <pt x="779" y="233" on="1"/>
        <pt x="831" y="233" on="1"/>
        <pt x="831" y="0" on="1"/>
        <pt x="38" y="0" on="1"/>
        <pt x="38" y="40" on="1"/>
        <pt x="96" y="52" on="1"/>
        <pt x="149" y="61" on="0"/>
        <pt x="160" y="92" on="1"/>
        <pt x="170" y="123" on="0"/>
      </contour>
    </TTGlyph>
    <TTGlyph name="M" xMin="51" yMin="-29" xMax="1535" yMax="1190">
      <contour>
        <pt x="51" y="1120" on="1"/>
        <pt x="51" y="1190" on="0"/>
        <pt x="152" y="1190" on="1"/>
        <pt x="447" y="1190" on="1"/>
        <pt x="446" y="1188" on="1"/>
        <pt x="473" y="1188" on="1"/>
        <pt x="541" y="1125" on="1"/>
        <pt x="845" y="226" on="1"/>
        <pt x="1242" y="1190" on="1"/>
        <pt x="1530" y="1190" on="1"/>
        <pt x="1530" y="1144" on="1"/>
        <pt x="1455" y="1129" on="0"/>
        <pt x="1413" y="1075" on="0"/>
        <pt x="1413" y="1034" on="1"/>
        <pt x="1413" y="153" on="1"/>
        <pt x="1413" y="87" on="0"/>
        <pt x="1436" y="62" on="0"/>
        <pt x="1467" y="56" on="1"/>
        <pt x="1535" y="42" on="1"/>
        <pt x="1535" y="0" on="1"/>
        <pt x="1146" y="0" on="1"/>
        <pt x="1146" y="41" on="1"/>
        <pt x="1204" y="52" on="1"/>
        <pt x="1257" y="62" on="0"/>
        <pt x="1278" y="124" on="0"/>
        <pt x="1278" y="208" on="1"/>
        <pt x="1278" y="1056" on="1"/>
        <pt x="838" y="-29" on="1"/>
        <pt x="802" y="-29" on="1"/>
        <pt x="432" y="1026" on="1"/>
        <pt x="297" y="244" on="1"/>
        <pt x="278" y="132" on="1"/>
        <pt x="273" y="63" on="0"/>
        <pt x="328" y="52" on="1"/>
        <pt x="453" y="41" on="1"/>
        <pt x="453" y="0" on="1"/>
        <pt x="67" y="0" on="1"/>
        <pt x="67" y="41" on="1"/>
        <pt x="104" y="51" on="1"/>
        <pt x="148" y="62" on="0"/>
        <pt x="178" y="109" on="0"/>
        <pt x="187" y="152" on="1"/>
        <pt x="250" y="465" on="0"/>
        <pt x="295" y="725" on="1"/>
        <pt x="344" y="1014" on="1"/>
        <pt x="351" y="1070" on="0"/>
        <pt x="350" y="1079" on="1"/>
        <pt x="344" y="1116" on="0"/>
        <pt x="279" y="1117" on="0"/>
        <pt x="240" y="1084" on="1"/>
        <pt x="189" y="1042" on="0"/>
        <pt x="89" y="1042" on="0"/>
        <pt x="51" y="1095" on="0"/>
      </contour>
    </TTGlyph>
    <TTGlyph name="M.alt1" xMin="27" yMin="-31" xMax="1353" yMax="1190">
      <contour>
        <pt x="1353" y="41" on="1"/>
        <pt x="1353" y="0" on="1"/>
        <pt x="964" y="0" on="1"/>
        <pt x="964" y="39" on="1"/>
        <pt x="1022" y="51" on="1"/>
        <pt x="1075" y="62" on="0"/>
        <pt x="1085" y="93" on="1"/>
        <pt x="1096" y="124" on="0"/>
        <pt x="1096" y="209" on="1"/>
        <pt x="1096" y="993" on="1"/>
        <pt x="1052" y="816" on="0"/>
        <pt x="766" y="186" on="1"/>
        <pt x="671" y="-23" on="0"/>
        <pt x="672" y="-31" on="1"/>
        <pt x="249" y="1061" on="1"/>
        <pt x="248" y="152" on="1"/>
        <pt x="248" y="86" on="0"/>
        <pt x="272" y="62" on="0"/>
        <pt x="302" y="55" on="1"/>
        <pt x="370" y="41" on="1"/>
        <pt x="370" y="0" on="1"/>
        <pt x="31" y="0" on="1"/>
        <pt x="31" y="39" on="1"/>
        <pt x="89" y="51" on="1"/>
        <pt x="142" y="62" on="0"/>
        <pt x="152" y="92" on="1"/>
        <pt x="163" y="122" on="0"/>
        <pt x="163" y="207" on="1"/>
        <pt x="163" y="978" on="1"/>
        <pt x="163" y="1070" on="0"/>
        <pt x="131" y="1124" on="0"/>
        <pt x="85" y="1134" on="1"/>
        <pt x="27" y="1146" on="1"/>
        <pt x="27" y="1190" on="1"/>
        <pt x="333" y="1190" on="1"/>
        <pt x="694" y="230" on="1"/>
        <pt x="1081" y="1190" on="1"/>
        <pt x="1348" y="1190" on="1"/>
        <pt x="1348" y="1144" on="1"/>
        <pt x="1280" y="1130" on="1"/>
        <pt x="1245" y="1123" on="0"/>
        <pt x="1231" y="1093" on="0"/>
        <pt x="1231" y="1033" on="1"/>
        <pt x="1231" y="153" on="1"/>
        <pt x="1231" y="86" on="0"/>
        <pt x="1255" y="62" on="0"/>
        <pt x="1285" y="55" on="1"/>
      </contour>
    </TTGlyph>
    <TTGlyph name="N" xMin="49" yMin="-29" xMax="1245" yMax="1206">
      <contour>
        <pt x="49" y="1148" on="1"/>
        <pt x="49" y="1206" on="0"/>
        <pt x="122" y="1206" on="1"/>
        <pt x="317" y="1206" on="0"/>
        <pt x="399" y="1110" on="1"/>
        <pt x="1043" y="231" on="1"/>
        <pt x="1043" y="979" on="1"/>
        <pt x="1043" y="1070" on="0"/>
        <pt x="1011" y="1124" on="0"/>
        <pt x="964" y="1134" on="1"/>
        <pt x="906" y="1146" on="1"/>
        <pt x="906" y="1190" on="1"/>
        <pt x="1245" y="1190" on="1"/>
        <pt x="1245" y="1144" on="1"/>
        <pt x="1177" y="1130" on="1"/>
        <pt x="1142" y="1123" on="0"/>
        <pt x="1128" y="1093" on="0"/>
        <pt x="1128" y="1033" on="1"/>
        <pt x="1128" y="-29" on="1"/>
        <pt x="1087" y="-29" on="1"/>
        <pt x="381" y="923" on="1"/>
        <pt x="380" y="152" on="1"/>
        <pt x="380" y="86" on="0"/>
        <pt x="403" y="61" on="0"/>
        <pt x="434" y="55" on="1"/>
        <pt x="502" y="41" on="1"/>
        <pt x="502" y="0" on="1"/>
        <pt x="165" y="0" on="1"/>
        <pt x="165" y="39" on="1"/>
        <pt x="223" y="51" on="1"/>
        <pt x="276" y="62" on="0"/>
        <pt x="297" y="122" on="0"/>
        <pt x="297" y="207" on="1"/>
        <pt x="297" y="905" on="1"/>
        <pt x="296" y="1113" on="0"/>
        <pt x="240" y="1115" on="1"/>
        <pt x="214" y="1115" on="0"/>
        <pt x="126" y="1073" on="0"/>
        <pt x="119" y="1073" on="1"/>
        <pt x="71" y="1073" on="0"/>
        <pt x="54" y="1117" on="1"/>
        <pt x="49" y="1132" on="0"/>
      </contour>
    </TTGlyph>
    <TTGlyph name="N.alt1" xMin="16" yMin="-29" xMax="1300" yMax="1190">
      <contour>
        <pt x="1183" y="1033" on="1"/>
        <pt x="1183" y="-29" on="1"/>
        <pt x="1143" y="-29" on="1"/>
        <pt x="240" y="1038" on="1"/>
        <pt x="238" y="209" on="1"/>
        <pt x="238" y="118" on="0"/>
        <pt x="262" y="62" on="0"/>
        <pt x="311" y="52" on="1"/>
        <pt x="370" y="41" on="1"/>
        <pt x="370" y="0" on="1"/>
        <pt x="21" y="0" on="1"/>
        <pt x="21" y="39" on="1"/>
        <pt x="79" y="51" on="1"/>
        <pt x="132" y="62" on="0"/>
        <pt x="142" y="92" on="1"/>
        <pt x="153" y="122" on="0"/>
        <pt x="153" y="206" on="1"/>
        <pt x="153" y="976" on="1"/>
        <pt x="153" y="1069" on="0"/>
        <pt x="121" y="1123" on="0"/>
        <pt x="74" y="1132" on="1"/>
        <pt x="16" y="1144" on="1"/>
        <pt x="16" y="1188" on="1"/>
        <pt x="272" y="1188" on="1"/>
        <pt x="331" y="1188" on="0"/>
        <pt x="928" y="445" on="1"/>
        <pt x="1099" y="231" on="1"/>
        <pt x="1099" y="979" on="1"/>
        <pt x="1099" y="1070" on="0"/>
        <pt x="1065" y="1124" on="0"/>
        <pt x="1019" y="1134" on="1"/>
        <pt x="961" y="1146" on="1"/>
        <pt x="961" y="1190" on="1"/>
        <pt x="1300" y="1190" on="1"/>
        <pt x="1300" y="1144" on="1"/>
        <pt x="1232" y="1130" on="1"/>
        <pt x="1197" y="1123" on="0"/>
        <pt x="1183" y="1093" on="0"/>
      </contour>
    </TTGlyph>
    <TTGlyph name="Ntilde" xMin="16" yMin="-29" xMax="1300" yMax="1466">
      <component glyphName="N.alt1" x="0" y="0" flags="0x204"/>
      <component glyphName="tilde" x="306" y="322" flags="0x4"/>
    </TTGlyph>
    <TTGlyph name="O" xMin="59" yMin="-28" xMax="1157" yMax="1193">
      <contour>
        <pt x="59" y="566" on="1"/>
        <pt x="59" y="830" on="0"/>
        <pt x="352" y="1193" on="0"/>
        <pt x="592" y="1193" on="1"/>
        <pt x="849" y="1193" on="0"/>
        <pt x="1156" y="854" on="0"/>
        <pt x="1157" y="585" on="1"/>
        <pt x="1157" y="346" on="0"/>
        <pt x="874" y="-28" on="0"/>
        <pt x="606" y="-28" on="1"/>
        <pt x="361" y="-28" on="0"/>
        <pt x="59" y="309" on="0"/>
      </contour>
      <contour>
        <pt x="209" y="605" on="1"/>
        <pt x="209" y="318" on="0"/>
        <pt x="447" y="47" on="0"/>
        <pt x="618" y="46" on="1"/>
        <pt x="820" y="46" on="0"/>
        <pt x="1006" y="347" on="0"/>
        <pt x="1006" y="567" on="1"/>
        <pt x="1006" y="850" on="0"/>
        <pt x="762" y="1122" on="0"/>
        <pt x="581" y="1123" on="1"/>
        <pt x="580" y="1123" on="1"/>
        <pt x="412" y="1123" on="0"/>
        <pt x="209" y="835" on="0"/>
      </contour>
    </TTGlyph>
    <TTGlyph name="O.alt1" xMin="59" yMin="-28" xMax="1157" yMax="1193">
      <contour>
        <pt x="59" y="566" on="1"/>
        <pt x="59" y="830" on="0"/>
        <pt x="352" y="1193" on="0"/>
        <pt x="592" y="1193" on="1"/>
        <pt x="849" y="1193" on="0"/>
        <pt x="1156" y="854" on="0"/>
        <pt x="1157" y="585" on="1"/>
        <pt x="1157" y="346" on="0"/>
        <pt x="874" y="-28" on="0"/>
        <pt x="606" y="-28" on="1"/>
        <pt x="361" y="-28" on="0"/>
        <pt x="59" y="309" on="0"/>
      </contour>
      <contour>
        <pt x="209" y="605" on="1"/>
        <pt x="209" y="318" on="0"/>
        <pt x="447" y="47" on="0"/>
        <pt x="618" y="46" on="1"/>
        <pt x="820" y="46" on="0"/>
        <pt x="1006" y="347" on="0"/>
        <pt x="1006" y="567" on="1"/>
        <pt x="1006" y="850" on="0"/>
        <pt x="762" y="1122" on="0"/>
        <pt x="581" y="1123" on="1"/>
        <pt x="580" y="1123" on="1"/>
        <pt x="412" y="1123" on="0"/>
        <pt x="209" y="835" on="0"/>
      </contour>
    </TTGlyph>
    <TTGlyph name="Oacute" xMin="59" yMin="-28" xMax="1157" yMax="1577">
      <component glyphName="O" x="0" y="0" flags="0x204"/>
      <component glyphName="acute" x="245" y="343" flags="0x4"/>
    </TTGlyph>
    <TTGlyph name="Ocircumflex" xMin="59" yMin="-28" xMax="1157" yMax="1595">
      <component glyphName="O" x="0" y="0" flags="0x204"/>
      <component glyphName="circumflex" x="301" y="340" flags="0x4"/>
    </TTGlyph>
    <TTGlyph name="Odieresis" xMin="59" yMin="-28" xMax="1157" yMax="1525">
      <component glyphName="O" x="0" y="0" flags="0x204"/>
      <component glyphName="dieresis" x="181" y="386" flags="0x4"/>
    </TTGlyph>
    <TTGlyph name="Ograve" xMin="59" yMin="-28" xMax="1157" yMax="1576">
      <component glyphName="O" x="0" y="0" flags="0x204"/>
      <component glyphName="grave" x="216" y="340" flags="0x4"/>
    </TTGlyph>
    <TTGlyph name="Oslash" xMin="68" yMin="-75" xMax="1166" yMax="1198">
      <contour>
        <pt x="910" y="1198" on="1"/>
        <pt x="1017" y="1198" on="1"/>
        <pt x="952" y="1082" on="1"/>
        <pt x="979" y="1060" on="0"/>
        <pt x="1003" y="1034" on="1"/>
        <pt x="1165" y="857" on="0"/>
        <pt x="1166" y="585" on="1"/>
        <pt x="1166" y="358" on="0"/>
        <pt x="1044" y="186" on="1"/>
        <pt x="893" y="-28" on="0"/>
        <pt x="615" y="-28" on="1"/>
        <pt x="472" y="-28" on="0"/>
        <pt x="364" y="27" on="1"/>
        <pt x="307" y="-75" on="1"/>
        <pt x="199" y="-75" on="1"/>
        <pt x="284" y="78" on="1"/>
        <pt x="253" y="103" on="0"/>
        <pt x="226" y="134" on="1"/>
        <pt x="68" y="311" on="0"/>
        <pt x="68" y="822" on="0"/>
        <pt x="194" y="990" on="1"/>
        <pt x="346" y="1193" on="0"/>
        <pt x="601" y="1193" on="1"/>
        <pt x="758" y="1193" on="0"/>
        <pt x="874" y="1133" on="1"/>
      </contour>
      <contour>
        <pt x="218" y="605" on="1"/>
        <pt x="218" y="327" on="0"/>
        <pt x="341" y="179" on="1"/>
        <pt x="827" y="1049" on="1"/>
        <pt x="729" y="1122" on="0"/>
        <pt x="590" y="1122" on="1"/>
        <pt x="421" y="1123" on="0"/>
        <pt x="218" y="835" on="0"/>
      </contour>
      <contour>
        <pt x="627" y="46" on="1"/>
        <pt x="829" y="46" on="0"/>
        <pt x="932" y="212" on="1"/>
        <pt x="1015" y="347" on="0"/>
        <pt x="1015" y="567" on="1"/>
        <pt x="1015" y="834" on="0"/>
        <pt x="896" y="981" on="1"/>
        <pt x="412" y="113" on="1"/>
        <pt x="504" y="47" on="0"/>
      </contour>
    </TTGlyph>
    <TTGlyph name="Otilde" xMin="59" yMin="-28" xMax="1157" yMax="1467">
      <component glyphName="O" x="0" y="0" flags="0x204"/>
      <component glyphName="tilde" x="226" y="323" flags="0x4"/>
    </TTGlyph>
    <TTGlyph name="P" xMin="29" yMin="0" xMax="1111" yMax="1190">
      <contour>
        <pt x="29" y="1118" on="1"/>
        <pt x="29" y="1189" on="0"/>
        <pt x="130" y="1190" on="1"/>
        <pt x="784" y="1190" on="1"/>
        <pt x="919" y="1190" on="0"/>
        <pt x="1111" y="1044" on="0"/>
        <pt x="1110" y="893" on="1"/>
        <pt x="1108" y="570" on="0"/>
        <pt x="771" y="570" on="1"/>
        <pt x="628" y="574" on="0"/>
        <pt x="624" y="642" on="1"/>
        <pt x="627" y="718" on="0"/>
        <pt x="709" y="719" on="1"/>
        <pt x="752" y="719" on="0"/>
        <pt x="800" y="651" on="0"/>
        <pt x="807" y="645" on="1"/>
        <pt x="822" y="634" on="0"/>
        <pt x="843" y="634" on="1"/>
        <pt x="965" y="634" on="0"/>
        <pt x="965" y="877" on="1"/>
        <pt x="965" y="1010" on="0"/>
        <pt x="873" y="1082" on="1"/>
        <pt x="815" y="1127" on="0"/>
        <pt x="748" y="1127" on="1"/>
        <pt x="556" y="1127" on="1"/>
        <pt x="556" y="151" on="1"/>
        <pt x="556" y="86" on="0"/>
        <pt x="578" y="61" on="0"/>
        <pt x="610" y="55" on="1"/>
        <pt x="678" y="41" on="1"/>
        <pt x="678" y="0" on="1"/>
        <pt x="289" y="0" on="1"/>
        <pt x="289" y="39" on="1"/>
        <pt x="347" y="51" on="1"/>
        <pt x="400" y="62" on="0"/>
        <pt x="421" y="122" on="0"/>
        <pt x="421" y="207" on="1"/>
        <pt x="421" y="955" on="1"/>
        <pt x="415" y="1092" on="0"/>
        <pt x="358" y="1123" on="1"/>
        <pt x="338" y="1133" on="0"/>
        <pt x="283" y="1133" on="0"/>
        <pt x="234" y="1094" on="1"/>
        <pt x="168" y="1041" on="0"/>
        <pt x="69" y="1040" on="0"/>
        <pt x="29" y="1093" on="0"/>
      </contour>
    </TTGlyph>
    <TTGlyph name="P.alt1" xMin="36" yMin="0" xMax="861" yMax="1190">
      <contour>
        <pt x="861" y="877" on="1"/>
        <pt x="861" y="548" on="0"/>
        <pt x="507" y="548" on="1"/>
        <pt x="308" y="548" on="1"/>
        <pt x="308" y="152" on="1"/>
        <pt x="308" y="86" on="0"/>
        <pt x="331" y="61" on="0"/>
        <pt x="362" y="55" on="1"/>
        <pt x="430" y="41" on="1"/>
        <pt x="430" y="0" on="1"/>
        <pt x="41" y="0" on="1"/>
        <pt x="41" y="39" on="1"/>
        <pt x="99" y="51" on="1"/>
        <pt x="152" y="62" on="0"/>
        <pt x="173" y="122" on="0"/>
        <pt x="173" y="207" on="1"/>
        <pt x="173" y="979" on="1"/>
        <pt x="173" y="1069" on="0"/>
        <pt x="141" y="1124" on="0"/>
        <pt x="93" y="1134" on="1"/>
        <pt x="36" y="1146" on="1"/>
        <pt x="36" y="1190" on="1"/>
        <pt x="535" y="1190" on="1"/>
        <pt x="642" y="1190" on="0"/>
        <pt x="730" y="1134" on="1"/>
        <pt x="860" y="1049" on="0"/>
      </contour>
      <contour>
        <pt x="308" y="1128" on="1"/>
        <pt x="308" y="610" on="1"/>
        <pt x="473" y="610" on="1"/>
        <pt x="653" y="610" on="0"/>
        <pt x="701" y="770" on="1"/>
        <pt x="716" y="819" on="0"/>
        <pt x="716" y="877" on="1"/>
        <pt x="716" y="1009" on="0"/>
        <pt x="625" y="1082" on="1"/>
        <pt x="566" y="1128" on="0"/>
        <pt x="499" y="1128" on="1"/>
      </contour>
    </TTGlyph>
    <TTGlyph name="Q" xMin="59" yMin="-453" xMax="2315" yMax="1193">
      <contour>
        <pt x="481" y="-15" on="1"/>
        <pt x="303" y="21" on="0"/>
        <pt x="59" y="335" on="0"/>
        <pt x="59" y="826" on="0"/>
        <pt x="342" y="1192" on="0"/>
        <pt x="594" y="1193" on="1"/>
        <pt x="848" y="1193" on="0"/>
        <pt x="1156" y="857" on="0"/>
        <pt x="1157" y="590" on="1"/>
        <pt x="1157" y="588" on="1"/>
        <pt x="1157" y="341" on="0"/>
        <pt x="925" y="48" on="0"/>
        <pt x="802" y="7" on="1"/>
        <pt x="1170" y="-182" on="0"/>
        <pt x="1755" y="-355" on="0"/>
        <pt x="2095" y="-355" on="0"/>
        <pt x="2251" y="-319" on="0"/>
        <pt x="2315" y="-298" on="1"/>
        <pt x="2315" y="-346" on="1"/>
        <pt x="2272" y="-394" on="0"/>
        <pt x="2028" y="-452" on="0"/>
        <pt x="1866" y="-453" on="1"/>
        <pt x="1386" y="-453" on="0"/>
      </contour>
      <contour>
        <pt x="209" y="605" on="1"/>
        <pt x="209" y="315" on="0"/>
        <pt x="449" y="47" on="0"/>
        <pt x="619" y="46" on="1"/>
        <pt x="818" y="46" on="0"/>
        <pt x="1005" y="343" on="0"/>
        <pt x="1006" y="567" on="1"/>
        <pt x="1006" y="848" on="0"/>
        <pt x="757" y="1122" on="0"/>
        <pt x="581" y="1123" on="1"/>
        <pt x="580" y="1123" on="1"/>
        <pt x="412" y="1123" on="0"/>
        <pt x="209" y="835" on="0"/>
      </contour>
    </TTGlyph>
    <TTGlyph name="Q.alt1" xMin="59" yMin="-453" xMax="2315" yMax="1193">
      <contour>
        <pt x="481" y="-15" on="1"/>
        <pt x="303" y="21" on="0"/>
        <pt x="59" y="335" on="0"/>
        <pt x="59" y="826" on="0"/>
        <pt x="342" y="1192" on="0"/>
        <pt x="594" y="1193" on="1"/>
        <pt x="848" y="1193" on="0"/>
        <pt x="1156" y="857" on="0"/>
        <pt x="1157" y="590" on="1"/>
        <pt x="1157" y="588" on="1"/>
        <pt x="1157" y="341" on="0"/>
        <pt x="925" y="48" on="0"/>
        <pt x="802" y="7" on="1"/>
        <pt x="1170" y="-182" on="0"/>
        <pt x="1755" y="-355" on="0"/>
        <pt x="2095" y="-355" on="0"/>
        <pt x="2251" y="-319" on="0"/>
        <pt x="2315" y="-298" on="1"/>
        <pt x="2315" y="-346" on="1"/>
        <pt x="2272" y="-394" on="0"/>
        <pt x="2028" y="-452" on="0"/>
        <pt x="1866" y="-453" on="1"/>
        <pt x="1386" y="-453" on="0"/>
      </contour>
      <contour>
        <pt x="209" y="605" on="1"/>
        <pt x="209" y="315" on="0"/>
        <pt x="449" y="47" on="0"/>
        <pt x="619" y="46" on="1"/>
        <pt x="818" y="46" on="0"/>
        <pt x="1005" y="343" on="0"/>
        <pt x="1006" y="567" on="1"/>
        <pt x="1006" y="848" on="0"/>
        <pt x="757" y="1122" on="0"/>
        <pt x="581" y="1123" on="1"/>
        <pt x="580" y="1123" on="1"/>
        <pt x="412" y="1123" on="0"/>
        <pt x="209" y="835" on="0"/>
      </contour>
    </TTGlyph>
    <TTGlyph name="R" xMin="29" yMin="-39" xMax="1358" yMax="1190">
      <contour>
        <pt x="29" y="1118" on="1"/>
        <pt x="29" y="1189" on="0"/>
        <pt x="130" y="1190" on="1"/>
        <pt x="799" y="1190" on="1"/>
        <pt x="891" y="1190" on="0"/>
        <pt x="978" y="1147" on="1"/>
        <pt x="1135" y="1068" on="0"/>
        <pt x="1136" y="890" on="1"/>
        <pt x="1136" y="754" on="0"/>
        <pt x="1016" y="659" on="1"/>
        <pt x="963" y="618" on="0"/>
        <pt x="900" y="594" on="1"/>
        <pt x="985" y="543" on="0"/>
        <pt x="1050" y="432" on="1"/>
        <pt x="1174" y="217" on="0"/>
        <pt x="1297" y="47" on="0"/>
        <pt x="1358" y="29" on="1"/>
        <pt x="1358" y="-24" on="1"/>
        <pt x="1196" y="-39" on="0"/>
        <pt x="1017" y="115" on="0"/>
        <pt x="835" y="478" on="0"/>
        <pt x="785" y="560" on="0"/>
        <pt x="740" y="561" on="0"/>
        <pt x="711" y="489" on="0"/>
        <pt x="702" y="480" on="1"/>
        <pt x="687" y="466" on="0"/>
        <pt x="622" y="465" on="0"/>
        <pt x="585" y="523" on="0"/>
        <pt x="585" y="549" on="1"/>
        <pt x="585" y="634" on="0"/>
        <pt x="730" y="634" on="1"/>
        <pt x="760" y="634" on="0"/>
        <pt x="780" y="632" on="1"/>
        <pt x="908" y="638" on="0"/>
        <pt x="958" y="758" on="1"/>
        <pt x="980" y="813" on="0"/>
        <pt x="980" y="877" on="1"/>
        <pt x="980" y="1031" on="0"/>
        <pt x="868" y="1094" on="1"/>
        <pt x="808" y="1127" on="0"/>
        <pt x="729" y="1127" on="1"/>
        <pt x="554" y="1127" on="1"/>
        <pt x="554" y="151" on="1"/>
        <pt x="554" y="86" on="0"/>
        <pt x="576" y="61" on="0"/>
        <pt x="608" y="55" on="1"/>
        <pt x="676" y="41" on="1"/>
        <pt x="676" y="0" on="1"/>
        <pt x="287" y="0" on="1"/>
        <pt x="287" y="39" on="1"/>
        <pt x="345" y="51" on="1"/>
        <pt x="398" y="62" on="0"/>
        <pt x="419" y="122" on="0"/>
        <pt x="419" y="207" on="1"/>
        <pt x="419" y="999" on="1"/>
        <pt x="399" y="1130" on="0"/>
        <pt x="313" y="1134" on="1"/>
        <pt x="283" y="1134" on="0"/>
        <pt x="234" y="1095" on="1"/>
        <pt x="167" y="1041" on="0"/>
        <pt x="69" y="1040" on="0"/>
        <pt x="29" y="1093" on="0"/>
      </contour>
    </TTGlyph>
    <TTGlyph name="R.alt1" xMin="33" yMin="-33" xMax="1182" yMax="1190">
      <contour>
        <pt x="170" y="207" on="1"/>
        <pt x="170" y="979" on="1"/>
        <pt x="170" y="1070" on="0"/>
        <pt x="136" y="1124" on="0"/>
        <pt x="90" y="1134" on="1"/>
        <pt x="33" y="1146" on="1"/>
        <pt x="33" y="1190" on="1"/>
        <pt x="535" y="1190" on="1"/>
        <pt x="627" y="1190" on="0"/>
        <pt x="712" y="1146" on="1"/>
        <pt x="860" y="1067" on="0"/>
        <pt x="861" y="890" on="1"/>
        <pt x="861" y="672" on="0"/>
        <pt x="664" y="593" on="1"/>
        <pt x="653" y="588" on="0"/>
        <pt x="650" y="587" on="1"/>
        <pt x="841" y="222" on="0"/>
        <pt x="957" y="105" on="1"/>
        <pt x="1027" y="36" on="0"/>
        <pt x="1081" y="34" on="1"/>
        <pt x="1100" y="34" on="0"/>
        <pt x="1170" y="36" on="0"/>
        <pt x="1176" y="29" on="1"/>
        <pt x="1182" y="21" on="0"/>
        <pt x="1182" y="8" on="1"/>
        <pt x="1180" y="-33" on="0"/>
        <pt x="1056" y="-33" on="1"/>
        <pt x="880" y="-33" on="0"/>
        <pt x="670" y="280" on="1"/>
        <pt x="582" y="412" on="0"/>
        <pt x="513" y="556" on="1"/>
        <pt x="305" y="556" on="1"/>
        <pt x="305" y="153" on="1"/>
        <pt x="305" y="84" on="0"/>
        <pt x="331" y="60" on="0"/>
        <pt x="359" y="55" on="1"/>
        <pt x="427" y="41" on="1"/>
        <pt x="427" y="0" on="1"/>
        <pt x="38" y="0" on="1"/>
        <pt x="38" y="39" on="1"/>
        <pt x="96" y="51" on="1"/>
        <pt x="149" y="62" on="0"/>
        <pt x="159" y="92" on="1"/>
        <pt x="170" y="122" on="0"/>
      </contour>
      <contour>
        <pt x="305" y="1128" on="1"/>
        <pt x="305" y="618" on="1"/>
        <pt x="505" y="618" on="1"/>
        <pt x="633" y="618" on="0"/>
        <pt x="688" y="741" on="1"/>
        <pt x="716" y="804" on="0"/>
        <pt x="716" y="877" on="1"/>
        <pt x="716" y="1030" on="0"/>
        <pt x="605" y="1094" on="1"/>
        <pt x="545" y="1128" on="0"/>
        <pt x="465" y="1128" on="1"/>
      </contour>
    </TTGlyph>
    <TTGlyph name="S" xMin="90" yMin="-33" xMax="784" yMax="1201">
      <contour>
        <pt x="680" y="895" on="1"/>
        <pt x="665" y="1130" on="0"/>
        <pt x="456" y="1131" on="1"/>
        <pt x="333" y="1131" on="0"/>
        <pt x="287" y="1057" on="1"/>
        <pt x="266" y="1023" on="0"/>
        <pt x="266" y="971" on="1"/>
        <pt x="266" y="913" on="0"/>
        <pt x="328" y="857" on="1"/>
        <pt x="361" y="828" on="1"/>
        <pt x="584" y="639" on="1"/>
        <pt x="783" y="466" on="0"/>
        <pt x="784" y="259" on="1"/>
        <pt x="784" y="126" on="0"/>
        <pt x="554" y="-33" on="0"/>
        <pt x="407" y="-33" on="1"/>
        <pt x="313" y="-33" on="0"/>
        <pt x="205" y="19" on="0"/>
        <pt x="174" y="35" on="0"/>
        <pt x="132" y="65" on="1"/>
        <pt x="90" y="95" on="1"/>
        <pt x="90" y="274" on="1"/>
        <pt x="90" y="362" on="0"/>
        <pt x="214" y="453" on="0"/>
        <pt x="376" y="453" on="0"/>
        <pt x="430" y="427" on="1"/>
        <pt x="483" y="400" on="0"/>
        <pt x="484" y="357" on="1"/>
        <pt x="484" y="355" on="1"/>
        <pt x="484" y="313" on="0"/>
        <pt x="442" y="300" on="1"/>
        <pt x="432" y="297" on="0"/>
        <pt x="421" y="297" on="1"/>
        <pt x="385" y="297" on="0"/>
        <pt x="362" y="355" on="0"/>
        <pt x="361" y="357" on="1"/>
        <pt x="341" y="385" on="0"/>
        <pt x="282" y="385" on="1"/>
        <pt x="197" y="385" on="0"/>
        <pt x="178" y="304" on="1"/>
        <pt x="174" y="288" on="0"/>
        <pt x="174" y="274" on="1"/>
        <pt x="174" y="123" on="0"/>
        <pt x="285" y="66" on="1"/>
        <pt x="338" y="39" on="0"/>
        <pt x="409" y="39" on="1"/>
        <pt x="572" y="39" on="0"/>
        <pt x="631" y="149" on="1"/>
        <pt x="655" y="194" on="0"/>
        <pt x="655" y="243" on="1"/>
        <pt x="655" y="327" on="0"/>
        <pt x="577" y="436" on="1"/>
        <pt x="538" y="491" on="0"/>
        <pt x="496" y="525" on="1"/>
        <pt x="313" y="673" on="1"/>
        <pt x="189" y="775" on="0"/>
        <pt x="132" y="898" on="0"/>
        <pt x="132" y="950" on="1"/>
        <pt x="132" y="1070" on="0"/>
        <pt x="328" y="1201" on="0"/>
        <pt x="461" y="1201" on="1"/>
        <pt x="614" y="1201" on="0"/>
        <pt x="748" y="1118" on="1"/>
        <pt x="747" y="895" on="1"/>
      </contour>
    </TTGlyph>
    <TTGlyph name="S.alt1" xMin="72" yMin="-33" xMax="764" yMax="1201">
      <contour>
        <pt x="660" y="895" on="1"/>
        <pt x="645" y="1130" on="0"/>
        <pt x="437" y="1131" on="1"/>
        <pt x="334" y="1131" on="0"/>
        <pt x="280" y="1061" on="1"/>
        <pt x="246" y="1016" on="0"/>
        <pt x="246" y="958" on="1"/>
        <pt x="246" y="865" on="0"/>
        <pt x="327" y="786" on="1"/>
        <pt x="370" y="747" on="1"/>
        <pt x="564" y="582" on="1"/>
        <pt x="660" y="499" on="0"/>
        <pt x="694" y="456" on="1"/>
        <pt x="763" y="367" on="0"/>
        <pt x="764" y="126" on="0"/>
        <pt x="536" y="-33" on="0"/>
        <pt x="399" y="-33" on="1"/>
        <pt x="239" y="-33" on="0"/>
        <pt x="91" y="46" on="1"/>
        <pt x="72" y="274" on="1"/>
        <pt x="132" y="275" on="1"/>
        <pt x="170" y="40" on="0"/>
        <pt x="390" y="39" on="1"/>
        <pt x="553" y="39" on="0"/>
        <pt x="612" y="149" on="1"/>
        <pt x="636" y="194" on="0"/>
        <pt x="636" y="243" on="1"/>
        <pt x="636" y="329" on="0"/>
        <pt x="522" y="429" on="1"/>
        <pt x="284" y="621" on="1"/>
        <pt x="166" y="713" on="0"/>
        <pt x="131" y="812" on="1"/>
        <pt x="112" y="868" on="0"/>
        <pt x="112" y="934" on="1"/>
        <pt x="112" y="1061" on="0"/>
        <pt x="309" y="1201" on="0"/>
        <pt x="593" y="1201" on="0"/>
        <pt x="729" y="1118" on="1"/>
        <pt x="727" y="895" on="1"/>
      </contour>
    </TTGlyph>
    <TTGlyph name="Scaron" xMin="90" yMin="-33" xMax="784" yMax="1578">
      <component glyphName="S" x="0" y="0" flags="0x204"/>
      <component glyphName="caron" x="171" y="386" flags="0x4"/>
    </TTGlyph>
    <TTGlyph name="T" xMin="51" yMin="0" xMax="1351" yMax="1332">
      <contour>
        <pt x="184" y="890" on="1"/>
        <pt x="184" y="686" on="0"/>
        <pt x="275" y="685" on="1"/>
        <pt x="291" y="685" on="0"/>
        <pt x="325" y="715" on="1"/>
        <pt x="382" y="757" on="0"/>
        <pt x="421" y="760" on="1"/>
        <pt x="485" y="760" on="0"/>
        <pt x="491" y="699" on="1"/>
        <pt x="494" y="658" on="0"/>
        <pt x="453" y="635" on="1"/>
        <pt x="432" y="624" on="0"/>
        <pt x="409" y="624" on="1"/>
        <pt x="295" y="624" on="0"/>
        <pt x="244" y="641" on="1"/>
        <pt x="119" y="682" on="0"/>
        <pt x="72" y="809" on="1"/>
        <pt x="51" y="868" on="0"/>
        <pt x="51" y="934" on="1"/>
        <pt x="51" y="1124" on="0"/>
        <pt x="229" y="1174" on="1"/>
        <pt x="284" y="1190" on="0"/>
        <pt x="349" y="1190" on="1"/>
        <pt x="1107" y="1190" on="1"/>
        <pt x="1217" y="1190" on="0"/>
        <pt x="1249" y="1236" on="1"/>
        <pt x="1270" y="1268" on="0"/>
        <pt x="1270" y="1332" on="1"/>
        <pt x="1312" y="1332" on="1"/>
        <pt x="1351" y="1201" on="0"/>
        <pt x="1271" y="1118" on="0"/>
        <pt x="1178" y="1112" on="1"/>
        <pt x="800" y="1112" on="1"/>
        <pt x="800" y="209" on="1"/>
        <pt x="800" y="117" on="0"/>
        <pt x="826" y="62" on="0"/>
        <pt x="874" y="52" on="1"/>
        <pt x="932" y="41" on="1"/>
        <pt x="932" y="0" on="1"/>
        <pt x="544" y="0" on="1"/>
        <pt x="544" y="42" on="1"/>
        <pt x="613" y="57" on="1"/>
        <pt x="650" y="65" on="0"/>
        <pt x="659" y="80" on="1"/>
        <pt x="667" y="97" on="0"/>
        <pt x="667" y="153" on="1"/>
        <pt x="667" y="1112" on="1"/>
        <pt x="337" y="1112" on="1"/>
        <pt x="221" y="1112" on="0"/>
        <pt x="192" y="974" on="1"/>
        <pt x="184" y="935" on="0"/>
      </contour>
    </TTGlyph>
    <TTGlyph name="T.alt1" xMin="16" yMin="0" xMax="1128" yMax="1271">
      <contour>
        <pt x="505" y="1128" on="1"/>
        <pt x="170" y="1128" on="1"/>
        <pt x="103" y="1128" on="0"/>
        <pt x="79" y="1090" on="0"/>
        <pt x="73" y="1061" on="1"/>
        <pt x="59" y="988" on="1"/>
        <pt x="16" y="988" on="1"/>
        <pt x="16" y="1271" on="1"/>
        <pt x="57" y="1271" on="1"/>
        <pt x="67" y="1234" on="1"/>
        <pt x="75" y="1201" on="0"/>
        <pt x="111" y="1195" on="1"/>
        <pt x="147" y="1190" on="0"/>
        <pt x="225" y="1190" on="1"/>
        <pt x="919" y="1190" on="1"/>
        <pt x="1028" y="1190" on="0"/>
        <pt x="1051" y="1198" on="1"/>
        <pt x="1073" y="1207" on="0"/>
        <pt x="1077" y="1226" on="1"/>
        <pt x="1087" y="1271" on="1"/>
        <pt x="1128" y="1271" on="1"/>
        <pt x="1128" y="988" on="1"/>
        <pt x="1086" y="988" on="1"/>
        <pt x="1071" y="1056" on="1"/>
        <pt x="1062" y="1101" on="0"/>
        <pt x="1042" y="1115" on="1"/>
        <pt x="1023" y="1128" on="0"/>
        <pt x="975" y="1128" on="1"/>
        <pt x="639" y="1128" on="1"/>
        <pt x="639" y="209" on="1"/>
        <pt x="639" y="118" on="0"/>
        <pt x="663" y="62" on="0"/>
        <pt x="712" y="52" on="1"/>
        <pt x="771" y="41" on="1"/>
        <pt x="771" y="0" on="1"/>
        <pt x="383" y="0" on="1"/>
        <pt x="383" y="42" on="1"/>
        <pt x="452" y="57" on="1"/>
        <pt x="489" y="65" on="0"/>
        <pt x="497" y="80" on="1"/>
        <pt x="505" y="97" on="0"/>
        <pt x="505" y="153" on="1"/>
      </contour>
    </TTGlyph>
    <TTGlyph name="Thorn" xMin="114" yMin="0" xMax="926" yMax="1191">
      <contour>
        <pt x="370" y="1015" on="1"/>
        <pt x="370" y="926" on="1"/>
        <pt x="600" y="926" on="1"/>
        <pt x="742" y="926" on="0"/>
        <pt x="926" y="776" on="0"/>
        <pt x="926" y="631" on="1"/>
        <pt x="926" y="449" on="0"/>
        <pt x="713" y="286" on="0"/>
        <pt x="552" y="286" on="1"/>
        <pt x="370" y="286" on="1"/>
        <pt x="370" y="176" on="1"/>
        <pt x="370" y="109" on="0"/>
        <pt x="398" y="61" on="0"/>
        <pt x="443" y="52" on="1"/>
        <pt x="502" y="41" on="1"/>
        <pt x="502" y="0" on="1"/>
        <pt x="114" y="0" on="1"/>
        <pt x="114" y="42" on="1"/>
        <pt x="183" y="57" on="1"/>
        <pt x="220" y="65" on="0"/>
        <pt x="236" y="97" on="0"/>
        <pt x="238" y="173" on="1"/>
        <pt x="238" y="1038" on="1"/>
        <pt x="238" y="1103" on="0"/>
        <pt x="214" y="1128" on="0"/>
        <pt x="184" y="1134" on="1"/>
        <pt x="116" y="1149" on="1"/>
        <pt x="116" y="1191" on="1"/>
        <pt x="506" y="1191" on="1"/>
        <pt x="506" y="1150" on="1"/>
        <pt x="447" y="1139" on="1"/>
        <pt x="387" y="1127" on="0"/>
        <pt x="375" y="1083" on="1"/>
        <pt x="370" y="1062" on="0"/>
      </contour>
      <contour>
        <pt x="370" y="861" on="1"/>
        <pt x="370" y="852" on="0"/>
        <pt x="370" y="349" on="1"/>
        <pt x="434" y="349" on="1"/>
        <pt x="617" y="349" on="0"/>
        <pt x="781" y="489" on="0"/>
        <pt x="781" y="615" on="1"/>
        <pt x="781" y="749" on="0"/>
        <pt x="687" y="819" on="1"/>
        <pt x="630" y="861" on="0"/>
        <pt x="564" y="861" on="1"/>
      </contour>
    </TTGlyph>
    <TTGlyph name="U" xMin="8" yMin="-33" xMax="1152" yMax="1190">
      <contour>
        <pt x="1035" y="509" on="1"/>
        <pt x="1035" y="-32" on="0"/>
        <pt x="584" y="-33" on="1"/>
        <pt x="262" y="-33" on="0"/>
        <pt x="175" y="250" on="1"/>
        <pt x="145" y="347" on="0"/>
        <pt x="145" y="469" on="1"/>
        <pt x="145" y="978" on="1"/>
        <pt x="145" y="1071" on="0"/>
        <pt x="112" y="1124" on="0"/>
        <pt x="66" y="1134" on="1"/>
        <pt x="8" y="1146" on="1"/>
        <pt x="8" y="1190" on="1"/>
        <pt x="572" y="1190" on="1"/>
        <pt x="645" y="1190" on="0"/>
        <pt x="667" y="1146" on="1"/>
        <pt x="673" y="1132" on="0"/>
        <pt x="673" y="1117" on="1"/>
        <pt x="673" y="1063" on="0"/>
        <pt x="620" y="1044" on="1"/>
        <pt x="603" y="1038" on="0"/>
        <pt x="587" y="1038" on="1"/>
        <pt x="536" y="1038" on="0"/>
        <pt x="433" y="1121" on="0"/>
        <pt x="402" y="1133" on="0"/>
        <pt x="389" y="1133" on="1"/>
        <pt x="302" y="1133" on="0"/>
        <pt x="285" y="1005" on="1"/>
        <pt x="280" y="963" on="0"/>
        <pt x="280" y="872" on="1"/>
        <pt x="280" y="473" on="1"/>
        <pt x="280" y="133" on="0"/>
        <pt x="525" y="68" on="1"/>
        <pt x="579" y="54" on="0"/>
        <pt x="642" y="54" on="1"/>
        <pt x="855" y="54" on="0"/>
        <pt x="922" y="285" on="1"/>
        <pt x="949" y="380" on="0"/>
        <pt x="950" y="502" on="1"/>
        <pt x="950" y="978" on="1"/>
        <pt x="950" y="1071" on="0"/>
        <pt x="917" y="1124" on="0"/>
        <pt x="871" y="1134" on="1"/>
        <pt x="813" y="1146" on="1"/>
        <pt x="813" y="1190" on="1"/>
        <pt x="1152" y="1190" on="1"/>
        <pt x="1152" y="1144" on="1"/>
        <pt x="1084" y="1130" on="1"/>
        <pt x="1049" y="1123" on="0"/>
        <pt x="1035" y="1093" on="0"/>
        <pt x="1035" y="1033" on="1"/>
      </contour>
    </TTGlyph>
    <TTGlyph name="U.alt1" xMin="8" yMin="-33" xMax="1152" yMax="1190">
      <contour>
        <pt x="1035" y="509" on="1"/>
        <pt x="1035" y="-32" on="0"/>
        <pt x="584" y="-33" on="1"/>
        <pt x="262" y="-33" on="0"/>
        <pt x="175" y="250" on="1"/>
        <pt x="145" y="347" on="0"/>
        <pt x="145" y="469" on="1"/>
        <pt x="145" y="978" on="1"/>
        <pt x="145" y="1071" on="0"/>
        <pt x="112" y="1124" on="0"/>
        <pt x="66" y="1134" on="1"/>
        <pt x="8" y="1146" on="1"/>
        <pt x="8" y="1190" on="1"/>
        <pt x="397" y="1190" on="1"/>
        <pt x="397" y="1144" on="1"/>
        <pt x="329" y="1130" on="1"/>
        <pt x="294" y="1123" on="0"/>
        <pt x="280" y="1093" on="0"/>
        <pt x="280" y="1033" on="1"/>
        <pt x="280" y="473" on="1"/>
        <pt x="280" y="133" on="0"/>
        <pt x="525" y="68" on="1"/>
        <pt x="579" y="54" on="0"/>
        <pt x="642" y="54" on="1"/>
        <pt x="855" y="54" on="0"/>
        <pt x="922" y="285" on="1"/>
        <pt x="949" y="380" on="0"/>
        <pt x="950" y="502" on="1"/>
        <pt x="950" y="978" on="1"/>
        <pt x="950" y="1071" on="0"/>
        <pt x="917" y="1124" on="0"/>
        <pt x="871" y="1134" on="1"/>
        <pt x="813" y="1146" on="1"/>
        <pt x="813" y="1190" on="1"/>
        <pt x="1152" y="1190" on="1"/>
        <pt x="1152" y="1144" on="1"/>
        <pt x="1084" y="1130" on="1"/>
        <pt x="1049" y="1123" on="0"/>
        <pt x="1035" y="1093" on="0"/>
        <pt x="1035" y="1033" on="1"/>
      </contour>
    </TTGlyph>
    <TTGlyph name="Uacute" xMin="8" yMin="-33" xMax="1152" yMax="1576">
      <component glyphName="U" x="0" y="0" flags="0x204"/>
      <component glyphName="acute" x="16" y="342" flags="0x4"/>
    </TTGlyph>
    <TTGlyph name="Ucircumflex" xMin="8" yMin="-33" xMax="1152" yMax="1594">
      <component glyphName="circumflex" x="318" y="339" flags="0x4"/>
      <component glyphName="U.alt1" x="0" y="0" flags="0x4"/>
    </TTGlyph>
    <TTGlyph name="Udieresis" xMin="8" yMin="-33" xMax="1152" yMax="1525">
      <component glyphName="U.alt1" x="0" y="0" flags="0x4"/>
      <component glyphName="dieresis" x="164" y="386" flags="0x4"/>
    </TTGlyph>
    <TTGlyph name="Ugrave" xMin="26" yMin="-33" xMax="1170" yMax="1575">
      <component glyphName="U" x="18" y="0" flags="0x204"/>
      <component glyphName="grave" x="151" y="339" flags="0x4"/>
    </TTGlyph>
    <TTGlyph name="V" xMin="-33" yMin="-2" xMax="1237" yMax="1190">
      <contour>
        <pt x="531" y="1190" on="1"/>
        <pt x="631" y="1190" on="0"/>
        <pt x="632" y="1120" on="1"/>
        <pt x="632" y="1066" on="0"/>
        <pt x="578" y="1047" on="1"/>
        <pt x="562" y="1042" on="0"/>
        <pt x="546" y="1042" on="1"/>
        <pt x="495" y="1042" on="0"/>
        <pt x="398" y="1125" on="0"/>
        <pt x="370" y="1136" on="0"/>
        <pt x="359" y="1136" on="1"/>
        <pt x="277" y="1136" on="0"/>
        <pt x="355" y="929" on="1"/>
        <pt x="639" y="161" on="1"/>
        <pt x="989" y="1064" on="1"/>
        <pt x="1009" y="1114" on="0"/>
        <pt x="944" y="1144" on="0"/>
        <pt x="852" y="1144" on="1"/>
        <pt x="852" y="1190" on="1"/>
        <pt x="1236" y="1190" on="1"/>
        <pt x="1237" y="1144" on="1"/>
        <pt x="1135" y="1140" on="0"/>
        <pt x="1102" y="1099" on="1"/>
        <pt x="1090" y="1084" on="0"/>
        <pt x="1078" y="1052" on="1"/>
        <pt x="654" y="-2" on="1"/>
        <pt x="561" y="-2" on="1"/>
        <pt x="200" y="924" on="1"/>
        <pt x="146" y="1062" on="0"/>
        <pt x="83" y="1136" on="0"/>
        <pt x="20" y="1141" on="1"/>
        <pt x="-1" y="1143" on="0"/>
        <pt x="-33" y="1143" on="1"/>
        <pt x="-33" y="1190" on="1"/>
      </contour>
    </TTGlyph>
    <TTGlyph name="V.alt1" xMin="-33" yMin="-2" xMax="1237" yMax="1190">
      <contour>
        <pt x="-33" y="1143" on="1"/>
        <pt x="-33" y="1190" on="1"/>
        <pt x="442" y="1190" on="1"/>
        <pt x="442" y="1143" on="1"/>
        <pt x="340" y="1143" on="0"/>
        <pt x="322" y="1121" on="1"/>
        <pt x="297" y="1086" on="0"/>
        <pt x="355" y="929" on="1"/>
        <pt x="639" y="161" on="1"/>
        <pt x="968" y="1030" on="1"/>
        <pt x="1007" y="1114" on="0"/>
        <pt x="947" y="1144" on="0"/>
        <pt x="852" y="1144" on="1"/>
        <pt x="852" y="1190" on="1"/>
        <pt x="1236" y="1190" on="1"/>
        <pt x="1237" y="1144" on="1"/>
        <pt x="1135" y="1140" on="0"/>
        <pt x="1102" y="1099" on="1"/>
        <pt x="1090" y="1084" on="0"/>
        <pt x="1078" y="1051" on="1"/>
        <pt x="1064" y="1015" on="1"/>
        <pt x="1011" y="875" on="0"/>
        <pt x="659" y="16" on="0"/>
        <pt x="654" y="-2" on="1"/>
        <pt x="561" y="-2" on="1"/>
        <pt x="200" y="924" on="1"/>
        <pt x="146" y="1062" on="0"/>
        <pt x="83" y="1136" on="0"/>
        <pt x="20" y="1141" on="1"/>
        <pt x="-1" y="1143" on="0"/>
      </contour>
    </TTGlyph>
    <TTGlyph name="W" xMin="-33" yMin="0" xMax="1870" yMax="1190">
      <contour>
        <pt x="724" y="1190" on="1"/>
        <pt x="1115" y="1190" on="1"/>
        <pt x="1115" y="1141" on="1"/>
        <pt x="1051" y="1141" on="0"/>
        <pt x="998" y="1080" on="0"/>
        <pt x="998" y="1055" on="1"/>
        <pt x="998" y="1030" on="0"/>
        <pt x="1018" y="973" on="0"/>
        <pt x="1033" y="927" on="1"/>
        <pt x="1275" y="184" on="1"/>
        <pt x="1610" y="1042" on="1"/>
        <pt x="1635" y="1106" on="0"/>
        <pt x="1562" y="1141" on="0"/>
        <pt x="1488" y="1141" on="1"/>
        <pt x="1488" y="1190" on="1"/>
        <pt x="1870" y="1190" on="1"/>
        <pt x="1870" y="1141" on="1"/>
        <pt x="1822" y="1139" on="0"/>
        <pt x="1767" y="1127" on="0"/>
        <pt x="1733" y="1100" on="0"/>
        <pt x="1713" y="1057" on="0"/>
        <pt x="1700" y="1024" on="1"/>
        <pt x="1291" y="0" on="1"/>
        <pt x="1214" y="0" on="1"/>
        <pt x="927" y="900" on="1"/>
        <pt x="597" y="0" on="1"/>
        <pt x="522" y="0" on="1"/>
        <pt x="178" y="944" on="1"/>
        <pt x="132" y="1070" on="0"/>
        <pt x="70" y="1141" on="0"/>
        <pt x="-33" y="1141" on="1"/>
        <pt x="-33" y="1190" on="1"/>
        <pt x="417" y="1190" on="1"/>
        <pt x="417" y="1141" on="1"/>
        <pt x="298" y="1141" on="0"/>
        <pt x="298" y="1090" on="1"/>
        <pt x="298" y="1078" on="0"/>
        <pt x="304" y="1041" on="0"/>
        <pt x="315" y="998" on="0"/>
        <pt x="329" y="950" on="0"/>
        <pt x="337" y="927" on="1"/>
        <pt x="585" y="191" on="1"/>
        <pt x="885" y="1030" on="1"/>
        <pt x="871" y="1068" on="0"/>
        <pt x="847" y="1112" on="0"/>
        <pt x="813" y="1135" on="0"/>
        <pt x="763" y="1141" on="0"/>
        <pt x="724" y="1141" on="1"/>
      </contour>
    </TTGlyph>
    <TTGlyph name="W.alt1" xMin="-33" yMin="0" xMax="1870" yMax="1190">
      <contour>
        <pt x="724" y="1141" on="1"/>
        <pt x="724" y="1190" on="1"/>
        <pt x="1115" y="1190" on="1"/>
        <pt x="1115" y="1141" on="1"/>
        <pt x="1030" y="1141" on="0"/>
        <pt x="1005" y="1087" on="1"/>
        <pt x="998" y="1071" on="0"/>
        <pt x="998" y="1031" on="0"/>
        <pt x="1033" y="924" on="1"/>
        <pt x="1141" y="593" on="1"/>
        <pt x="1275" y="184" on="1"/>
        <pt x="1610" y="1042" on="1"/>
        <pt x="1635" y="1106" on="0"/>
        <pt x="1598" y="1124" on="1"/>
        <pt x="1562" y="1141" on="0"/>
        <pt x="1488" y="1141" on="1"/>
        <pt x="1488" y="1190" on="1"/>
        <pt x="1870" y="1190" on="1"/>
        <pt x="1870" y="1141" on="1"/>
        <pt x="1778" y="1138" on="0"/>
        <pt x="1756" y="1124" on="1"/>
        <pt x="1733" y="1110" on="0"/>
        <pt x="1721" y="1080" on="1"/>
        <pt x="1700" y="1024" on="1"/>
        <pt x="1690" y="997" on="0"/>
        <pt x="1495" y="514" on="1"/>
        <pt x="1300" y="30" on="0"/>
        <pt x="1291" y="0" on="1"/>
        <pt x="1214" y="0" on="1"/>
        <pt x="927" y="900" on="1"/>
        <pt x="597" y="0" on="1"/>
        <pt x="522" y="0" on="1"/>
        <pt x="178" y="944" on="1"/>
        <pt x="129" y="1077" on="0"/>
        <pt x="77" y="1137" on="0"/>
        <pt x="24" y="1140" on="1"/>
        <pt x="8" y="1141" on="0"/>
        <pt x="-33" y="1141" on="1"/>
        <pt x="-33" y="1190" on="1"/>
        <pt x="417" y="1190" on="1"/>
        <pt x="417" y="1141" on="1"/>
        <pt x="299" y="1140" on="0"/>
        <pt x="298" y="1090" on="1"/>
        <pt x="298" y="1040" on="0"/>
        <pt x="337" y="927" on="1"/>
        <pt x="585" y="191" on="1"/>
        <pt x="885" y="1030" on="1"/>
        <pt x="859" y="1108" on="0"/>
        <pt x="835" y="1125" on="1"/>
      </contour>
    </TTGlyph>
    <TTGlyph name="X" xMin="8" yMin="-2" xMax="1405" yMax="1257">
      <contour>
        <pt x="1032" y="1234" on="1"/>
        <pt x="1246" y="1178" on="0"/>
        <pt x="1200" y="1044" on="1"/>
        <pt x="1186" y="1005" on="0"/>
        <pt x="1049" y="838" on="0"/>
        <pt x="944" y="728" on="1"/>
        <pt x="838" y="616" on="1"/>
        <pt x="986" y="422" on="1"/>
        <pt x="1022" y="374" on="1"/>
        <pt x="1181" y="159" on="0"/>
        <pt x="1258" y="98" on="1"/>
        <pt x="1293" y="70" on="0"/>
        <pt x="1317" y="65" on="1"/>
        <pt x="1405" y="49" on="1"/>
        <pt x="1405" y="0" on="1"/>
        <pt x="807" y="0" on="1"/>
        <pt x="807" y="52" on="1"/>
        <pt x="896" y="68" on="1"/>
        <pt x="901" y="69" on="0"/>
        <pt x="1032" y="89" on="0"/>
        <pt x="1033" y="104" on="1"/>
        <pt x="1033" y="144" on="0"/>
        <pt x="777" y="471" on="1"/>
        <pt x="722" y="540" on="1"/>
        <pt x="640" y="452" on="0"/>
        <pt x="361" y="111" on="0"/>
        <pt x="360" y="94" on="1"/>
        <pt x="360" y="76" on="0"/>
        <pt x="435" y="64" on="1"/>
        <pt x="512" y="52" on="1"/>
        <pt x="512" y="0" on="1"/>
        <pt x="8" y="-2" on="1"/>
        <pt x="8" y="47" on="1"/>
        <pt x="109" y="64" on="1"/>
        <pt x="215" y="80" on="0"/>
        <pt x="481" y="391" on="1"/>
        <pt x="583" y="511" on="1"/>
        <pt x="678" y="623" on="1"/>
        <pt x="639" y="676" on="1"/>
        <pt x="305" y="1136" on="0"/>
        <pt x="231" y="1141" on="1"/>
        <pt x="127" y="1144" on="1"/>
        <pt x="127" y="1190" on="1"/>
        <pt x="703" y="1190" on="1"/>
        <pt x="703" y="1143" on="1"/>
        <pt x="624" y="1133" on="1"/>
        <pt x="542" y="1122" on="0"/>
        <pt x="525" y="1102" on="0"/>
        <pt x="525" y="1094" on="1"/>
        <pt x="525" y="1057" on="0"/>
        <pt x="771" y="715" on="0"/>
        <pt x="797" y="686" on="1"/>
        <pt x="818" y="711" on="0"/>
        <pt x="1055" y="959" on="0"/>
        <pt x="1137" y="1071" on="0"/>
        <pt x="1118" y="1109" on="1"/>
        <pt x="1102" y="1137" on="0"/>
        <pt x="1033" y="1142" on="0"/>
        <pt x="993" y="1117" on="0"/>
        <pt x="890" y="1102" on="0"/>
        <pt x="848" y="1156" on="0"/>
        <pt x="848" y="1187" on="1"/>
        <pt x="850" y="1256" on="0"/>
        <pt x="913" y="1257" on="1"/>
        <pt x="941" y="1257" on="0"/>
      </contour>
    </TTGlyph>
    <TTGlyph name="X.alt1" xMin="8" yMin="0" xMax="1317" yMax="1190">
      <contour>
        <pt x="618" y="559" on="1"/>
        <pt x="338" y="131" on="0"/>
        <pt x="337" y="114" on="1"/>
        <pt x="338" y="81" on="0"/>
        <pt x="450" y="64" on="1"/>
        <pt x="526" y="52" on="1"/>
        <pt x="526" y="0" on="1"/>
        <pt x="8" y="0" on="1"/>
        <pt x="8" y="49" on="1"/>
        <pt x="114" y="65" on="1"/>
        <pt x="187" y="76" on="0"/>
        <pt x="266" y="159" on="0"/>
        <pt x="318" y="238" on="1"/>
        <pt x="386" y="342" on="1"/>
        <pt x="476" y="480" on="1"/>
        <pt x="539" y="577" on="0"/>
        <pt x="572" y="624" on="1"/>
        <pt x="519" y="700" on="1"/>
        <pt x="296" y="1020" on="0"/>
        <pt x="205" y="1103" on="1"/>
        <pt x="164" y="1140" on="0"/>
        <pt x="143" y="1141" on="1"/>
        <pt x="39" y="1144" on="1"/>
        <pt x="39" y="1190" on="1"/>
        <pt x="615" y="1190" on="1"/>
        <pt x="615" y="1143" on="1"/>
        <pt x="536" y="1133" on="1"/>
        <pt x="454" y="1122" on="0"/>
        <pt x="437" y="1102" on="0"/>
        <pt x="437" y="1094" on="1"/>
        <pt x="437" y="1057" on="0"/>
        <pt x="651" y="757" on="0"/>
        <pt x="676" y="729" on="1"/>
        <pt x="739" y="814" on="1"/>
        <pt x="909" y="1041" on="0"/>
        <pt x="911" y="1095" on="1"/>
        <pt x="911" y="1119" on="0"/>
        <pt x="805" y="1130" on="1"/>
        <pt x="773" y="1133" on="0"/>
        <pt x="756" y="1136" on="1"/>
        <pt x="709" y="1143" on="1"/>
        <pt x="709" y="1190" on="1"/>
        <pt x="1231" y="1190" on="1"/>
        <pt x="1231" y="1144" on="1"/>
        <pt x="1081" y="1125" on="1"/>
        <pt x="1029" y="1118" on="0"/>
        <pt x="900" y="924" on="1"/>
        <pt x="821" y="806" on="0"/>
        <pt x="712" y="660" on="1"/>
        <pt x="898" y="422" on="1"/>
        <pt x="942" y="364" on="1"/>
        <pt x="1094" y="160" on="0"/>
        <pt x="1204" y="70" on="0"/>
        <pt x="1229" y="65" on="1"/>
        <pt x="1317" y="49" on="1"/>
        <pt x="1317" y="0" on="1"/>
        <pt x="742" y="0" on="1"/>
        <pt x="742" y="52" on="1"/>
        <pt x="831" y="68" on="1"/>
        <pt x="837" y="69" on="0"/>
        <pt x="968" y="87" on="0"/>
        <pt x="968" y="104" on="1"/>
        <pt x="959" y="136" on="0"/>
        <pt x="895" y="220" on="1"/>
        <pt x="808" y="331" on="1"/>
      </contour>
    </TTGlyph>
    <TTGlyph name="Y" xMin="-8" yMin="0" xMax="1148" yMax="1190">
      <contour>
        <pt x="339" y="1138" on="1"/>
        <pt x="280" y="1138" on="0"/>
        <pt x="279" y="1102" on="1"/>
        <pt x="280" y="1076" on="0"/>
        <pt x="296" y="1051" on="1"/>
        <pt x="595" y="593" on="1"/>
        <pt x="637" y="662" on="1"/>
        <pt x="897" y="1087" on="0"/>
        <pt x="898" y="1133" on="0"/>
        <pt x="840" y="1144" on="0"/>
        <pt x="761" y="1146" on="1"/>
        <pt x="761" y="1190" on="1"/>
        <pt x="1148" y="1190" on="1"/>
        <pt x="1148" y="1146" on="1"/>
        <pt x="1146" y="1145" on="0"/>
        <pt x="1136" y="1145" on="1"/>
        <pt x="1037" y="1140" on="0"/>
        <pt x="996" y="1090" on="1"/>
        <pt x="909" y="984" on="0"/>
        <pt x="691" y="610" on="1"/>
        <pt x="647" y="534" on="0"/>
        <pt x="634" y="510" on="1"/>
        <pt x="634" y="152" on="1"/>
        <pt x="634" y="87" on="0"/>
        <pt x="656" y="61" on="0"/>
        <pt x="689" y="54" on="1"/>
        <pt x="756" y="41" on="1"/>
        <pt x="756" y="0" on="1"/>
        <pt x="367" y="0" on="1"/>
        <pt x="367" y="39" on="1"/>
        <pt x="425" y="51" on="1"/>
        <pt x="478" y="62" on="0"/>
        <pt x="499" y="124" on="0"/>
        <pt x="499" y="207" on="1"/>
        <pt x="499" y="510" on="1"/>
        <pt x="246" y="940" on="0"/>
        <pt x="161" y="1039" on="1"/>
        <pt x="67" y="1147" on="0"/>
        <pt x="-8" y="1146" on="1"/>
        <pt x="-8" y="1190" on="1"/>
        <pt x="512" y="1190" on="1"/>
        <pt x="612" y="1190" on="0"/>
        <pt x="613" y="1121" on="1"/>
        <pt x="613" y="1069" on="0"/>
        <pt x="561" y="1049" on="1"/>
        <pt x="543" y="1043" on="0"/>
        <pt x="526" y="1043" on="1"/>
        <pt x="475" y="1043" on="0"/>
        <pt x="378" y="1126" on="0"/>
        <pt x="351" y="1138" on="0"/>
      </contour>
    </TTGlyph>
    <TTGlyph name="Y.alt1" xMin="-8" yMin="0" xMax="1148" yMax="1190">
      <contour>
        <pt x="499" y="207" on="1"/>
        <pt x="499" y="510" on="1"/>
        <pt x="246" y="940" on="0"/>
        <pt x="161" y="1039" on="1"/>
        <pt x="67" y="1147" on="0"/>
        <pt x="-8" y="1146" on="1"/>
        <pt x="-8" y="1190" on="1"/>
        <pt x="380" y="1190" on="1"/>
        <pt x="380" y="1146" on="1"/>
        <pt x="298" y="1129" on="1"/>
        <pt x="270" y="1119" on="0"/>
        <pt x="269" y="1104" on="1"/>
        <pt x="269" y="1085" on="0"/>
        <pt x="586" y="609" on="0"/>
        <pt x="595" y="593" on="1"/>
        <pt x="630" y="651" on="1"/>
        <pt x="897" y="1088" on="0"/>
        <pt x="898" y="1118" on="1"/>
        <pt x="898" y="1144" on="0"/>
        <pt x="796" y="1146" on="1"/>
        <pt x="761" y="1146" on="1"/>
        <pt x="761" y="1190" on="1"/>
        <pt x="1148" y="1190" on="1"/>
        <pt x="1148" y="1146" on="1"/>
        <pt x="1146" y="1145" on="0"/>
        <pt x="1136" y="1145" on="1"/>
        <pt x="1037" y="1140" on="0"/>
        <pt x="996" y="1090" on="1"/>
        <pt x="909" y="984" on="0"/>
        <pt x="691" y="610" on="1"/>
        <pt x="647" y="534" on="0"/>
        <pt x="634" y="510" on="1"/>
        <pt x="634" y="152" on="1"/>
        <pt x="634" y="86" on="0"/>
        <pt x="658" y="60" on="0"/>
        <pt x="689" y="54" on="1"/>
        <pt x="756" y="41" on="1"/>
        <pt x="756" y="0" on="1"/>
        <pt x="367" y="0" on="1"/>
        <pt x="367" y="39" on="1"/>
        <pt x="425" y="51" on="1"/>
        <pt x="478" y="62" on="0"/>
        <pt x="499" y="124" on="0"/>
      </contour>
    </TTGlyph>
    <TTGlyph name="Yacute" xMin="-8" yMin="0" xMax="1148" yMax="1576">
      <component glyphName="acute" x="266" y="342" flags="0x4"/>
      <component glyphName="Y.alt1" x="0" y="0" flags="0x4"/>
    </TTGlyph>
    <TTGlyph name="Ydieresis" xMin="-10" yMin="0" xMax="1146" yMax="1525">
      <component glyphName="Y.alt1" x="-2" y="0" flags="0x4"/>
      <component glyphName="dieresis" x="139" y="386" flags="0x4"/>
    </TTGlyph>
    <TTGlyph name="Z" xMin="5" yMin="-235" xMax="1821" yMax="1190">
      <contour>
        <pt x="1112" y="1156" on="1"/>
        <pt x="321" y="208" on="1"/>
        <pt x="324" y="210" on="1"/>
        <pt x="699" y="24" on="0"/>
        <pt x="985" y="-55" on="1"/>
        <pt x="1271" y="-135" on="0"/>
        <pt x="1601" y="-135" on="0"/>
        <pt x="1757" y="-99" on="0"/>
        <pt x="1821" y="-78" on="1"/>
        <pt x="1821" y="-126" on="1"/>
        <pt x="1779" y="-174" on="0"/>
        <pt x="1535" y="-232" on="0"/>
        <pt x="1368" y="-233" on="1"/>
        <pt x="955" y="-235" on="0"/>
        <pt x="211" y="98" on="1"/>
        <pt x="204" y="92" on="1"/>
        <pt x="204" y="23" on="0"/>
        <pt x="188" y="-25" on="0"/>
        <pt x="165" y="-54" on="1"/>
        <pt x="143" y="-82" on="0"/>
        <pt x="77" y="-78" on="0"/>
        <pt x="57" y="-62" on="1"/>
        <pt x="5" y="-16" on="0"/>
        <pt x="68" y="60" on="1"/>
        <pt x="939" y="1126" on="1"/>
        <pt x="389" y="1126" on="1"/>
        <pt x="319" y="1126" on="0"/>
        <pt x="294" y="1069" on="1"/>
        <pt x="279" y="1034" on="0"/>
        <pt x="269" y="957" on="1"/>
        <pt x="217" y="957" on="1"/>
        <pt x="217" y="1190" on="1"/>
        <pt x="1117" y="1190" on="1"/>
      </contour>
    </TTGlyph>
    <TTGlyph name="Z.alt1" xMin="33" yMin="0" xMax="1050" yMax="1190">
      <contour>
        <pt x="812" y="62" on="1"/>
        <pt x="877" y="62" on="0"/>
        <pt x="877" y="310" on="1"/>
        <pt x="954" y="310" on="1"/>
        <pt x="950" y="0" on="1"/>
        <pt x="33" y="0" on="1"/>
        <pt x="33" y="78" on="1"/>
        <pt x="828" y="1128" on="1"/>
        <pt x="302" y="1128" on="1"/>
        <pt x="201" y="1127" on="0"/>
        <pt x="171" y="1060" on="1"/>
        <pt x="167" y="1050" on="0"/>
        <pt x="155" y="1014" on="0"/>
        <pt x="152" y="1007" on="1"/>
        <pt x="114" y="1007" on="1"/>
        <pt x="114" y="1190" on="1"/>
        <pt x="1050" y="1190" on="1"/>
        <pt x="199" y="62" on="1"/>
      </contour>
    </TTGlyph>
    <TTGlyph name="a" xMin="81" yMin="-33" xMax="797" yMax="826">
      <contour>
        <pt x="797" y="85" on="1"/>
        <pt x="795" y="80" on="0"/>
        <pt x="770" y="42" on="0"/>
        <pt x="731" y="0" on="0"/>
        <pt x="681" y="-33" on="0"/>
        <pt x="654" y="-33" on="1"/>
        <pt x="615" y="-33" on="0"/>
        <pt x="567" y="3" on="0"/>
        <pt x="539" y="57" on="0"/>
        <pt x="527" y="118" on="0"/>
        <pt x="525" y="142" on="1"/>
        <pt x="518" y="136" on="0"/>
        <pt x="480" y="80" on="0"/>
        <pt x="416" y="17" on="0"/>
        <pt x="323" y="-33" on="0"/>
        <pt x="262" y="-33" on="1"/>
        <pt x="232" y="-33" on="0"/>
        <pt x="167" y="-17" on="0"/>
        <pt x="115" y="22" on="0"/>
        <pt x="81" y="89" on="0"/>
        <pt x="81" y="139" on="1"/>
        <pt x="81" y="210" on="0"/>
        <pt x="175" y="304" on="0"/>
        <pt x="315" y="358" on="0"/>
        <pt x="432" y="383" on="0"/>
        <pt x="513" y="399" on="1"/>
        <pt x="513" y="566" on="1"/>
        <pt x="513" y="588" on="0"/>
        <pt x="510" y="655" on="0"/>
        <pt x="489" y="718" on="0"/>
        <pt x="442" y="763" on="0"/>
        <pt x="398" y="763" on="1"/>
        <pt x="344" y="763" on="0"/>
        <pt x="275" y="721" on="0"/>
        <pt x="243" y="687" on="0"/>
        <pt x="215" y="654" on="1"/>
        <pt x="181" y="650" on="0"/>
        <pt x="142" y="661" on="0"/>
        <pt x="117" y="684" on="0"/>
        <pt x="117" y="704" on="1"/>
        <pt x="117" y="733" on="0"/>
        <pt x="205" y="785" on="0"/>
        <pt x="346" y="826" on="0"/>
        <pt x="409" y="826" on="1"/>
        <pt x="466" y="826" on="0"/>
        <pt x="544" y="793" on="0"/>
        <pt x="594" y="736" on="0"/>
        <pt x="620" y="661" on="0"/>
        <pt x="631" y="577" on="0"/>
        <pt x="632" y="489" on="0"/>
        <pt x="632" y="448" on="1"/>
        <pt x="632" y="372" on="0"/>
        <pt x="628" y="228" on="0"/>
        <pt x="634" y="115" on="0"/>
        <pt x="659" y="46" on="0"/>
        <pt x="688" y="46" on="1"/>
        <pt x="725" y="46" on="0"/>
        <pt x="763" y="114" on="1"/>
      </contour>
      <contour>
        <pt x="513" y="333" on="1"/>
        <pt x="432" y="321" on="0"/>
        <pt x="317" y="291" on="0"/>
        <pt x="250" y="245" on="0"/>
        <pt x="215" y="188" on="0"/>
        <pt x="215" y="147" on="1"/>
        <pt x="215" y="47" on="0"/>
        <pt x="303" y="47" on="1"/>
        <pt x="335" y="47" on="0"/>
        <pt x="403" y="93" on="0"/>
        <pt x="461" y="158" on="0"/>
        <pt x="505" y="228" on="0"/>
        <pt x="513" y="251" on="1"/>
      </contour>
    </TTGlyph>
    <TTGlyph name="aacute" xMin="81" yMin="-33" xMax="797" yMax="1234">
      <component glyphName="a" x="0" y="0" flags="0x204"/>
      <component glyphName="acute" x="44" y="0" flags="0x4"/>
    </TTGlyph>
    <TTGlyph name="acircumflex" xMin="81" yMin="-33" xMax="797" yMax="1255">
      <component glyphName="a" x="0" y="0" flags="0x204"/>
      <component glyphName="circumflex" x="101" y="0" flags="0x4"/>
    </TTGlyph>
    <TTGlyph name="acute" xMin="217" yMin="944" xMax="509" yMax="1234">
      <contour>
        <pt x="217" y="965" on="1"/>
        <pt x="316" y="1009" on="0"/>
        <pt x="403" y="1160" on="0"/>
        <pt x="407" y="1234" on="1"/>
        <pt x="466" y="1234" on="0"/>
        <pt x="509" y="1187" on="0"/>
        <pt x="509" y="1155" on="1"/>
        <pt x="509" y="1099" on="0"/>
        <pt x="367" y="976" on="0"/>
        <pt x="217" y="944" on="1"/>
      </contour>
    </TTGlyph>
    <TTGlyph name="adieresis" xMin="81" yMin="-33" xMax="797" yMax="1139">
      <component glyphName="a" x="0" y="0" flags="0x204"/>
      <component glyphName="dieresis" x="-18" y="0" flags="0x4"/>
    </TTGlyph>
    <TTGlyph name="ae" xMin="81" yMin="-33" xMax="1143" yMax="826">
      <contour>
        <pt x="869" y="826" on="1"/>
        <pt x="937" y="826" on="0"/>
        <pt x="1028" y="790" on="0"/>
        <pt x="1085" y="734" on="0"/>
        <pt x="1114" y="666" on="0"/>
        <pt x="1125" y="604" on="0"/>
        <pt x="1121" y="543" on="1"/>
        <pt x="642" y="543" on="1"/>
        <pt x="636" y="510" on="0"/>
        <pt x="629" y="442" on="0"/>
        <pt x="629" y="409" on="1"/>
        <pt x="629" y="342" on="0"/>
        <pt x="660" y="223" on="0"/>
        <pt x="728" y="133" on="0"/>
        <pt x="838" y="80" on="0"/>
        <pt x="918" y="80" on="1"/>
        <pt x="1014" y="80" on="0"/>
        <pt x="1113" y="152" on="1"/>
        <pt x="1143" y="122" on="1"/>
        <pt x="1115" y="80" on="0"/>
        <pt x="962" y="-31" on="0"/>
        <pt x="844" y="-31" on="1"/>
        <pt x="772" y="-31" on="0"/>
        <pt x="653" y="30" on="0"/>
        <pt x="571" y="119" on="0"/>
        <pt x="546" y="183" on="1"/>
        <pt x="524" y="143" on="0"/>
        <pt x="468" y="65" on="0"/>
        <pt x="399" y="4" on="0"/>
        <pt x="314" y="-33" on="0"/>
        <pt x="262" y="-33" on="1"/>
        <pt x="232" y="-33" on="0"/>
        <pt x="167" y="-17" on="0"/>
        <pt x="115" y="22" on="0"/>
        <pt x="81" y="89" on="0"/>
        <pt x="81" y="139" on="1"/>
        <pt x="81" y="210" on="0"/>
        <pt x="175" y="304" on="0"/>
        <pt x="315" y="358" on="0"/>
        <pt x="432" y="383" on="0"/>
        <pt x="513" y="399" on="1"/>
        <pt x="513" y="566" on="1"/>
        <pt x="513" y="588" on="0"/>
        <pt x="510" y="655" on="0"/>
        <pt x="489" y="718" on="0"/>
        <pt x="442" y="763" on="0"/>
        <pt x="398" y="763" on="1"/>
        <pt x="344" y="763" on="0"/>
        <pt x="275" y="721" on="0"/>
        <pt x="243" y="687" on="0"/>
        <pt x="215" y="654" on="1"/>
        <pt x="181" y="650" on="0"/>
        <pt x="141" y="662" on="0"/>
        <pt x="117" y="684" on="0"/>
        <pt x="117" y="704" on="1"/>
        <pt x="117" y="733" on="0"/>
        <pt x="205" y="785" on="0"/>
        <pt x="346" y="826" on="0"/>
        <pt x="409" y="826" on="1"/>
        <pt x="466" y="826" on="0"/>
        <pt x="544" y="793" on="0"/>
        <pt x="594" y="736" on="0"/>
        <pt x="605" y="685" on="1"/>
        <pt x="632" y="721" on="0"/>
        <pt x="696" y="774" on="0"/>
        <pt x="765" y="809" on="0"/>
        <pt x="836" y="826" on="0"/>
      </contour>
      <contour>
        <pt x="513" y="333" on="1"/>
        <pt x="432" y="321" on="0"/>
        <pt x="317" y="291" on="0"/>
        <pt x="250" y="245" on="0"/>
        <pt x="215" y="188" on="0"/>
        <pt x="215" y="147" on="1"/>
        <pt x="215" y="47" on="0"/>
        <pt x="303" y="47" on="1"/>
        <pt x="335" y="47" on="0"/>
        <pt x="403" y="93" on="0"/>
        <pt x="461" y="158" on="0"/>
        <pt x="505" y="228" on="0"/>
        <pt x="513" y="251" on="1"/>
      </contour>
      <contour>
        <pt x="653" y="608" on="1"/>
        <pt x="993" y="608" on="1"/>
        <pt x="993" y="687" on="0"/>
        <pt x="921" y="764" on="0"/>
        <pt x="865" y="764" on="1"/>
        <pt x="778" y="764" on="0"/>
        <pt x="668" y="661" on="0"/>
      </contour>
    </TTGlyph>
    <TTGlyph name="agrave" xMin="81" yMin="-33" xMax="797" yMax="1236">
      <component glyphName="a" x="0" y="0" flags="0x204"/>
      <component glyphName="grave" x="15" y="0" flags="0x4"/>
    </TTGlyph>
    <TTGlyph name="ampersand" xMin="119" yMin="-33" xMax="1278" yMax="1224">
      <contour>
        <pt x="1172" y="691" on="1"/>
        <pt x="1172" y="678" on="0"/>
        <pt x="1049" y="403" on="0"/>
        <pt x="947" y="267" on="1"/>
        <pt x="1047" y="163" on="1"/>
        <pt x="1153" y="51" on="0"/>
        <pt x="1193" y="26" on="0"/>
        <pt x="1200" y="24" on="1"/>
        <pt x="1268" y="10" on="1"/>
        <pt x="1268" y="-33" on="1"/>
        <pt x="879" y="-33" on="1"/>
        <pt x="879" y="8" on="1"/>
        <pt x="937" y="20" on="1"/>
        <pt x="1010" y="30" on="0"/>
        <pt x="873" y="177" on="1"/>
        <pt x="679" y="-30" on="0"/>
        <pt x="463" y="-31" on="1"/>
        <pt x="348" y="-31" on="0"/>
        <pt x="251" y="38" on="1"/>
        <pt x="121" y="135" on="0"/>
        <pt x="119" y="297" on="1"/>
        <pt x="119" y="480" on="0"/>
        <pt x="362" y="600" on="1"/>
        <pt x="375" y="606" on="0"/>
        <pt x="378" y="608" on="1"/>
        <pt x="264" y="706" on="0"/>
        <pt x="181" y="839" on="0"/>
        <pt x="181" y="923" on="1"/>
        <pt x="181" y="1068" on="0"/>
        <pt x="295" y="1156" on="1"/>
        <pt x="384" y="1224" on="0"/>
        <pt x="489" y="1224" on="1"/>
        <pt x="659" y="1224" on="0"/>
        <pt x="752" y="1133" on="1"/>
        <pt x="830" y="1055" on="0"/>
        <pt x="830" y="788" on="0"/>
        <pt x="680" y="691" on="1"/>
        <pt x="623" y="654" on="0"/>
        <pt x="567" y="637" on="1"/>
        <pt x="816" y="392" on="1"/>
        <pt x="885" y="327" on="1"/>
        <pt x="1001" y="485" on="0"/>
        <pt x="1079" y="666" on="1"/>
        <pt x="1089" y="691" on="1"/>
        <pt x="1012" y="709" on="1"/>
        <pt x="1012" y="756" on="1"/>
        <pt x="1278" y="763" on="1"/>
        <pt x="1278" y="716" on="1"/>
      </contour>
      <contour>
        <pt x="437" y="557" on="1"/>
        <pt x="350" y="480" on="0"/>
        <pt x="261" y="346" on="0"/>
        <pt x="261" y="183" on="0"/>
        <pt x="384" y="50" on="0"/>
        <pt x="478" y="49" on="1"/>
        <pt x="645" y="50" on="0"/>
        <pt x="813" y="239" on="1"/>
        <pt x="664" y="385" on="0"/>
        <pt x="480" y="525" on="1"/>
        <pt x="452" y="547" on="0"/>
      </contour>
      <contour>
        <pt x="318" y="958" on="1"/>
        <pt x="318" y="824" on="0"/>
        <pt x="509" y="693" on="1"/>
        <pt x="595" y="748" on="0"/>
        <pt x="686" y="889" on="0"/>
        <pt x="686" y="950" on="1"/>
        <pt x="686" y="1069" on="0"/>
        <pt x="598" y="1120" on="1"/>
        <pt x="551" y="1146" on="0"/>
        <pt x="412" y="1146" on="0"/>
        <pt x="318" y="1035" on="0"/>
      </contour>
    </TTGlyph>
    <TTGlyph name="aring" xMin="81" yMin="-33" xMax="797" yMax="1169">
      <component glyphName="a" x="0" y="0" flags="0x204"/>
      <component glyphName="ring" x="-131" y="0" flags="0x4"/>
    </TTGlyph>
    <TTGlyph name="asciicircum" xMin="54" yMin="572" xMax="760" yMax="1143">
      <contour>
        <pt x="421" y="1143" on="1"/>
        <pt x="760" y="572" on="1"/>
        <pt x="686" y="572" on="1"/>
        <pt x="407" y="1038" on="1"/>
        <pt x="129" y="572" on="1"/>
        <pt x="54" y="572" on="1"/>
        <pt x="398" y="1143" on="1"/>
      </contour>
    </TTGlyph>
    <TTGlyph name="asciitilde" xMin="169" yMin="476" xMax="825" yMax="631">
      <contour>
        <pt x="737" y="548" on="1"/>
        <pt x="794" y="548" on="0"/>
        <pt x="802" y="631" on="1"/>
        <pt x="822" y="631" on="1"/>
        <pt x="825" y="588" on="1"/>
        <pt x="824" y="477" on="0"/>
        <pt x="733" y="476" on="1"/>
        <pt x="703" y="476" on="0"/>
        <pt x="280" y="569" on="0"/>
        <pt x="259" y="569" on="1"/>
        <pt x="203" y="569" on="0"/>
        <pt x="200" y="482" on="1"/>
        <pt x="200" y="476" on="1"/>
        <pt x="176" y="476" on="1"/>
        <pt x="176" y="485" on="1"/>
        <pt x="169" y="629" on="0"/>
        <pt x="267" y="631" on="1"/>
        <pt x="305" y="631" on="0"/>
        <pt x="713" y="548" on="0"/>
      </contour>
    </TTGlyph>
    <TTGlyph name="asterisk" xMin="42" yMin="647" xMax="699" yMax="1262">
      <contour>
        <pt x="391" y="1262" on="1"/>
        <pt x="435" y="1019" on="1"/>
        <pt x="686" y="1073" on="1"/>
        <pt x="699" y="1032" on="1"/>
        <pt x="469" y="903" on="1"/>
        <pt x="582" y="670" on="1"/>
        <pt x="543" y="647" on="1"/>
        <pt x="372" y="828" on="1"/>
        <pt x="191" y="647" on="1"/>
        <pt x="152" y="670" on="1"/>
        <pt x="275" y="903" on="1"/>
        <pt x="42" y="1032" on="1"/>
        <pt x="54" y="1073" on="1"/>
        <pt x="306" y="1019" on="1"/>
        <pt x="352" y="1262" on="1"/>
      </contour>
    </TTGlyph>
    <TTGlyph name="at" xMin="64" yMin="-302" xMax="1379" yMax="947">
      <contour>
        <pt x="761" y="-235" on="1"/>
        <pt x="984" y="-235" on="0"/>
        <pt x="1185" y="-88" on="1"/>
        <pt x="1226" y="-142" on="1"/>
        <pt x="1013" y="-302" on="0"/>
        <pt x="485" y="-302" on="0"/>
        <pt x="65" y="-10" on="0"/>
        <pt x="64" y="576" on="0"/>
        <pt x="466" y="947" on="0"/>
        <pt x="1078" y="947" on="0"/>
        <pt x="1379" y="647" on="0"/>
        <pt x="1379" y="231" on="0"/>
        <pt x="1148" y="-26" on="0"/>
        <pt x="1017" y="-26" on="1"/>
        <pt x="968" y="-26" on="0"/>
        <pt x="865" y="44" on="0"/>
        <pt x="875" y="126" on="1"/>
        <pt x="870" y="126" on="1"/>
        <pt x="825" y="37" on="0"/>
        <pt x="708" y="-26" on="0"/>
        <pt x="644" y="-26" on="1"/>
        <pt x="531" y="-26" on="0"/>
        <pt x="419" y="110" on="0"/>
        <pt x="419" y="214" on="1"/>
        <pt x="419" y="393" on="0"/>
        <pt x="649" y="612" on="0"/>
        <pt x="766" y="613" on="1"/>
        <pt x="954" y="611" on="0"/>
        <pt x="955" y="487" on="1"/>
        <pt x="958" y="487" on="1"/>
        <pt x="1001" y="595" on="1"/>
        <pt x="1118" y="595" on="1"/>
        <pt x="1071" y="461" on="1"/>
        <pt x="999" y="259" on="0"/>
        <pt x="983" y="196" on="1"/>
        <pt x="954" y="109" on="0"/>
        <pt x="988" y="69" on="1"/>
        <pt x="1008" y="47" on="0"/>
        <pt x="1045" y="46" on="1"/>
        <pt x="1120" y="46" on="0"/>
        <pt x="1311" y="255" on="0"/>
        <pt x="1312" y="613" on="0"/>
        <pt x="1046" y="882" on="0"/>
        <pt x="559" y="882" on="0"/>
        <pt x="191" y="528" on="0"/>
        <pt x="191" y="275" on="1"/>
        <pt x="191" y="78" on="0"/>
        <pt x="501" y="-235" on="0"/>
      </contour>
      <contour>
        <pt x="554" y="195" on="1"/>
        <pt x="554" y="111" on="0"/>
        <pt x="624" y="42" on="0"/>
        <pt x="676" y="42" on="1"/>
        <pt x="767" y="42" on="0"/>
        <pt x="827" y="169" on="1"/>
        <pt x="896" y="315" on="0"/>
        <pt x="896" y="437" on="1"/>
        <pt x="896" y="536" on="0"/>
        <pt x="813" y="536" on="1"/>
        <pt x="719" y="536" on="0"/>
        <pt x="554" y="319" on="0"/>
      </contour>
    </TTGlyph>
    <TTGlyph name="atilde" xMin="81" yMin="-33" xMax="797" yMax="1125">
      <component glyphName="a" x="0" y="0" flags="0x204"/>
      <component glyphName="tilde" x="23" y="-19" flags="0x4"/>
    </TTGlyph>
    <TTGlyph name="b" xMin="72" yMin="-33" xMax="896" yMax="1379">
      <contour>
        <pt x="318" y="1379" on="1"/>
        <pt x="318" y="750" on="1"/>
        <pt x="418" y="823" on="0"/>
        <pt x="555" y="823" on="1"/>
        <pt x="693" y="823" on="0"/>
        <pt x="896" y="612" on="0"/>
        <pt x="896" y="217" on="0"/>
        <pt x="781" y="96" on="1"/>
        <pt x="658" y="-33" on="0"/>
        <pt x="492" y="-33" on="1"/>
        <pt x="422" y="-33" on="0"/>
        <pt x="273" y="3" on="0"/>
        <pt x="234" y="21" on="1"/>
        <pt x="195" y="39" on="1"/>
        <pt x="195" y="1164" on="1"/>
        <pt x="195" y="1233" on="0"/>
        <pt x="189" y="1248" on="1"/>
        <pt x="175" y="1283" on="0"/>
        <pt x="77" y="1283" on="1"/>
        <pt x="72" y="1317" on="1"/>
      </contour>
      <contour>
        <pt x="318" y="93" on="1"/>
        <pt x="399" y="44" on="0"/>
        <pt x="489" y="44" on="1"/>
        <pt x="594" y="44" on="0"/>
        <pt x="774" y="198" on="0"/>
        <pt x="774" y="373" on="1"/>
        <pt x="774" y="601" on="0"/>
        <pt x="629" y="689" on="1"/>
        <pt x="562" y="729" on="0"/>
        <pt x="486" y="729" on="1"/>
        <pt x="398" y="730" on="0"/>
        <pt x="318" y="665" on="1"/>
      </contour>
    </TTGlyph>
    <TTGlyph name="backslash" xMin="176" yMin="-75" xMax="994" yMax="1198">
      <contour>
        <pt x="176" y="1198" on="1"/>
        <pt x="284" y="1198" on="1"/>
        <pt x="994" y="-75" on="1"/>
        <pt x="887" y="-75" on="1"/>
      </contour>
    </TTGlyph>
    <TTGlyph name="bar" xMin="171" yMin="-458" xMax="259" yMax="1372">
      <contour>
        <pt x="171" y="1372" on="1"/>
        <pt x="259" y="1372" on="1"/>
        <pt x="259" y="-458" on="1"/>
        <pt x="171" y="-458" on="1"/>
      </contour>
    </TTGlyph>
    <TTGlyph name="braceleft" xMin="181" yMin="-391" xMax="691" yMax="1222">
      <contour>
        <pt x="691" y="1157" on="1"/>
        <pt x="619" y="1157" on="0"/>
        <pt x="528" y="1128" on="0"/>
        <pt x="474" y="1070" on="0"/>
        <pt x="453" y="984" on="0"/>
        <pt x="447" y="869" on="0"/>
        <pt x="452" y="726" on="0"/>
        <pt x="452" y="641" on="1"/>
        <pt x="452" y="590" on="0"/>
        <pt x="425" y="517" on="0"/>
        <pt x="383" y="468" on="0"/>
        <pt x="333" y="438" on="0"/>
        <pt x="288" y="422" on="0"/>
        <pt x="254" y="415" on="0"/>
        <pt x="249" y="414" on="1"/>
        <pt x="254" y="413" on="0"/>
        <pt x="288" y="407" on="0"/>
        <pt x="333" y="391" on="0"/>
        <pt x="383" y="362" on="0"/>
        <pt x="425" y="314" on="0"/>
        <pt x="452" y="242" on="0"/>
        <pt x="452" y="191" on="1"/>
        <pt x="452" y="109" on="0"/>
        <pt x="447" y="-31" on="0"/>
        <pt x="453" y="-146" on="0"/>
        <pt x="474" y="-235" on="0"/>
        <pt x="528" y="-295" on="0"/>
        <pt x="619" y="-326" on="0"/>
        <pt x="691" y="-326" on="1"/>
        <pt x="691" y="-391" on="1"/>
        <pt x="616" y="-391" on="0"/>
        <pt x="483" y="-382" on="0"/>
        <pt x="383" y="-332" on="0"/>
        <pt x="324" y="-225" on="0"/>
        <pt x="324" y="-127" on="1"/>
        <pt x="324" y="243" on="1"/>
        <pt x="324" y="290" on="0"/>
        <pt x="287" y="346" on="0"/>
        <pt x="238" y="376" on="0"/>
        <pt x="191" y="385" on="0"/>
        <pt x="181" y="385" on="1"/>
        <pt x="181" y="447" on="1"/>
        <pt x="191" y="447" on="0"/>
        <pt x="238" y="456" on="0"/>
        <pt x="287" y="485" on="0"/>
        <pt x="324" y="541" on="0"/>
        <pt x="324" y="588" on="1"/>
        <pt x="324" y="958" on="1"/>
        <pt x="324" y="1054" on="0"/>
        <pt x="383" y="1161" on="0"/>
        <pt x="483" y="1212" on="0"/>
        <pt x="616" y="1222" on="0"/>
        <pt x="691" y="1222" on="1"/>
      </contour>
    </TTGlyph>
    <TTGlyph name="braceright" xMin="181" yMin="-391" xMax="691" yMax="1222">
      <contour>
        <pt x="181" y="-326" on="1"/>
        <pt x="253" y="-326" on="0"/>
        <pt x="344" y="-297" on="0"/>
        <pt x="398" y="-239" on="0"/>
        <pt x="419" y="-153" on="0"/>
        <pt x="425" y="-38" on="0"/>
        <pt x="420" y="105" on="0"/>
        <pt x="420" y="190" on="1"/>
        <pt x="420" y="241" on="0"/>
        <pt x="447" y="314" on="0"/>
        <pt x="489" y="363" on="0"/>
        <pt x="539" y="393" on="0"/>
        <pt x="584" y="409" on="0"/>
        <pt x="618" y="416" on="0"/>
        <pt x="623" y="417" on="1"/>
        <pt x="618" y="418" on="0"/>
        <pt x="584" y="424" on="0"/>
        <pt x="539" y="440" on="0"/>
        <pt x="489" y="469" on="0"/>
        <pt x="447" y="517" on="0"/>
        <pt x="420" y="589" on="0"/>
        <pt x="420" y="640" on="1"/>
        <pt x="420" y="722" on="0"/>
        <pt x="425" y="862" on="0"/>
        <pt x="419" y="977" on="0"/>
        <pt x="398" y="1066" on="0"/>
        <pt x="344" y="1126" on="0"/>
        <pt x="253" y="1157" on="0"/>
        <pt x="181" y="1157" on="1"/>
        <pt x="181" y="1222" on="1"/>
        <pt x="256" y="1222" on="0"/>
        <pt x="389" y="1213" on="0"/>
        <pt x="489" y="1163" on="0"/>
        <pt x="548" y="1056" on="0"/>
        <pt x="548" y="958" on="1"/>
        <pt x="548" y="588" on="1"/>
        <pt x="548" y="541" on="0"/>
        <pt x="585" y="485" on="0"/>
        <pt x="634" y="455" on="0"/>
        <pt x="681" y="446" on="0"/>
        <pt x="691" y="446" on="1"/>
        <pt x="691" y="384" on="1"/>
        <pt x="681" y="384" on="0"/>
        <pt x="634" y="375" on="0"/>
        <pt x="585" y="346" on="0"/>
        <pt x="548" y="290" on="0"/>
        <pt x="548" y="243" on="1"/>
        <pt x="548" y="-127" on="1"/>
        <pt x="548" y="-223" on="0"/>
        <pt x="489" y="-330" on="0"/>
        <pt x="389" y="-381" on="0"/>
        <pt x="256" y="-391" on="0"/>
        <pt x="181" y="-391" on="1"/>
      </contour>
    </TTGlyph>
    <TTGlyph name="bracketleft" xMin="191" yMin="-173" xMax="523" yMax="1224">
      <contour>
        <pt x="523" y="-132" on="1"/>
        <pt x="522" y="-173" on="1"/>
        <pt x="191" y="-173" on="1"/>
        <pt x="191" y="1224" on="1"/>
        <pt x="522" y="1224" on="1"/>
        <pt x="523" y="1183" on="1"/>
        <pt x="302" y="1151" on="1"/>
        <pt x="302" y="-99" on="1"/>
      </contour>
    </TTGlyph>
    <TTGlyph name="bracketright" xMin="191" yMin="-173" xMax="523" yMax="1224">
      <contour>
        <pt x="191" y="1183" on="1"/>
        <pt x="192" y="1224" on="1"/>
        <pt x="523" y="1224" on="1"/>
        <pt x="523" y="-173" on="1"/>
        <pt x="192" y="-173" on="1"/>
        <pt x="191" y="-132" on="1"/>
        <pt x="412" y="-99" on="1"/>
        <pt x="412" y="1151" on="1"/>
      </contour>
    </TTGlyph>
    <TTGlyph name="breve" xMin="218" yMin="936" xMax="608" yMax="1112">
      <contour>
        <pt x="218" y="1112" on="1"/>
        <pt x="254" y="1112" on="1"/>
        <pt x="259" y="1076" on="0"/>
        <pt x="333" y="1009" on="0"/>
        <pt x="417" y="1009" on="1"/>
        <pt x="504" y="1009" on="0"/>
        <pt x="564" y="1084" on="0"/>
        <pt x="569" y="1112" on="1"/>
        <pt x="608" y="1112" on="1"/>
        <pt x="597" y="1021" on="0"/>
        <pt x="487" y="937" on="0"/>
        <pt x="417" y="936" on="1"/>
        <pt x="341" y="936" on="0"/>
        <pt x="231" y="1017" on="0"/>
      </contour>
    </TTGlyph>
    <TTGlyph name="brokenbar" xMin="214" yMin="-363" xMax="287" yMax="1312">
      <contour>
        <pt x="214" y="615" on="1"/>
        <pt x="214" y="1312" on="1"/>
        <pt x="287" y="1312" on="1"/>
        <pt x="287" y="615" on="1"/>
      </contour>
      <contour>
        <pt x="214" y="-363" on="1"/>
        <pt x="214" y="334" on="1"/>
        <pt x="287" y="334" on="1"/>
        <pt x="287" y="-363" on="1"/>
      </contour>
    </TTGlyph>
    <TTGlyph name="bullet" xMin="217" yMin="320" xMax="594" yMax="698">
      <contour>
        <pt x="217" y="509" on="1"/>
        <pt x="217" y="547" on="0"/>
        <pt x="246" y="617" on="0"/>
        <pt x="296" y="669" on="0"/>
        <pt x="365" y="698" on="0"/>
        <pt x="406" y="698" on="1"/>
        <pt x="444" y="698" on="0"/>
        <pt x="513" y="669" on="0"/>
        <pt x="565" y="618" on="0"/>
        <pt x="594" y="549" on="0"/>
        <pt x="594" y="509" on="1"/>
        <pt x="594" y="469" on="0"/>
        <pt x="565" y="400" on="0"/>
        <pt x="513" y="349" on="0"/>
        <pt x="444" y="320" on="0"/>
        <pt x="406" y="320" on="1"/>
        <pt x="365" y="320" on="0"/>
        <pt x="296" y="349" on="0"/>
        <pt x="246" y="400" on="0"/>
        <pt x="217" y="469" on="0"/>
      </contour>
    </TTGlyph>
    <TTGlyph name="c" xMin="57" yMin="-33" xMax="739" yMax="823">
      <contour>
        <pt x="240" y="637" on="1"/>
        <pt x="181" y="533" on="0"/>
        <pt x="181" y="252" on="0"/>
        <pt x="335" y="76" on="0"/>
        <pt x="573" y="75" on="0"/>
        <pt x="672" y="126" on="1"/>
        <pt x="704" y="91" on="1"/>
        <pt x="656" y="45" on="0"/>
        <pt x="631" y="28" on="1"/>
        <pt x="541" y="-32" on="0"/>
        <pt x="425" y="-33" on="1"/>
        <pt x="198" y="-33" on="0"/>
        <pt x="106" y="160" on="1"/>
        <pt x="57" y="262" on="0"/>
        <pt x="57" y="388" on="1"/>
        <pt x="57" y="599" on="0"/>
        <pt x="185" y="720" on="1"/>
        <pt x="294" y="823" on="0"/>
        <pt x="438" y="823" on="1"/>
        <pt x="584" y="823" on="0"/>
        <pt x="722" y="725" on="1"/>
        <pt x="739" y="714" on="0"/>
        <pt x="713" y="628" on="0"/>
        <pt x="672" y="611" on="1"/>
        <pt x="641" y="611" on="0"/>
        <pt x="576" y="704" on="0"/>
        <pt x="571" y="709" on="1"/>
        <pt x="522" y="763" on="0"/>
        <pt x="443" y="764" on="1"/>
        <pt x="313" y="764" on="0"/>
      </contour>
    </TTGlyph>
    <TTGlyph name="caron" xMin="39" yMin="883" xMax="486" yMax="1192">
      <contour>
        <pt x="486" y="1192" on="1"/>
        <pt x="290" y="883" on="1"/>
        <pt x="233" y="883" on="1"/>
        <pt x="39" y="1192" on="1"/>
        <pt x="62" y="1192" on="1"/>
        <pt x="141" y="1192" on="0"/>
        <pt x="256" y="980" on="1"/>
        <pt x="261" y="971" on="1"/>
        <pt x="265" y="979" on="1"/>
        <pt x="373" y="1190" on="0"/>
        <pt x="463" y="1192" on="1"/>
      </contour>
    </TTGlyph>
    <TTGlyph name="ccaron" xMin="57" yMin="-33" xMax="739" yMax="1192">
      <component glyphName="c" x="0" y="0" flags="0x204"/>
      <component glyphName="caron" x="119" y="0" flags="0x4"/>
    </TTGlyph>
    <TTGlyph name="ccedilla" xMin="57" yMin="-445" xMax="739" yMax="823">
      <contour>
        <pt x="328" y="-152" on="1"/>
        <pt x="378" y="-31" on="1"/>
        <pt x="188" y="-12" on="0"/>
        <pt x="106" y="160" on="1"/>
        <pt x="57" y="262" on="0"/>
        <pt x="57" y="388" on="1"/>
        <pt x="57" y="599" on="0"/>
        <pt x="185" y="720" on="1"/>
        <pt x="294" y="823" on="0"/>
        <pt x="438" y="823" on="1"/>
        <pt x="584" y="823" on="0"/>
        <pt x="722" y="725" on="1"/>
        <pt x="739" y="714" on="0"/>
        <pt x="713" y="628" on="0"/>
        <pt x="672" y="611" on="1"/>
        <pt x="641" y="611" on="0"/>
        <pt x="576" y="704" on="0"/>
        <pt x="571" y="709" on="1"/>
        <pt x="522" y="763" on="0"/>
        <pt x="443" y="764" on="1"/>
        <pt x="313" y="764" on="0"/>
        <pt x="240" y="637" on="1"/>
        <pt x="181" y="533" on="0"/>
        <pt x="181" y="252" on="0"/>
        <pt x="335" y="76" on="0"/>
        <pt x="573" y="75" on="0"/>
        <pt x="672" y="126" on="1"/>
        <pt x="704" y="91" on="1"/>
        <pt x="656" y="45" on="0"/>
        <pt x="631" y="28" on="1"/>
        <pt x="547" y="-27" on="0"/>
        <pt x="441" y="-32" on="1"/>
        <pt x="406" y="-117" on="1"/>
        <pt x="462" y="-115" on="0"/>
        <pt x="575" y="-201" on="0"/>
        <pt x="575" y="-362" on="0"/>
        <pt x="466" y="-445" on="0"/>
        <pt x="396" y="-445" on="1"/>
        <pt x="315" y="-445" on="0"/>
        <pt x="230" y="-365" on="0"/>
        <pt x="230" y="-315" on="1"/>
        <pt x="232" y="-276" on="0"/>
        <pt x="267" y="-275" on="1"/>
        <pt x="288" y="-275" on="0"/>
        <pt x="284" y="-341" on="0"/>
        <pt x="284" y="-346" on="1"/>
        <pt x="284" y="-370" on="0"/>
        <pt x="336" y="-396" on="0"/>
        <pt x="367" y="-396" on="1"/>
        <pt x="412" y="-396" on="0"/>
        <pt x="475" y="-335" on="0"/>
        <pt x="476" y="-267" on="1"/>
        <pt x="476" y="-152" on="0"/>
      </contour>
    </TTGlyph>
    <TTGlyph name="cedilla" xMin="251" yMin="-445" xMax="596" yMax="21">
      <contour>
        <pt x="349" y="-152" on="1"/>
        <pt x="421" y="21" on="1"/>
        <pt x="476" y="0" on="1"/>
        <pt x="427" y="-117" on="1"/>
        <pt x="483" y="-115" on="0"/>
        <pt x="596" y="-201" on="0"/>
        <pt x="596" y="-362" on="0"/>
        <pt x="487" y="-445" on="0"/>
        <pt x="417" y="-445" on="1"/>
        <pt x="336" y="-445" on="0"/>
        <pt x="251" y="-365" on="0"/>
        <pt x="251" y="-315" on="1"/>
        <pt x="253" y="-276" on="0"/>
        <pt x="288" y="-275" on="1"/>
        <pt x="309" y="-275" on="0"/>
        <pt x="305" y="-341" on="0"/>
        <pt x="305" y="-346" on="1"/>
        <pt x="305" y="-370" on="0"/>
        <pt x="357" y="-396" on="0"/>
        <pt x="388" y="-396" on="1"/>
        <pt x="433" y="-396" on="0"/>
        <pt x="496" y="-335" on="0"/>
        <pt x="497" y="-267" on="1"/>
        <pt x="497" y="-152" on="0"/>
      </contour>
    </TTGlyph>
    <TTGlyph name="cent" xMin="57" yMin="-176" xMax="739" yMax="1037">
      <contour>
        <pt x="487" y="75" on="1"/>
        <pt x="580" y="79" on="0"/>
        <pt x="672" y="126" on="1"/>
        <pt x="699" y="97" on="0"/>
        <pt x="704" y="91" on="1"/>
        <pt x="656" y="45" on="0"/>
        <pt x="565" y="-16" on="0"/>
        <pt x="487" y="-32" on="1"/>
        <pt x="487" y="-176" on="1"/>
        <pt x="399" y="-176" on="1"/>
        <pt x="399" y="-32" on="1"/>
        <pt x="186" y="-20" on="0"/>
        <pt x="101" y="171" on="1"/>
        <pt x="58" y="270" on="0"/>
        <pt x="57" y="388" on="1"/>
        <pt x="57" y="600" on="0"/>
        <pt x="185" y="721" on="1"/>
        <pt x="273" y="803" on="0"/>
        <pt x="399" y="819" on="1"/>
        <pt x="399" y="1037" on="1"/>
        <pt x="487" y="1037" on="1"/>
        <pt x="487" y="819" on="1"/>
        <pt x="598" y="812" on="0"/>
        <pt x="722" y="725" on="1"/>
        <pt x="739" y="714" on="0"/>
        <pt x="713" y="628" on="0"/>
        <pt x="672" y="611" on="1"/>
        <pt x="641" y="611" on="0"/>
        <pt x="576" y="704" on="0"/>
        <pt x="571" y="708" on="1"/>
        <pt x="535" y="748" on="0"/>
        <pt x="487" y="759" on="1"/>
      </contour>
      <contour>
        <pt x="225" y="605" on="1"/>
        <pt x="182" y="509" on="0"/>
        <pt x="181" y="251" on="0"/>
        <pt x="258" y="162" on="1"/>
        <pt x="316" y="97" on="0"/>
        <pt x="399" y="75" on="1"/>
        <pt x="399" y="759" on="1"/>
        <pt x="285" y="736" on="0"/>
      </contour>
    </TTGlyph>
    <TTGlyph name="circumflex" xMin="62" yMin="946" xMax="551" yMax="1255">
      <contour>
        <pt x="334" y="1255" on="1"/>
        <pt x="551" y="947" on="1"/>
        <pt x="528" y="947" on="1"/>
        <pt x="410" y="946" on="0"/>
        <pt x="320" y="1136" on="1"/>
        <pt x="306" y="1167" on="1"/>
        <pt x="292" y="1137" on="1"/>
        <pt x="205" y="948" on="0"/>
        <pt x="85" y="947" on="1"/>
        <pt x="62" y="947" on="1"/>
        <pt x="277" y="1255" on="1"/>
      </contour>
    </TTGlyph>
    <TTGlyph name="colon" xMin="91" yMin="-15" xMax="277" yMax="723">
      <contour>
        <pt x="91" y="629" on="1"/>
        <pt x="91" y="669" on="0"/>
        <pt x="144" y="723" on="0"/>
        <pt x="183" y="723" on="1"/>
        <pt x="222" y="723" on="0"/>
        <pt x="277" y="669" on="0"/>
        <pt x="277" y="629" on="1"/>
        <pt x="277" y="591" on="0"/>
        <pt x="222" y="538" on="0"/>
        <pt x="183" y="538" on="1"/>
        <pt x="144" y="538" on="0"/>
        <pt x="91" y="591" on="0"/>
      </contour>
      <contour>
        <pt x="91" y="76" on="1"/>
        <pt x="91" y="116" on="0"/>
        <pt x="144" y="170" on="0"/>
        <pt x="183" y="170" on="1"/>
        <pt x="222" y="170" on="0"/>
        <pt x="277" y="116" on="0"/>
        <pt x="277" y="76" on="1"/>
        <pt x="277" y="38" on="0"/>
        <pt x="222" y="-15" on="0"/>
        <pt x="183" y="-15" on="1"/>
        <pt x="144" y="-15" on="0"/>
        <pt x="91" y="38" on="0"/>
      </contour>
    </TTGlyph>
    <TTGlyph name="comma" xMin="86" yMin="-261" xMax="318" yMax="165">
      <contour>
        <pt x="116" y="-261" on="1"/>
        <pt x="86" y="-222" on="1"/>
        <pt x="180" y="-173" on="0"/>
        <pt x="236" y="-102" on="0"/>
        <pt x="236" y="-59" on="1"/>
        <pt x="236" y="-24" on="0"/>
        <pt x="206" y="1" on="0"/>
        <pt x="179" y="3" on="1"/>
        <pt x="94" y="12" on="0"/>
        <pt x="93" y="78" on="1"/>
        <pt x="93" y="115" on="0"/>
        <pt x="144" y="165" on="0"/>
        <pt x="189" y="165" on="1"/>
        <pt x="243" y="163" on="0"/>
        <pt x="317" y="78" on="0"/>
        <pt x="318" y="-8" on="1"/>
        <pt x="318" y="-100" on="0"/>
        <pt x="202" y="-230" on="0"/>
      </contour>
    </TTGlyph>
    <TTGlyph name="copyright" xMin="51" yMin="-168" xMax="1443" yMax="1226">
      <contour>
        <pt x="346" y="532" on="1"/>
        <pt x="346" y="726" on="0"/>
        <pt x="585" y="948" on="0"/>
        <pt x="915" y="948" on="0"/>
        <pt x="1026" y="868" on="1"/>
        <pt x="1045" y="852" on="1"/>
        <pt x="1045" y="694" on="1"/>
        <pt x="1011" y="694" on="1"/>
        <pt x="997" y="767" on="0"/>
        <pt x="861" y="888" on="0"/>
        <pt x="748" y="888" on="1"/>
        <pt x="609" y="888" on="0"/>
        <pt x="462" y="678" on="0"/>
        <pt x="461" y="522" on="1"/>
        <pt x="461" y="380" on="0"/>
        <pt x="615" y="154" on="0"/>
        <pt x="769" y="154" on="1"/>
        <pt x="924" y="154" on="0"/>
        <pt x="1026" y="318" on="1"/>
        <pt x="1043" y="348" on="1"/>
        <pt x="1076" y="332" on="1"/>
        <pt x="1018" y="206" on="0"/>
        <pt x="846" y="94" on="0"/>
        <pt x="745" y="94" on="1"/>
        <pt x="544" y="94" on="0"/>
        <pt x="346" y="358" on="0"/>
      </contour>
      <contour>
        <pt x="745" y="1226" on="1"/>
        <pt x="890" y="1226" on="0"/>
        <pt x="1144" y="1116" on="0"/>
        <pt x="1334" y="927" on="0"/>
        <pt x="1443" y="675" on="0"/>
        <pt x="1443" y="531" on="1"/>
        <pt x="1443" y="383" on="0"/>
        <pt x="1334" y="131" on="0"/>
        <pt x="1144" y="-58" on="0"/>
        <pt x="890" y="-168" on="0"/>
        <pt x="745" y="-168" on="1"/>
        <pt x="601" y="-168" on="0"/>
        <pt x="349" y="-58" on="0"/>
        <pt x="160" y="132" on="0"/>
        <pt x="51" y="386" on="0"/>
        <pt x="51" y="531" on="1"/>
        <pt x="51" y="672" on="0"/>
        <pt x="160" y="926" on="0"/>
        <pt x="349" y="1116" on="0"/>
        <pt x="601" y="1226" on="0"/>
      </contour>
      <contour>
        <pt x="747" y="1144" on="1"/>
        <pt x="619" y="1144" on="0"/>
        <pt x="395" y="1049" on="0"/>
        <pt x="228" y="881" on="0"/>
        <pt x="132" y="656" on="0"/>
        <pt x="132" y="530" on="1"/>
        <pt x="132" y="402" on="0"/>
        <pt x="228" y="177" on="0"/>
        <pt x="395" y="9" on="0"/>
        <pt x="619" y="-88" on="0"/>
        <pt x="747" y="-88" on="1"/>
        <pt x="874" y="-88" on="0"/>
        <pt x="1099" y="10" on="0"/>
        <pt x="1267" y="177" on="0"/>
        <pt x="1363" y="401" on="0"/>
        <pt x="1363" y="530" on="1"/>
        <pt x="1363" y="658" on="0"/>
        <pt x="1267" y="881" on="0"/>
        <pt x="1099" y="1048" on="0"/>
        <pt x="874" y="1144" on="0"/>
      </contour>
    </TTGlyph>
    <TTGlyph name="currency" xMin="52" yMin="247" xMax="828" yMax="1016">
      <contour>
        <pt x="116" y="631" on="1"/>
        <pt x="116" y="698" on="0"/>
        <pt x="158" y="795" on="0"/>
        <pt x="180" y="825" on="1"/>
        <pt x="53" y="955" on="1"/>
        <pt x="114" y="1016" on="1"/>
        <pt x="240" y="887" on="1"/>
        <pt x="274" y="914" on="0"/>
        <pt x="375" y="958" on="0"/>
        <pt x="443" y="958" on="1"/>
        <pt x="510" y="958" on="0"/>
        <pt x="609" y="915" on="0"/>
        <pt x="640" y="890" on="1"/>
        <pt x="766" y="1016" on="1"/>
        <pt x="827" y="955" on="1"/>
        <pt x="702" y="830" on="1"/>
        <pt x="727" y="797" on="0"/>
        <pt x="770" y="698" on="0"/>
        <pt x="770" y="631" on="1"/>
        <pt x="770" y="563" on="0"/>
        <pt x="726" y="463" on="0"/>
        <pt x="701" y="430" on="1"/>
        <pt x="828" y="305" on="1"/>
        <pt x="766" y="247" on="1"/>
        <pt x="639" y="370" on="1"/>
        <pt x="608" y="346" on="0"/>
        <pt x="510" y="304" on="0"/>
        <pt x="443" y="304" on="1"/>
        <pt x="375" y="304" on="0"/>
        <pt x="275" y="347" on="0"/>
        <pt x="242" y="372" on="1"/>
        <pt x="114" y="247" on="1"/>
        <pt x="52" y="305" on="1"/>
        <pt x="182" y="434" on="1"/>
        <pt x="158" y="465" on="0"/>
        <pt x="116" y="563" on="0"/>
      </contour>
      <contour>
        <pt x="199" y="634" on="1"/>
        <pt x="199" y="583" on="0"/>
        <pt x="237" y="494" on="0"/>
        <pt x="303" y="428" on="0"/>
        <pt x="392" y="390" on="0"/>
        <pt x="443" y="390" on="1"/>
        <pt x="494" y="390" on="0"/>
        <pt x="583" y="428" on="0"/>
        <pt x="649" y="494" on="0"/>
        <pt x="687" y="583" on="0"/>
        <pt x="687" y="634" on="1"/>
        <pt x="687" y="685" on="0"/>
        <pt x="649" y="774" on="0"/>
        <pt x="583" y="840" on="0"/>
        <pt x="494" y="878" on="0"/>
        <pt x="443" y="878" on="1"/>
        <pt x="392" y="878" on="0"/>
        <pt x="303" y="840" on="0"/>
        <pt x="237" y="774" on="0"/>
        <pt x="199" y="685" on="0"/>
      </contour>
    </TTGlyph>
    <TTGlyph name="d" xMin="57" yMin="-33" xMax="923" yMax="1377">
      <contour>
        <pt x="57" y="357" on="1"/>
        <pt x="57" y="642" on="0"/>
        <pt x="248" y="760" on="1"/>
        <pt x="351" y="823" on="0"/>
        <pt x="476" y="823" on="1"/>
        <pt x="550" y="823" on="0"/>
        <pt x="626" y="792" on="1"/>
        <pt x="650" y="782" on="1"/>
        <pt x="650" y="1162" on="1"/>
        <pt x="650" y="1231" on="0"/>
        <pt x="644" y="1246" on="1"/>
        <pt x="630" y="1281" on="0"/>
        <pt x="532" y="1281" on="1"/>
        <pt x="527" y="1315" on="1"/>
        <pt x="773" y="1377" on="1"/>
        <pt x="773" y="121" on="1"/>
        <pt x="773" y="53" on="0"/>
        <pt x="842" y="53" on="1"/>
        <pt x="847" y="53" on="0"/>
        <pt x="920" y="62" on="0"/>
        <pt x="923" y="62" on="1"/>
        <pt x="923" y="21" on="1"/>
        <pt x="691" y="-33" on="1"/>
        <pt x="655" y="68" on="1"/>
        <pt x="653" y="67" on="0"/>
        <pt x="645" y="60" on="1"/>
        <pt x="532" y="-33" on="0"/>
        <pt x="421" y="-33" on="1"/>
        <pt x="190" y="-33" on="0"/>
        <pt x="100" y="156" on="1"/>
        <pt x="57" y="248" on="0"/>
      </contour>
      <contour>
        <pt x="186" y="407" on="1"/>
        <pt x="186" y="199" on="0"/>
        <pt x="283" y="108" on="1"/>
        <pt x="346" y="50" on="0"/>
        <pt x="533" y="49" on="0"/>
        <pt x="591" y="102" on="1"/>
        <pt x="618" y="127" on="0"/>
        <pt x="647" y="166" on="1"/>
        <pt x="647" y="680" on="1"/>
        <pt x="624" y="727" on="0"/>
        <pt x="551" y="747" on="1"/>
        <pt x="517" y="756" on="0"/>
        <pt x="478" y="756" on="1"/>
        <pt x="325" y="756" on="0"/>
        <pt x="242" y="607" on="1"/>
        <pt x="188" y="507" on="0"/>
      </contour>
    </TTGlyph>
    <TTGlyph name="degree" xMin="80" yMin="711" xMax="569" yMax="1200">
      <contour>
        <pt x="326" y="1200" on="1"/>
        <pt x="376" y="1200" on="0"/>
        <pt x="465" y="1162" on="0"/>
        <pt x="531" y="1096" on="0"/>
        <pt x="569" y="1006" on="0"/>
        <pt x="569" y="955" on="1"/>
        <pt x="569" y="904" on="0"/>
        <pt x="531" y="815" on="0"/>
        <pt x="465" y="749" on="0"/>
        <pt x="376" y="711" on="0"/>
        <pt x="326" y="711" on="1"/>
        <pt x="275" y="711" on="0"/>
        <pt x="186" y="749" on="0"/>
        <pt x="119" y="815" on="0"/>
        <pt x="80" y="904" on="0"/>
        <pt x="80" y="955" on="1"/>
        <pt x="80" y="1006" on="0"/>
        <pt x="119" y="1096" on="0"/>
        <pt x="186" y="1162" on="0"/>
        <pt x="275" y="1200" on="0"/>
      </contour>
      <contour>
        <pt x="324" y="1133" on="1"/>
        <pt x="288" y="1133" on="0"/>
        <pt x="224" y="1106" on="0"/>
        <pt x="175" y="1058" on="0"/>
        <pt x="147" y="994" on="0"/>
        <pt x="147" y="957" on="1"/>
        <pt x="147" y="920" on="0"/>
        <pt x="175" y="855" on="0"/>
        <pt x="223" y="806" on="0"/>
        <pt x="288" y="778" on="0"/>
        <pt x="324" y="778" on="1"/>
        <pt x="361" y="778" on="0"/>
        <pt x="426" y="806" on="0"/>
        <pt x="474" y="855" on="0"/>
        <pt x="502" y="920" on="0"/>
        <pt x="502" y="957" on="1"/>
        <pt x="502" y="994" on="0"/>
        <pt x="474" y="1058" on="0"/>
        <pt x="425" y="1106" on="0"/>
        <pt x="360" y="1133" on="0"/>
      </contour>
    </TTGlyph>
    <TTGlyph name="dieresis" xMin="199" yMin="974" xMax="654" yMax="1139">
      <contour>
        <pt x="199" y="1055" on="1"/>
        <pt x="199" y="1090" on="0"/>
        <pt x="246" y="1139" on="0"/>
        <pt x="281" y="1139" on="1"/>
        <pt x="315" y="1139" on="0"/>
        <pt x="364" y="1090" on="0"/>
        <pt x="364" y="1055" on="1"/>
        <pt x="364" y="1021" on="0"/>
        <pt x="315" y="974" on="0"/>
        <pt x="281" y="974" on="1"/>
        <pt x="246" y="974" on="0"/>
        <pt x="199" y="1021" on="0"/>
      </contour>
      <contour>
        <pt x="489" y="1055" on="1"/>
        <pt x="489" y="1090" on="0"/>
        <pt x="536" y="1139" on="0"/>
        <pt x="571" y="1139" on="1"/>
        <pt x="605" y="1139" on="0"/>
        <pt x="654" y="1090" on="0"/>
        <pt x="654" y="1055" on="1"/>
        <pt x="654" y="1021" on="0"/>
        <pt x="605" y="974" on="0"/>
        <pt x="571" y="974" on="1"/>
        <pt x="536" y="974" on="0"/>
        <pt x="489" y="1021" on="0"/>
      </contour>
    </TTGlyph>
    <TTGlyph name="divide" xMin="90" yMin="150" xMax="725" yMax="766">
      <contour>
        <pt x="725" y="497" on="1"/>
        <pt x="725" y="417" on="1"/>
        <pt x="90" y="417" on="1"/>
        <pt x="90" y="497" on="1"/>
      </contour>
      <contour>
        <pt x="325" y="672" on="1"/>
        <pt x="325" y="712" on="0"/>
        <pt x="378" y="766" on="0"/>
        <pt x="417" y="766" on="1"/>
        <pt x="456" y="766" on="0"/>
        <pt x="511" y="712" on="0"/>
        <pt x="511" y="672" on="1"/>
        <pt x="511" y="634" on="0"/>
        <pt x="456" y="581" on="0"/>
        <pt x="417" y="581" on="1"/>
        <pt x="378" y="581" on="0"/>
        <pt x="325" y="634" on="0"/>
      </contour>
      <contour>
        <pt x="325" y="241" on="1"/>
        <pt x="325" y="281" on="0"/>
        <pt x="378" y="335" on="0"/>
        <pt x="417" y="335" on="1"/>
        <pt x="456" y="335" on="0"/>
        <pt x="511" y="281" on="0"/>
        <pt x="511" y="241" on="1"/>
        <pt x="511" y="203" on="0"/>
        <pt x="456" y="150" on="0"/>
        <pt x="417" y="150" on="1"/>
        <pt x="378" y="150" on="0"/>
        <pt x="325" y="203" on="0"/>
      </contour>
    </TTGlyph>
    <TTGlyph name="dollar" xMin="96" yMin="-215" xMax="789" yMax="1372">
      <contour>
        <pt x="399" y="1372" on="1"/>
        <pt x="466" y="1372" on="1"/>
        <pt x="466" y="1201" on="1"/>
        <pt x="468" y="1201" on="1"/>
        <pt x="617" y="1201" on="0"/>
        <pt x="753" y="1118" on="1"/>
        <pt x="751" y="895" on="1"/>
        <pt x="685" y="895" on="1"/>
        <pt x="670" y="1127" on="0"/>
        <pt x="466" y="1131" on="1"/>
        <pt x="466" y="685" on="1"/>
        <pt x="588" y="582" on="1"/>
        <pt x="685" y="499" on="0"/>
        <pt x="720" y="454" on="1"/>
        <pt x="788" y="366" on="0"/>
        <pt x="789" y="259" on="1"/>
        <pt x="789" y="126" on="0"/>
        <pt x="668" y="42" on="1"/>
        <pt x="582" y="-17" on="0"/>
        <pt x="466" y="-30" on="1"/>
        <pt x="466" y="-215" on="1"/>
        <pt x="399" y="-215" on="1"/>
        <pt x="399" y="-33" on="1"/>
        <pt x="258" y="-30" on="0"/>
        <pt x="116" y="46" on="1"/>
        <pt x="96" y="274" on="1"/>
        <pt x="156" y="275" on="1"/>
        <pt x="193" y="47" on="0"/>
        <pt x="399" y="39" on="1"/>
        <pt x="399" y="548" on="1"/>
        <pt x="308" y="621" on="1"/>
        <pt x="191" y="713" on="0"/>
        <pt x="156" y="812" on="1"/>
        <pt x="137" y="868" on="0"/>
        <pt x="137" y="934" on="1"/>
        <pt x="137" y="1061" on="0"/>
        <pt x="242" y="1136" on="1"/>
        <pt x="308" y="1182" on="0"/>
        <pt x="399" y="1196" on="1"/>
      </contour>
      <contour>
        <pt x="466" y="495" on="1"/>
        <pt x="466" y="42" on="1"/>
        <pt x="599" y="61" on="0"/>
        <pt x="644" y="166" on="1"/>
        <pt x="660" y="204" on="0"/>
        <pt x="660" y="243" on="1"/>
        <pt x="660" y="329" on="0"/>
        <pt x="546" y="429" on="1"/>
      </contour>
      <contour>
        <pt x="271" y="958" on="1"/>
        <pt x="271" y="865" on="0"/>
        <pt x="352" y="785" on="1"/>
        <pt x="399" y="742" on="1"/>
        <pt x="399" y="1122" on="1"/>
        <pt x="313" y="1099" on="0"/>
        <pt x="283" y="1022" on="1"/>
        <pt x="271" y="992" on="0"/>
      </contour>
    </TTGlyph>
    <TTGlyph name="dotaccent" xMin="292" yMin="923" xMax="478" yMax="1108">
      <contour>
        <pt x="292" y="1014" on="1"/>
        <pt x="292" y="1054" on="0"/>
        <pt x="345" y="1108" on="0"/>
        <pt x="384" y="1108" on="1"/>
        <pt x="423" y="1108" on="0"/>
        <pt x="478" y="1054" on="0"/>
        <pt x="478" y="1014" on="1"/>
        <pt x="478" y="976" on="0"/>
        <pt x="423" y="923" on="0"/>
        <pt x="384" y="923" on="1"/>
        <pt x="345" y="923" on="0"/>
        <pt x="292" y="976" on="0"/>
      </contour>
    </TTGlyph>
    <TTGlyph name="dotlessi" xMin="73" yMin="0" xMax="452" yMax="818">
      <contour>
        <pt x="319" y="209" on="1"/>
        <pt x="319" y="117" on="0"/>
        <pt x="345" y="62" on="0"/>
        <pt x="393" y="52" on="1"/>
        <pt x="452" y="41" on="1"/>
        <pt x="452" y="0" on="1"/>
        <pt x="73" y="0" on="1"/>
        <pt x="73" y="42" on="1"/>
        <pt x="142" y="57" on="1"/>
        <pt x="179" y="65" on="0"/>
        <pt x="188" y="80" on="1"/>
        <pt x="196" y="97" on="0"/>
        <pt x="196" y="153" on="1"/>
        <pt x="196" y="603" on="1"/>
        <pt x="196" y="672" on="0"/>
        <pt x="190" y="687" on="1"/>
        <pt x="176" y="722" on="0"/>
        <pt x="78" y="722" on="1"/>
        <pt x="76" y="730" on="0"/>
        <pt x="74" y="752" on="0"/>
        <pt x="73" y="756" on="1"/>
        <pt x="318" y="818" on="1"/>
        <pt x="319" y="818" on="1"/>
      </contour>
    </TTGlyph>
    <TTGlyph name="e" xMin="57" yMin="-31" xMax="686" yMax="826">
      <contour>
        <pt x="412" y="826" on="1"/>
        <pt x="604" y="826" on="0"/>
        <pt x="653" y="676" on="1"/>
        <pt x="675" y="608" on="0"/>
        <pt x="665" y="543" on="1"/>
        <pt x="186" y="543" on="1"/>
        <pt x="173" y="471" on="0"/>
        <pt x="173" y="409" on="1"/>
        <pt x="173" y="198" on="0"/>
        <pt x="299" y="121" on="1"/>
        <pt x="366" y="80" on="0"/>
        <pt x="460" y="80" on="1"/>
        <pt x="558" y="80" on="0"/>
        <pt x="657" y="152" on="1"/>
        <pt x="686" y="122" on="1"/>
        <pt x="658" y="89" on="1"/>
        <pt x="544" y="-30" on="0"/>
        <pt x="388" y="-31" on="1"/>
        <pt x="295" y="-31" on="0"/>
        <pt x="216" y="25" on="1"/>
        <pt x="57" y="138" on="0"/>
        <pt x="57" y="367" on="1"/>
        <pt x="57" y="609" on="0"/>
        <pt x="192" y="734" on="1"/>
        <pt x="294" y="823" on="0"/>
      </contour>
      <contour>
        <pt x="196" y="608" on="1"/>
        <pt x="536" y="608" on="1"/>
        <pt x="536" y="687" on="0"/>
        <pt x="464" y="764" on="0"/>
        <pt x="408" y="764" on="1"/>
        <pt x="321" y="764" on="0"/>
        <pt x="211" y="661" on="0"/>
      </contour>
    </TTGlyph>
    <TTGlyph name="eacute" xMin="57" yMin="-31" xMax="686" yMax="1234">
      <component glyphName="e" x="0" y="0" flags="0x204"/>
      <component glyphName="acute" x="12" y="0" flags="0x4"/>
    </TTGlyph>
    <TTGlyph name="ecircumflex" xMin="57" yMin="-31" xMax="686" yMax="1255">
      <component glyphName="e" x="0" y="0" flags="0x204"/>
      <component glyphName="circumflex" x="69" y="0" flags="0x4"/>
    </TTGlyph>
    <TTGlyph name="edieresis" xMin="57" yMin="-31" xMax="686" yMax="1139">
      <component glyphName="e" x="0" y="0" flags="0x204"/>
      <component glyphName="dieresis" x="-50" y="0" flags="0x4"/>
    </TTGlyph>
    <TTGlyph name="egrave" xMin="57" yMin="-31" xMax="686" yMax="1236">
      <component glyphName="e" x="0" y="0" flags="0x204"/>
      <component glyphName="grave" x="-15" y="0" flags="0x4"/>
    </TTGlyph>
    <TTGlyph name="eight" xMin="49" yMin="-29" xMax="760" yMax="1192">
      <contour>
        <pt x="393" y="-29" on="1"/>
        <pt x="266" y="-29" on="0"/>
        <pt x="49" y="129" on="0"/>
        <pt x="49" y="391" on="0"/>
        <pt x="182" y="532" on="0"/>
        <pt x="307" y="596" on="1"/>
        <pt x="197" y="688" on="0"/>
        <pt x="100" y="813" on="0"/>
        <pt x="100" y="901" on="1"/>
        <pt x="100" y="1034" on="0"/>
        <pt x="299" y="1192" on="0"/>
        <pt x="553" y="1192" on="0"/>
        <pt x="745" y="1057" on="0"/>
        <pt x="745" y="920" on="1"/>
        <pt x="745" y="729" on="0"/>
        <pt x="500" y="623" on="1"/>
        <pt x="594" y="555" on="0"/>
        <pt x="666" y="487" on="0"/>
        <pt x="700" y="446" on="1"/>
        <pt x="760" y="377" on="0"/>
        <pt x="760" y="150" on="0"/>
        <pt x="567" y="-29" on="0"/>
      </contour>
      <contour>
        <pt x="616" y="254" on="1"/>
        <pt x="616" y="301" on="0"/>
        <pt x="565" y="395" on="0"/>
        <pt x="463" y="481" on="0"/>
        <pt x="414" y="516" on="0"/>
        <pt x="367" y="547" on="1"/>
        <pt x="260" y="451" on="0"/>
        <pt x="225" y="389" on="1"/>
        <pt x="190" y="328" on="0"/>
        <pt x="190" y="262" on="1"/>
        <pt x="190" y="162" on="0"/>
        <pt x="305" y="43" on="0"/>
        <pt x="510" y="43" on="0"/>
        <pt x="616" y="174" on="0"/>
      </contour>
      <contour>
        <pt x="238" y="938" on="1"/>
        <pt x="238" y="809" on="0"/>
        <pt x="428" y="682" on="1"/>
        <pt x="502" y="717" on="0"/>
        <pt x="602" y="848" on="0"/>
        <pt x="602" y="930" on="1"/>
        <pt x="602" y="1022" on="0"/>
        <pt x="504" y="1128" on="0"/>
        <pt x="420" y="1128" on="1"/>
        <pt x="340" y="1128" on="0"/>
        <pt x="238" y="1030" on="0"/>
      </contour>
    </TTGlyph>
    <TTGlyph name="ellipsis" xMin="91" yMin="-15" xMax="1034" yMax="170">
      <contour>
        <pt x="848" y="76" on="1"/>
        <pt x="848" y="116" on="0"/>
        <pt x="901" y="170" on="0"/>
        <pt x="940" y="170" on="1"/>
        <pt x="979" y="170" on="0"/>
        <pt x="1034" y="116" on="0"/>
        <pt x="1034" y="76" on="1"/>
        <pt x="1034" y="38" on="0"/>
        <pt x="979" y="-15" on="0"/>
        <pt x="940" y="-15" on="1"/>
        <pt x="901" y="-15" on="0"/>
        <pt x="848" y="38" on="0"/>
      </contour>
      <contour>
        <pt x="468" y="76" on="1"/>
        <pt x="468" y="116" on="0"/>
        <pt x="521" y="170" on="0"/>
        <pt x="560" y="170" on="1"/>
        <pt x="599" y="170" on="0"/>
        <pt x="654" y="116" on="0"/>
        <pt x="654" y="76" on="1"/>
        <pt x="654" y="38" on="0"/>
        <pt x="599" y="-15" on="0"/>
        <pt x="560" y="-15" on="1"/>
        <pt x="521" y="-15" on="0"/>
        <pt x="468" y="38" on="0"/>
      </contour>
      <contour>
        <pt x="91" y="76" on="1"/>
        <pt x="91" y="116" on="0"/>
        <pt x="144" y="170" on="0"/>
        <pt x="183" y="170" on="1"/>
        <pt x="222" y="170" on="0"/>
        <pt x="277" y="116" on="0"/>
        <pt x="277" y="76" on="1"/>
        <pt x="277" y="38" on="0"/>
        <pt x="222" y="-15" on="0"/>
        <pt x="183" y="-15" on="1"/>
        <pt x="144" y="-15" on="0"/>
        <pt x="91" y="38" on="0"/>
      </contour>
    </TTGlyph>
    <TTGlyph name="emdash" xMin="90" yMin="417" xMax="2046" yMax="497">
      <contour>
        <pt x="2046" y="497" on="1"/>
        <pt x="2046" y="417" on="1"/>
        <pt x="90" y="417" on="1"/>
        <pt x="90" y="497" on="1"/>
      </contour>
    </TTGlyph>
    <TTGlyph name="endash" xMin="90" yMin="417" xMax="1079" yMax="497">
      <contour>
        <pt x="1079" y="497" on="1"/>
        <pt x="1079" y="417" on="1"/>
        <pt x="90" y="417" on="1"/>
        <pt x="90" y="497" on="1"/>
      </contour>
    </TTGlyph>
    <TTGlyph name="equal" xMin="99" yMin="333" xMax="727" yMax="657">
      <contour>
        <pt x="727" y="657" on="1"/>
        <pt x="727" y="577" on="1"/>
        <pt x="99" y="577" on="1"/>
        <pt x="99" y="657" on="1"/>
      </contour>
      <contour>
        <pt x="727" y="412" on="1"/>
        <pt x="727" y="333" on="1"/>
        <pt x="99" y="333" on="1"/>
        <pt x="99" y="412" on="1"/>
      </contour>
    </TTGlyph>
    <TTGlyph name="eth" xMin="57" yMin="-33" xMax="802" yMax="1227">
      <contour>
        <pt x="316" y="985" on="1"/>
        <pt x="385" y="1092" on="1"/>
        <pt x="340" y="1113" on="0"/>
        <pt x="298" y="1117" on="1"/>
        <pt x="298" y="1190" on="1"/>
        <pt x="362" y="1178" on="0"/>
        <pt x="423" y="1150" on="1"/>
        <pt x="473" y="1227" on="1"/>
        <pt x="496" y="1213" on="1"/>
        <pt x="449" y="1138" on="1"/>
        <pt x="613" y="1041" on="0"/>
        <pt x="745" y="804" on="0"/>
        <pt x="802" y="536" on="0"/>
        <pt x="770" y="205" on="0"/>
        <pt x="570" y="-32" on="0"/>
        <pt x="280" y="-33" on="0"/>
        <pt x="58" y="202" on="0"/>
        <pt x="57" y="565" on="0"/>
        <pt x="264" y="817" on="0"/>
        <pt x="422" y="818" on="1"/>
        <pt x="534" y="817" on="0"/>
        <pt x="627" y="747" on="1"/>
        <pt x="615" y="784" on="1"/>
        <pt x="535" y="999" on="0"/>
        <pt x="410" y="1078" on="1"/>
        <pt x="341" y="968" on="1"/>
      </contour>
      <contour>
        <pt x="399" y="751" on="1"/>
        <pt x="298" y="751" on="0"/>
        <pt x="179" y="558" on="0"/>
        <pt x="179" y="267" on="0"/>
        <pt x="322" y="34" on="0"/>
        <pt x="559" y="34" on="0"/>
        <pt x="619" y="152" on="1"/>
        <pt x="665" y="244" on="0"/>
        <pt x="665" y="488" on="0"/>
        <pt x="620" y="589" on="1"/>
        <pt x="546" y="750" on="0"/>
      </contour>
    </TTGlyph>
    <TTGlyph name="exclam" xMin="257" yMin="-15" xMax="443" yMax="1188">
      <contour>
        <pt x="326" y="267" on="1"/>
        <pt x="285" y="1109" on="1"/>
        <pt x="284" y="1145" on="0"/>
        <pt x="326" y="1188" on="0"/>
        <pt x="380" y="1188" on="0"/>
        <pt x="424" y="1145" on="0"/>
        <pt x="421" y="1108" on="1"/>
        <pt x="363" y="267" on="1"/>
      </contour>
      <contour>
        <pt x="257" y="76" on="1"/>
        <pt x="257" y="116" on="0"/>
        <pt x="310" y="170" on="0"/>
        <pt x="349" y="170" on="1"/>
        <pt x="388" y="170" on="0"/>
        <pt x="443" y="116" on="0"/>
        <pt x="443" y="76" on="1"/>
        <pt x="443" y="38" on="0"/>
        <pt x="388" y="-15" on="0"/>
        <pt x="349" y="-15" on="1"/>
        <pt x="310" y="-15" on="0"/>
        <pt x="257" y="38" on="0"/>
      </contour>
    </TTGlyph>
    <TTGlyph name="exclamdown" xMin="79" yMin="-456" xMax="265" yMax="757">
      <contour>
        <pt x="196" y="465" on="1"/>
        <pt x="237" y="-377" on="1"/>
        <pt x="238" y="-413" on="0"/>
        <pt x="196" y="-456" on="0"/>
        <pt x="142" y="-456" on="0"/>
        <pt x="98" y="-413" on="0"/>
        <pt x="101" y="-376" on="1"/>
        <pt x="159" y="465" on="1"/>
      </contour>
      <contour>
        <pt x="265" y="666" on="1"/>
        <pt x="265" y="626" on="0"/>
        <pt x="212" y="572" on="0"/>
        <pt x="173" y="572" on="1"/>
        <pt x="134" y="572" on="0"/>
        <pt x="79" y="626" on="0"/>
        <pt x="79" y="666" on="1"/>
        <pt x="79" y="704" on="0"/>
        <pt x="134" y="757" on="0"/>
        <pt x="173" y="757" on="1"/>
        <pt x="212" y="757" on="0"/>
        <pt x="265" y="704" on="0"/>
      </contour>
    </TTGlyph>
    <TTGlyph name="f" xMin="77" yMin="0" xMax="714" yMax="1379">
      <contour>
        <pt x="77" y="729" on="1"/>
        <pt x="77" y="778" on="1"/>
        <pt x="199" y="804" on="1"/>
        <pt x="199" y="988" on="1"/>
        <pt x="201" y="1378" on="0"/>
        <pt x="497" y="1379" on="1"/>
        <pt x="579" y="1379" on="0"/>
        <pt x="647" y="1353" on="1"/>
        <pt x="713" y="1325" on="0"/>
        <pt x="714" y="1230" on="0"/>
        <pt x="678" y="1216" on="1"/>
        <pt x="666" y="1212" on="0"/>
        <pt x="654" y="1211" on="1"/>
        <pt x="610" y="1212" on="0"/>
        <pt x="522" y="1325" on="0"/>
        <pt x="478" y="1325" on="1"/>
        <pt x="399" y="1325" on="0"/>
        <pt x="318" y="1218" on="0"/>
        <pt x="318" y="1097" on="1"/>
        <pt x="318" y="804" on="1"/>
        <pt x="530" y="804" on="1"/>
        <pt x="530" y="729" on="1"/>
        <pt x="318" y="729" on="1"/>
        <pt x="318" y="230" on="1"/>
        <pt x="318" y="137" on="0"/>
        <pt x="334" y="102" on="1"/>
        <pt x="353" y="61" on="0"/>
        <pt x="463" y="37" on="1"/>
        <pt x="463" y="0" on="1"/>
        <pt x="78" y="0" on="1"/>
        <pt x="78" y="37" on="1"/>
        <pt x="84" y="39" on="0"/>
        <pt x="119" y="48" on="1"/>
        <pt x="198" y="68" on="0"/>
        <pt x="199" y="165" on="1"/>
        <pt x="199" y="729" on="1"/>
      </contour>
    </TTGlyph>
    <TTGlyph name="five" xMin="103" yMin="-401" xMax="942" yMax="885">
      <contour>
        <pt x="479" y="-322" on="1"/>
        <pt x="628" y="-322" on="0"/>
        <pt x="786" y="-106" on="0"/>
        <pt x="786" y="33" on="1"/>
        <pt x="786" y="176" on="0"/>
        <pt x="618" y="356" on="0"/>
        <pt x="502" y="356" on="1"/>
        <pt x="388" y="356" on="0"/>
        <pt x="255" y="283" on="1"/>
        <pt x="227" y="268" on="0"/>
        <pt x="190" y="268" on="1"/>
        <pt x="190" y="805" on="1"/>
        <pt x="743" y="805" on="1"/>
        <pt x="802" y="813" on="0"/>
        <pt x="816" y="885" on="1"/>
        <pt x="855" y="885" on="1"/>
        <pt x="855" y="672" on="1"/>
        <pt x="272" y="672" on="1"/>
        <pt x="272" y="387" on="1"/>
        <pt x="378" y="444" on="0"/>
        <pt x="511" y="444" on="1"/>
        <pt x="685" y="444" on="0"/>
        <pt x="942" y="223" on="0"/>
        <pt x="942" y="41" on="1"/>
        <pt x="942" y="-150" on="0"/>
        <pt x="690" y="-401" on="0"/>
        <pt x="497" y="-401" on="1"/>
        <pt x="321" y="-401" on="0"/>
        <pt x="103" y="-207" on="0"/>
        <pt x="103" y="-28" on="1"/>
        <pt x="103" y="39" on="0"/>
        <pt x="151" y="111" on="0"/>
        <pt x="229" y="111" on="0"/>
        <pt x="266" y="72" on="0"/>
        <pt x="266" y="-2" on="0"/>
        <pt x="197" y="-41" on="0"/>
        <pt x="197" y="-82" on="1"/>
        <pt x="197" y="-169" on="0"/>
        <pt x="332" y="-322" on="0"/>
      </contour>
    </TTGlyph>
    <TTGlyph name="four" xMin="60" yMin="-400" xMax="881" yMax="806">
      <contour>
        <pt x="482" y="806" on="1"/>
        <pt x="552" y="806" on="1"/>
        <pt x="563" y="806" on="0"/>
        <pt x="565" y="785" on="0"/>
        <pt x="562" y="780" on="1"/>
        <pt x="195" y="99" on="1"/>
        <pt x="610" y="99" on="1"/>
        <pt x="610" y="104" on="0"/>
        <pt x="611" y="115" on="0"/>
        <pt x="611" y="121" on="1"/>
        <pt x="614" y="144" on="0"/>
        <pt x="597" y="182" on="0"/>
        <pt x="574" y="219" on="0"/>
        <pt x="553" y="259" on="0"/>
        <pt x="553" y="284" on="1"/>
        <pt x="553" y="308" on="0"/>
        <pt x="569" y="343" on="0"/>
        <pt x="595" y="366" on="0"/>
        <pt x="628" y="378" on="0"/>
        <pt x="645" y="378" on="1"/>
        <pt x="665" y="378" on="0"/>
        <pt x="704" y="362" on="0"/>
        <pt x="735" y="332" on="0"/>
        <pt x="754" y="290" on="0"/>
        <pt x="754" y="264" on="1"/>
        <pt x="754" y="235" on="0"/>
        <pt x="726" y="156" on="0"/>
        <pt x="698" y="99" on="1"/>
        <pt x="881" y="99" on="1"/>
        <pt x="881" y="0" on="1"/>
        <pt x="707" y="0" on="1"/>
        <pt x="707" y="-226" on="1"/>
        <pt x="707" y="-252" on="0"/>
        <pt x="710" y="-292" on="0"/>
        <pt x="724" y="-322" on="0"/>
        <pt x="753" y="-343" on="0"/>
        <pt x="780" y="-348" on="1"/>
        <pt x="839" y="-360" on="1"/>
        <pt x="839" y="-400" on="1"/>
        <pt x="449" y="-400" on="1"/>
        <pt x="449" y="-358" on="1"/>
        <pt x="518" y="-343" on="1"/>
        <pt x="536" y="-339" on="0"/>
        <pt x="557" y="-329" on="0"/>
        <pt x="568" y="-305" on="0"/>
        <pt x="571" y="-263" on="0"/>
        <pt x="571" y="-227" on="1"/>
        <pt x="571" y="0" on="1"/>
        <pt x="60" y="0" on="1"/>
        <pt x="60" y="39" on="1"/>
      </contour>
    </TTGlyph>
    <TTGlyph name="fourinferior" xMin="90" yMin="-2" xMax="562" yMax="654">
      <contour>
        <pt x="90" y="207" on="1"/>
        <pt x="242" y="472" on="0"/>
        <pt x="337" y="654" on="1"/>
        <pt x="393" y="654" on="1"/>
        <pt x="402" y="652" on="0"/>
        <pt x="399" y="641" on="1"/>
        <pt x="185" y="245" on="0"/>
        <pt x="183" y="241" on="1"/>
        <pt x="416" y="240" on="1"/>
        <pt x="416" y="253" on="1"/>
        <pt x="419" y="271" on="0"/>
        <pt x="385" y="325" on="0"/>
        <pt x="385" y="342" on="1"/>
        <pt x="385" y="384" on="0"/>
        <pt x="422" y="392" on="1"/>
        <pt x="428" y="394" on="0"/>
        <pt x="435" y="394" on="1"/>
        <pt x="471" y="394" on="0"/>
        <pt x="496" y="347" on="0"/>
        <pt x="495" y="304" on="0"/>
        <pt x="465" y="240" on="1"/>
        <pt x="480" y="240" on="1"/>
        <pt x="481" y="241" on="0"/>
        <pt x="482" y="241" on="1"/>
        <pt x="482" y="240" on="1"/>
        <pt x="562" y="240" on="1"/>
        <pt x="562" y="156" on="1"/>
        <pt x="482" y="156" on="1"/>
        <pt x="482" y="114" on="1"/>
        <pt x="482" y="57" on="0"/>
        <pt x="491" y="44" on="1"/>
        <pt x="501" y="32" on="0"/>
        <pt x="523" y="28" on="1"/>
        <pt x="556" y="21" on="1"/>
        <pt x="556" y="-2" on="1"/>
        <pt x="323" y="-2" on="1"/>
        <pt x="323" y="21" on="1"/>
        <pt x="362" y="29" on="1"/>
        <pt x="384" y="35" on="0"/>
        <pt x="391" y="56" on="0"/>
        <pt x="391" y="83" on="1"/>
        <pt x="391" y="156" on="1"/>
        <pt x="132" y="158" on="0"/>
        <pt x="90" y="158" on="1"/>
      </contour>
    </TTGlyph>
    <TTGlyph name="fraction" xMin="176" yMin="-75" xMax="994" yMax="1198">
      <contour>
        <pt x="887" y="1198" on="1"/>
        <pt x="994" y="1198" on="1"/>
        <pt x="284" y="-75" on="1"/>
        <pt x="176" y="-75" on="1"/>
      </contour>
    </TTGlyph>
    <TTGlyph name="g" xMin="83" yMin="-667" xMax="893" yMax="823">
      <contour>
        <pt x="892" y="732" on="1"/>
        <pt x="727" y="732" on="1"/>
        <pt x="736" y="702" on="0"/>
        <pt x="747" y="550" on="0"/>
        <pt x="747" y="533" on="1"/>
        <pt x="747" y="336" on="0"/>
        <pt x="575" y="261" on="1"/>
        <pt x="472" y="216" on="0"/>
        <pt x="372" y="227" on="1"/>
        <pt x="293" y="164" on="0"/>
        <pt x="262" y="110" on="0"/>
        <pt x="262" y="81" on="1"/>
        <pt x="262" y="15" on="0"/>
        <pt x="416" y="5" on="1"/>
        <pt x="454" y="3" on="0"/>
        <pt x="729" y="3" on="0"/>
        <pt x="893" y="-135" on="0"/>
        <pt x="893" y="-241" on="1"/>
        <pt x="893" y="-403" on="0"/>
        <pt x="635" y="-667" on="0"/>
        <pt x="401" y="-667" on="1"/>
        <pt x="304" y="-667" on="0"/>
        <pt x="212" y="-613" on="1"/>
        <pt x="84" y="-535" on="0"/>
        <pt x="83" y="-409" on="1"/>
        <pt x="83" y="-245" on="0"/>
        <pt x="259" y="-119" on="1"/>
        <pt x="302" y="-90" on="1"/>
        <pt x="191" y="-56" on="0"/>
        <pt x="153" y="-24" on="1"/>
        <pt x="113" y="11" on="0"/>
        <pt x="113" y="51" on="1"/>
        <pt x="114" y="110" on="0"/>
        <pt x="200" y="180" on="1"/>
        <pt x="238" y="210" on="0"/>
        <pt x="289" y="246" on="1"/>
        <pt x="245" y="272" on="0"/>
        <pt x="127" y="408" on="0"/>
        <pt x="127" y="502" on="1"/>
        <pt x="127" y="671" on="0"/>
        <pt x="316" y="823" on="0"/>
        <pt x="434" y="823" on="1"/>
        <pt x="534" y="821" on="0"/>
        <pt x="688" y="799" on="0"/>
        <pt x="720" y="799" on="1"/>
        <pt x="892" y="799" on="1"/>
      </contour>
      <contour>
        <pt x="314" y="-558" on="1"/>
        <pt x="368" y="-586" on="0"/>
        <pt x="422" y="-587" on="1"/>
        <pt x="588" y="-587" on="0"/>
        <pt x="766" y="-408" on="0"/>
        <pt x="769" y="-310" on="1"/>
        <pt x="767" y="-109" on="0"/>
        <pt x="536" y="-108" on="1"/>
        <pt x="450" y="-108" on="0"/>
        <pt x="395" y="-114" on="0"/>
        <pt x="346" y="-129" on="1"/>
        <pt x="212" y="-263" on="0"/>
        <pt x="212" y="-375" on="1"/>
        <pt x="212" y="-503" on="0"/>
      </contour>
      <contour>
        <pt x="435" y="763" on="1"/>
        <pt x="250" y="761" on="0"/>
        <pt x="249" y="505" on="1"/>
        <pt x="249" y="415" on="0"/>
        <pt x="339" y="288" on="0"/>
        <pt x="425" y="287" on="1"/>
        <pt x="566" y="287" on="0"/>
        <pt x="607" y="437" on="1"/>
        <pt x="620" y="487" on="0"/>
        <pt x="621" y="544" on="1"/>
        <pt x="621" y="668" on="0"/>
        <pt x="551" y="726" on="1"/>
        <pt x="504" y="763" on="0"/>
      </contour>
    </TTGlyph>
    <TTGlyph name="germandbls" xMin="109" yMin="-2" xMax="1055" yMax="1372">
      <contour>
        <pt x="363" y="1013" on="1"/>
        <pt x="363" y="0" on="1"/>
        <pt x="109" y="0" on="1"/>
        <pt x="109" y="41" on="1"/>
        <pt x="164" y="53" on="1"/>
        <pt x="230" y="73" on="0"/>
        <pt x="231" y="101" on="1"/>
        <pt x="231" y="1024" on="1"/>
        <pt x="231" y="1211" on="0"/>
        <pt x="433" y="1372" on="0"/>
        <pt x="584" y="1372" on="1"/>
        <pt x="777" y="1372" on="0"/>
        <pt x="951" y="1187" on="0"/>
        <pt x="952" y="885" on="0"/>
        <pt x="835" y="810" on="1"/>
        <pt x="822" y="802" on="0"/>
        <pt x="782" y="780" on="0"/>
        <pt x="776" y="776" on="1"/>
        <pt x="831" y="764" on="0"/>
        <pt x="900" y="712" on="1"/>
        <pt x="1052" y="592" on="0"/>
        <pt x="1055" y="417" on="1"/>
        <pt x="1055" y="152" on="0"/>
        <pt x="812" y="51" on="1"/>
        <pt x="678" y="-2" on="0"/>
        <pt x="531" y="0" on="1"/>
        <pt x="531" y="60" on="1"/>
        <pt x="734" y="84" on="0"/>
        <pt x="893" y="272" on="0"/>
        <pt x="893" y="394" on="1"/>
        <pt x="893" y="575" on="0"/>
        <pt x="646" y="746" on="0"/>
        <pt x="531" y="747" on="1"/>
        <pt x="531" y="805" on="1"/>
        <pt x="674" y="798" on="0"/>
        <pt x="805" y="923" on="0"/>
        <pt x="805" y="1040" on="1"/>
        <pt x="805" y="1206" on="0"/>
        <pt x="699" y="1271" on="1"/>
        <pt x="650" y="1300" on="0"/>
        <pt x="584" y="1301" on="1"/>
        <pt x="466" y="1301" on="0"/>
        <pt x="363" y="1145" on="0"/>
      </contour>
    </TTGlyph>
    <TTGlyph name="grave" xMin="248" yMin="945" xMax="536" yMax="1236">
      <contour>
        <pt x="269" y="1236" on="1"/>
        <pt x="318" y="1111" on="0"/>
        <pt x="460" y="1063" on="1"/>
        <pt x="508" y="1046" on="0"/>
        <pt x="536" y="1046" on="1"/>
        <pt x="535" y="985" on="0"/>
        <pt x="489" y="945" on="0"/>
        <pt x="456" y="945" on="1"/>
        <pt x="404" y="945" on="0"/>
        <pt x="280" y="1084" on="0"/>
        <pt x="248" y="1236" on="1"/>
      </contour>
    </TTGlyph>
    <TTGlyph name="greater" xMin="114" yMin="228" xMax="973" yMax="1030">
      <contour>
        <pt x="114" y="936" on="1"/>
        <pt x="114" y="1030" on="1"/>
        <pt x="973" y="667" on="1"/>
        <pt x="973" y="590" on="1"/>
        <pt x="114" y="228" on="1"/>
        <pt x="114" y="321" on="1"/>
        <pt x="859" y="628" on="1"/>
      </contour>
    </TTGlyph>
    <TTGlyph name="guillemotleft" xMin="173" yMin="111" xMax="792" yMax="830">
      <contour>
        <pt x="425" y="507" on="1"/>
        <pt x="792" y="830" on="1"/>
        <pt x="792" y="802" on="1"/>
        <pt x="792" y="714" on="0"/>
        <pt x="626" y="555" on="1"/>
        <pt x="554" y="486" on="0"/>
        <pt x="530" y="473" on="1"/>
        <pt x="558" y="452" on="0"/>
        <pt x="632" y="378" on="1"/>
        <pt x="791" y="216" on="0"/>
        <pt x="792" y="139" on="1"/>
        <pt x="792" y="111" on="1"/>
        <pt x="425" y="438" on="1"/>
      </contour>
      <contour>
        <pt x="173" y="507" on="1"/>
        <pt x="540" y="830" on="1"/>
        <pt x="540" y="802" on="1"/>
        <pt x="540" y="714" on="0"/>
        <pt x="373" y="555" on="1"/>
        <pt x="301" y="486" on="0"/>
        <pt x="277" y="473" on="1"/>
        <pt x="297" y="461" on="0"/>
        <pt x="370" y="388" on="1"/>
        <pt x="539" y="219" on="0"/>
        <pt x="540" y="139" on="1"/>
        <pt x="540" y="111" on="1"/>
        <pt x="173" y="438" on="1"/>
      </contour>
    </TTGlyph>
    <TTGlyph name="guillemotright" xMin="173" yMin="111" xMax="792" yMax="830">
      <contour>
        <pt x="173" y="830" on="1"/>
        <pt x="540" y="507" on="1"/>
        <pt x="540" y="438" on="1"/>
        <pt x="173" y="111" on="1"/>
        <pt x="173" y="139" on="1"/>
        <pt x="173" y="224" on="0"/>
        <pt x="365" y="409" on="1"/>
        <pt x="417" y="459" on="0"/>
        <pt x="435" y="473" on="1"/>
        <pt x="412" y="485" on="0"/>
        <pt x="339" y="555" on="1"/>
        <pt x="174" y="714" on="0"/>
        <pt x="173" y="802" on="1"/>
      </contour>
      <contour>
        <pt x="425" y="830" on="1"/>
        <pt x="792" y="507" on="1"/>
        <pt x="792" y="438" on="1"/>
        <pt x="425" y="111" on="1"/>
        <pt x="425" y="139" on="1"/>
        <pt x="425" y="222" on="0"/>
        <pt x="607" y="400" on="1"/>
        <pt x="670" y="462" on="0"/>
        <pt x="688" y="473" on="1"/>
        <pt x="665" y="485" on="0"/>
        <pt x="592" y="555" on="1"/>
        <pt x="426" y="714" on="0"/>
        <pt x="425" y="802" on="1"/>
      </contour>
    </TTGlyph>
    <TTGlyph name="guilsinglleft" xMin="173" yMin="111" xMax="540" yMax="830">
      <contour>
        <pt x="173" y="507" on="1"/>
        <pt x="540" y="830" on="1"/>
        <pt x="540" y="802" on="1"/>
        <pt x="540" y="714" on="0"/>
        <pt x="373" y="555" on="1"/>
        <pt x="301" y="486" on="0"/>
        <pt x="277" y="473" on="1"/>
        <pt x="297" y="461" on="0"/>
        <pt x="370" y="388" on="1"/>
        <pt x="539" y="219" on="0"/>
        <pt x="540" y="139" on="1"/>
        <pt x="540" y="111" on="1"/>
        <pt x="173" y="438" on="1"/>
      </contour>
    </TTGlyph>
    <TTGlyph name="guilsinglright" xMin="173" yMin="111" xMax="540" yMax="830">
      <contour>
        <pt x="173" y="830" on="1"/>
        <pt x="540" y="507" on="1"/>
        <pt x="540" y="438" on="1"/>
        <pt x="173" y="111" on="1"/>
        <pt x="173" y="139" on="1"/>
        <pt x="173" y="224" on="0"/>
        <pt x="365" y="409" on="1"/>
        <pt x="417" y="459" on="0"/>
        <pt x="435" y="473" on="1"/>
        <pt x="412" y="485" on="0"/>
        <pt x="339" y="555" on="1"/>
        <pt x="174" y="714" on="0"/>
        <pt x="173" y="802" on="1"/>
      </contour>
    </TTGlyph>
    <TTGlyph name="h" xMin="57" yMin="-2" xMax="957" yMax="1379">
      <contour>
        <pt x="554" y="733" on="1"/>
        <pt x="410" y="733" on="0"/>
        <pt x="303" y="657" on="1"/>
        <pt x="303" y="209" on="1"/>
        <pt x="303" y="117" on="0"/>
        <pt x="330" y="62" on="0"/>
        <pt x="377" y="52" on="1"/>
        <pt x="435" y="41" on="1"/>
        <pt x="435" y="0" on="1"/>
        <pt x="57" y="0" on="1"/>
        <pt x="57" y="42" on="1"/>
        <pt x="126" y="57" on="1"/>
        <pt x="163" y="65" on="0"/>
        <pt x="171" y="80" on="1"/>
        <pt x="179" y="97" on="0"/>
        <pt x="179" y="153" on="1"/>
        <pt x="179" y="1165" on="1"/>
        <pt x="179" y="1233" on="0"/>
        <pt x="174" y="1246" on="1"/>
        <pt x="161" y="1283" on="0"/>
        <pt x="62" y="1283" on="1"/>
        <pt x="57" y="1317" on="1"/>
        <pt x="303" y="1379" on="1"/>
        <pt x="303" y="730" on="1"/>
        <pt x="470" y="823" on="0"/>
        <pt x="593" y="823" on="1"/>
        <pt x="747" y="823" on="0"/>
        <pt x="800" y="684" on="1"/>
        <pt x="824" y="618" on="0"/>
        <pt x="825" y="526" on="1"/>
        <pt x="825" y="207" on="1"/>
        <pt x="825" y="115" on="0"/>
        <pt x="852" y="60" on="0"/>
        <pt x="898" y="51" on="1"/>
        <pt x="957" y="39" on="1"/>
        <pt x="957" y="-2" on="1"/>
        <pt x="579" y="-2" on="1"/>
        <pt x="579" y="41" on="1"/>
        <pt x="647" y="55" on="1"/>
        <pt x="685" y="63" on="0"/>
        <pt x="693" y="79" on="1"/>
        <pt x="701" y="96" on="0"/>
        <pt x="701" y="152" on="1"/>
        <pt x="701" y="494" on="1"/>
        <pt x="699" y="731" on="0"/>
      </contour>
    </TTGlyph>
    <TTGlyph name="hungarumlaut" xMin="308" yMin="903" xMax="830" yMax="1193">
      <contour>
        <pt x="308" y="924" on="1"/>
        <pt x="407" y="968" on="0"/>
        <pt x="494" y="1119" on="0"/>
        <pt x="498" y="1193" on="1"/>
        <pt x="557" y="1193" on="0"/>
        <pt x="600" y="1146" on="0"/>
        <pt x="600" y="1114" on="1"/>
        <pt x="600" y="1058" on="0"/>
        <pt x="458" y="935" on="0"/>
        <pt x="308" y="903" on="1"/>
      </contour>
      <contour>
        <pt x="538" y="924" on="1"/>
        <pt x="637" y="968" on="0"/>
        <pt x="724" y="1119" on="0"/>
        <pt x="728" y="1193" on="1"/>
        <pt x="787" y="1193" on="0"/>
        <pt x="830" y="1146" on="0"/>
        <pt x="830" y="1114" on="1"/>
        <pt x="830" y="1058" on="0"/>
        <pt x="688" y="935" on="0"/>
        <pt x="538" y="903" on="1"/>
      </contour>
    </TTGlyph>
    <TTGlyph name="hyphen" xMin="90" yMin="417" xMax="579" yMax="497">
      <contour>
        <pt x="579" y="497" on="1"/>
        <pt x="579" y="417" on="1"/>
        <pt x="90" y="417" on="1"/>
        <pt x="90" y="497" on="1"/>
      </contour>
    </TTGlyph>
    <TTGlyph name="i" xMin="73" yMin="0" xMax="452" yMax="1293">
      <contour>
        <pt x="319" y="818" on="1"/>
        <pt x="319" y="209" on="1"/>
        <pt x="319" y="117" on="0"/>
        <pt x="345" y="62" on="0"/>
        <pt x="393" y="52" on="1"/>
        <pt x="452" y="41" on="1"/>
        <pt x="452" y="0" on="1"/>
        <pt x="73" y="0" on="1"/>
        <pt x="73" y="42" on="1"/>
        <pt x="142" y="57" on="1"/>
        <pt x="179" y="65" on="0"/>
        <pt x="188" y="80" on="1"/>
        <pt x="196" y="97" on="0"/>
        <pt x="196" y="153" on="1"/>
        <pt x="196" y="603" on="1"/>
        <pt x="196" y="672" on="0"/>
        <pt x="190" y="687" on="1"/>
        <pt x="176" y="722" on="0"/>
        <pt x="78" y="722" on="1"/>
        <pt x="73" y="756" on="1"/>
      </contour>
      <contour>
        <pt x="148" y="1209" on="1"/>
        <pt x="148" y="1244" on="0"/>
        <pt x="195" y="1293" on="0"/>
        <pt x="230" y="1293" on="1"/>
        <pt x="264" y="1293" on="0"/>
        <pt x="313" y="1244" on="0"/>
        <pt x="313" y="1209" on="1"/>
        <pt x="313" y="1175" on="0"/>
        <pt x="264" y="1128" on="0"/>
        <pt x="230" y="1128" on="1"/>
        <pt x="195" y="1128" on="0"/>
        <pt x="148" y="1175" on="0"/>
      </contour>
    </TTGlyph>
    <TTGlyph name="iacute" xMin="73" yMin="0" xMax="452" yMax="1234">
      <component glyphName="dotlessi" x="0" y="0" flags="0x204"/>
      <component glyphName="acute" x="-103" y="0" flags="0x4"/>
    </TTGlyph>
    <TTGlyph name="icircumflex" xMin="15" yMin="0" xMax="504" yMax="1255">
      <component glyphName="dotlessi" x="0" y="0" flags="0x204"/>
      <component glyphName="circumflex" x="-47" y="0" flags="0x4"/>
    </TTGlyph>
    <TTGlyph name="idieresis" xMin="32" yMin="0" xMax="487" yMax="1139">
      <component glyphName="dotlessi" x="0" y="0" flags="0x204"/>
      <component glyphName="dieresis" x="-167" y="0" flags="0x4"/>
    </TTGlyph>
    <TTGlyph name="igrave" xMin="73" yMin="0" xMax="452" yMax="1236">
      <component glyphName="dotlessi" x="0" y="0" flags="0x204"/>
      <component glyphName="grave" x="-132" y="0" flags="0x4"/>
    </TTGlyph>
    <TTGlyph name="j" xMin="31" yMin="-668" xMax="313" yMax="1293">
      <contour>
        <pt x="104" y="-668" on="1"/>
        <pt x="32" y="-668" on="0"/>
        <pt x="31" y="-619" on="1"/>
        <pt x="31" y="-582" on="0"/>
        <pt x="76" y="-541" on="0"/>
        <pt x="109" y="-541" on="0"/>
        <pt x="176" y="-557" on="0"/>
        <pt x="189" y="-521" on="0"/>
        <pt x="189" y="-485" on="1"/>
        <pt x="189" y="603" on="1"/>
        <pt x="189" y="672" on="0"/>
        <pt x="183" y="687" on="1"/>
        <pt x="169" y="722" on="0"/>
        <pt x="72" y="722" on="1"/>
        <pt x="67" y="756" on="1"/>
        <pt x="313" y="818" on="1"/>
        <pt x="313" y="-96" on="1"/>
        <pt x="313" y="-340" on="0"/>
        <pt x="202" y="-667" on="0"/>
      </contour>
      <contour>
        <pt x="137" y="1209" on="1"/>
        <pt x="137" y="1244" on="0"/>
        <pt x="184" y="1293" on="0"/>
        <pt x="219" y="1293" on="1"/>
        <pt x="253" y="1293" on="0"/>
        <pt x="302" y="1244" on="0"/>
        <pt x="302" y="1209" on="1"/>
        <pt x="302" y="1175" on="0"/>
        <pt x="253" y="1128" on="0"/>
        <pt x="219" y="1128" on="1"/>
        <pt x="184" y="1128" on="0"/>
        <pt x="137" y="1175" on="0"/>
      </contour>
    </TTGlyph>
    <TTGlyph name="k" xMin="57" yMin="0" xMax="906" yMax="1379">
      <contour>
        <pt x="302" y="1379" on="1"/>
        <pt x="302" y="487" on="1"/>
        <pt x="567" y="698" on="1"/>
        <pt x="612" y="736" on="0"/>
        <pt x="567" y="748" on="1"/>
        <pt x="523" y="760" on="1"/>
        <pt x="523" y="802" on="1"/>
        <pt x="844" y="802" on="1"/>
        <pt x="844" y="761" on="1"/>
        <pt x="763" y="749" on="0"/>
        <pt x="679" y="695" on="1"/>
        <pt x="416" y="505" on="1"/>
        <pt x="698" y="197" on="1"/>
        <pt x="786" y="102" on="0"/>
        <pt x="804" y="85" on="1"/>
        <pt x="858" y="37" on="0"/>
        <pt x="906" y="37" on="1"/>
        <pt x="906" y="0" on="1"/>
        <pt x="559" y="0" on="1"/>
        <pt x="559" y="37" on="1"/>
        <pt x="635" y="46" on="0"/>
        <pt x="631" y="80" on="1"/>
        <pt x="629" y="92" on="0"/>
        <pt x="618" y="104" on="1"/>
        <pt x="302" y="460" on="1"/>
        <pt x="302" y="227" on="1"/>
        <pt x="302" y="133" on="0"/>
        <pt x="317" y="100" on="1"/>
        <pt x="335" y="61" on="0"/>
        <pt x="434" y="37" on="1"/>
        <pt x="434" y="0" on="1"/>
        <pt x="57" y="0" on="1"/>
        <pt x="57" y="37" on="1"/>
        <pt x="63" y="39" on="0"/>
        <pt x="100" y="46" on="1"/>
        <pt x="183" y="63" on="0"/>
        <pt x="183" y="166" on="1"/>
        <pt x="183" y="1175" on="1"/>
        <pt x="183" y="1236" on="0"/>
        <pt x="175" y="1251" on="1"/>
        <pt x="158" y="1283" on="0"/>
        <pt x="67" y="1283" on="1"/>
        <pt x="62" y="1315" on="1"/>
      </contour>
    </TTGlyph>
    <TTGlyph name="l" xMin="57" yMin="0" xMax="434" yMax="1379">
      <contour>
        <pt x="302" y="1379" on="1"/>
        <pt x="302" y="227" on="1"/>
        <pt x="302" y="137" on="0"/>
        <pt x="308" y="116" on="1"/>
        <pt x="319" y="76" on="0"/>
        <pt x="367" y="56" on="1"/>
        <pt x="393" y="46" on="0"/>
        <pt x="434" y="37" on="1"/>
        <pt x="434" y="0" on="1"/>
        <pt x="57" y="0" on="1"/>
        <pt x="57" y="37" on="1"/>
        <pt x="63" y="39" on="0"/>
        <pt x="100" y="46" on="1"/>
        <pt x="183" y="63" on="0"/>
        <pt x="183" y="166" on="1"/>
        <pt x="183" y="1175" on="1"/>
        <pt x="183" y="1236" on="0"/>
        <pt x="175" y="1251" on="1"/>
        <pt x="158" y="1283" on="0"/>
        <pt x="67" y="1283" on="1"/>
        <pt x="62" y="1315" on="1"/>
      </contour>
    </TTGlyph>
    <TTGlyph name="less" xMin="114" yMin="228" xMax="973" yMax="1030">
      <contour>
        <pt x="973" y="1030" on="1"/>
        <pt x="973" y="936" on="1"/>
        <pt x="228" y="628" on="1"/>
        <pt x="973" y="321" on="1"/>
        <pt x="973" y="228" on="1"/>
        <pt x="114" y="590" on="1"/>
        <pt x="114" y="667" on="1"/>
      </contour>
    </TTGlyph>
    <TTGlyph name="logicalnot" xMin="114" yMin="282" xMax="973" yMax="738">
      <contour>
        <pt x="114" y="738" on="1"/>
        <pt x="973" y="738" on="1"/>
        <pt x="973" y="282" on="1"/>
        <pt x="887" y="282" on="1"/>
        <pt x="887" y="652" on="1"/>
        <pt x="114" y="652" on="1"/>
      </contour>
    </TTGlyph>
    <TTGlyph name="m" xMin="73" yMin="0" xMax="1493" yMax="823">
      <contour>
        <pt x="570" y="733" on="1"/>
        <pt x="427" y="733" on="0"/>
        <pt x="319" y="657" on="1"/>
        <pt x="319" y="209" on="1"/>
        <pt x="319" y="117" on="0"/>
        <pt x="345" y="62" on="0"/>
        <pt x="393" y="52" on="1"/>
        <pt x="452" y="41" on="1"/>
        <pt x="452" y="0" on="1"/>
        <pt x="73" y="0" on="1"/>
        <pt x="73" y="42" on="1"/>
        <pt x="142" y="57" on="1"/>
        <pt x="179" y="65" on="0"/>
        <pt x="188" y="80" on="1"/>
        <pt x="196" y="97" on="0"/>
        <pt x="196" y="153" on="1"/>
        <pt x="196" y="603" on="1"/>
        <pt x="196" y="673" on="0"/>
        <pt x="182" y="697" on="1"/>
        <pt x="167" y="722" on="0"/>
        <pt x="78" y="722" on="1"/>
        <pt x="73" y="756" on="1"/>
        <pt x="319" y="818" on="1"/>
        <pt x="319" y="730" on="1"/>
        <pt x="489" y="823" on="0"/>
        <pt x="746" y="822" on="0"/>
        <pt x="804" y="711" on="1"/>
        <pt x="995" y="823" on="0"/>
        <pt x="1282" y="823" on="0"/>
        <pt x="1335" y="687" on="1"/>
        <pt x="1361" y="621" on="0"/>
        <pt x="1361" y="526" on="1"/>
        <pt x="1361" y="207" on="1"/>
        <pt x="1361" y="115" on="0"/>
        <pt x="1388" y="60" on="0"/>
        <pt x="1434" y="51" on="1"/>
        <pt x="1493" y="39" on="1"/>
        <pt x="1493" y="0" on="1"/>
        <pt x="1115" y="0" on="1"/>
        <pt x="1115" y="41" on="1"/>
        <pt x="1183" y="55" on="1"/>
        <pt x="1221" y="63" on="0"/>
        <pt x="1229" y="79" on="1"/>
        <pt x="1237" y="96" on="0"/>
        <pt x="1237" y="152" on="1"/>
        <pt x="1237" y="494" on="1"/>
        <pt x="1235" y="731" on="0"/>
        <pt x="1090" y="733" on="1"/>
        <pt x="947" y="733" on="0"/>
        <pt x="826" y="654" on="1"/>
        <pt x="841" y="599" on="0"/>
        <pt x="841" y="526" on="1"/>
        <pt x="841" y="207" on="1"/>
        <pt x="841" y="115" on="0"/>
        <pt x="868" y="60" on="0"/>
        <pt x="914" y="51" on="1"/>
        <pt x="973" y="39" on="1"/>
        <pt x="973" y="0" on="1"/>
        <pt x="595" y="0" on="1"/>
        <pt x="595" y="41" on="1"/>
        <pt x="663" y="55" on="1"/>
        <pt x="701" y="63" on="0"/>
        <pt x="709" y="79" on="1"/>
        <pt x="717" y="96" on="0"/>
        <pt x="717" y="152" on="1"/>
        <pt x="717" y="494" on="1"/>
        <pt x="715" y="731" on="0"/>
      </contour>
    </TTGlyph>
    <TTGlyph name="macron" xMin="62" yMin="976" xMax="481" yMax="1074">
      <contour>
        <pt x="62" y="1074" on="1"/>
        <pt x="481" y="1074" on="1"/>
        <pt x="481" y="976" on="1"/>
        <pt x="62" y="976" on="1"/>
      </contour>
    </TTGlyph>
    <TTGlyph name="minus" xMin="99" yMin="468" xMax="645" yMax="548">
      <contour>
        <pt x="645" y="548" on="1"/>
        <pt x="645" y="468" on="1"/>
        <pt x="99" y="468" on="1"/>
        <pt x="99" y="548" on="1"/>
      </contour>
    </TTGlyph>
    <TTGlyph name="mu" xMin="33" yMin="-665" xMax="911" yMax="810">
      <contour>
        <pt x="787" y="810" on="1"/>
        <pt x="782" y="579" on="1"/>
        <pt x="782" y="544" on="0"/>
        <pt x="779" y="247" on="0"/>
        <pt x="781" y="217" on="1"/>
        <pt x="788" y="109" on="0"/>
        <pt x="827" y="89" on="1"/>
        <pt x="847" y="79" on="0"/>
        <pt x="906" y="81" on="1"/>
        <pt x="911" y="46" on="1"/>
        <pt x="693" y="-29" on="1"/>
        <pt x="657" y="103" on="1"/>
        <pt x="624" y="71" on="1"/>
        <pt x="507" y="-30" on="0"/>
        <pt x="378" y="-31" on="1"/>
        <pt x="310" y="-31" on="0"/>
        <pt x="262" y="-9" on="1"/>
        <pt x="262" y="-665" on="1"/>
        <pt x="137" y="-665" on="1"/>
        <pt x="137" y="600" on="1"/>
        <pt x="137" y="723" on="0"/>
        <pt x="86" y="756" on="1"/>
        <pt x="63" y="770" on="0"/>
        <pt x="33" y="764" on="1"/>
        <pt x="33" y="804" on="1"/>
        <pt x="262" y="804" on="1"/>
        <pt x="262" y="386" on="1"/>
        <pt x="262" y="372" on="0"/>
        <pt x="259" y="290" on="1"/>
        <pt x="251" y="57" on="0"/>
        <pt x="422" y="55" on="1"/>
        <pt x="517" y="55" on="0"/>
        <pt x="657" y="207" on="0"/>
        <pt x="657" y="303" on="1"/>
        <pt x="657" y="546" on="1"/>
        <pt x="657" y="679" on="0"/>
        <pt x="645" y="715" on="1"/>
        <pt x="629" y="763" on="0"/>
        <pt x="531" y="763" on="1"/>
        <pt x="531" y="804" on="1"/>
      </contour>
    </TTGlyph>
    <TTGlyph name="multiply" xMin="349" yMin="437" xMax="755" yMax="839">
      <contour>
        <pt x="349" y="782" on="1"/>
        <pt x="404" y="839" on="1"/>
        <pt x="552" y="691" on="1"/>
        <pt x="699" y="838" on="1"/>
        <pt x="755" y="782" on="1"/>
        <pt x="608" y="635" on="1"/>
        <pt x="750" y="494" on="1"/>
        <pt x="694" y="437" on="1"/>
        <pt x="551" y="579" on="1"/>
        <pt x="409" y="437" on="1"/>
        <pt x="354" y="492" on="1"/>
        <pt x="496" y="634" on="1"/>
      </contour>
    </TTGlyph>
</ttFont>
